%TF.GenerationSoftware,KiCad,Pcbnew,9.0.4-9.0.4-0~ubuntu22.04.1*%
%TF.CreationDate,2025-09-22T13:37:00+01:00*%
%TF.ProjectId,datalogger_pcb,64617461-6c6f-4676-9765-725f7063622e,rev?*%
%TF.SameCoordinates,Original*%
%TF.FileFunction,Legend,Top*%
%TF.FilePolarity,Positive*%
%FSLAX46Y46*%
G04 Gerber Fmt 4.6, Leading zero omitted, Abs format (unit mm)*
G04 Created by KiCad (PCBNEW 9.0.4-9.0.4-0~ubuntu22.04.1) date 2025-09-22 13:37:00*
%MOMM*%
%LPD*%
G01*
G04 APERTURE LIST*
%ADD10C,0.250000*%
%ADD11C,0.200000*%
%ADD12C,0.300000*%
%ADD13C,0.150000*%
%ADD14C,0.120000*%
G04 APERTURE END LIST*
D10*
X190640663Y-72670333D02*
X192164473Y-72670333D01*
X185140663Y-72670333D02*
X186664473Y-72670333D01*
X185902568Y-73432238D02*
X185902568Y-71908428D01*
X181140663Y-44480333D02*
X182664473Y-44480333D01*
D11*
X90322054Y-65319600D02*
X90464911Y-65367219D01*
X90464911Y-65367219D02*
X90703006Y-65367219D01*
X90703006Y-65367219D02*
X90798244Y-65319600D01*
X90798244Y-65319600D02*
X90845863Y-65271980D01*
X90845863Y-65271980D02*
X90893482Y-65176742D01*
X90893482Y-65176742D02*
X90893482Y-65081504D01*
X90893482Y-65081504D02*
X90845863Y-64986266D01*
X90845863Y-64986266D02*
X90798244Y-64938647D01*
X90798244Y-64938647D02*
X90703006Y-64891028D01*
X90703006Y-64891028D02*
X90512530Y-64843409D01*
X90512530Y-64843409D02*
X90417292Y-64795790D01*
X90417292Y-64795790D02*
X90369673Y-64748171D01*
X90369673Y-64748171D02*
X90322054Y-64652933D01*
X90322054Y-64652933D02*
X90322054Y-64557695D01*
X90322054Y-64557695D02*
X90369673Y-64462457D01*
X90369673Y-64462457D02*
X90417292Y-64414838D01*
X90417292Y-64414838D02*
X90512530Y-64367219D01*
X90512530Y-64367219D02*
X90750625Y-64367219D01*
X90750625Y-64367219D02*
X90893482Y-64414838D01*
X91893482Y-65271980D02*
X91845863Y-65319600D01*
X91845863Y-65319600D02*
X91703006Y-65367219D01*
X91703006Y-65367219D02*
X91607768Y-65367219D01*
X91607768Y-65367219D02*
X91464911Y-65319600D01*
X91464911Y-65319600D02*
X91369673Y-65224361D01*
X91369673Y-65224361D02*
X91322054Y-65129123D01*
X91322054Y-65129123D02*
X91274435Y-64938647D01*
X91274435Y-64938647D02*
X91274435Y-64795790D01*
X91274435Y-64795790D02*
X91322054Y-64605314D01*
X91322054Y-64605314D02*
X91369673Y-64510076D01*
X91369673Y-64510076D02*
X91464911Y-64414838D01*
X91464911Y-64414838D02*
X91607768Y-64367219D01*
X91607768Y-64367219D02*
X91703006Y-64367219D01*
X91703006Y-64367219D02*
X91845863Y-64414838D01*
X91845863Y-64414838D02*
X91893482Y-64462457D01*
X92798244Y-65367219D02*
X92322054Y-65367219D01*
X92322054Y-65367219D02*
X92322054Y-64367219D01*
X113512530Y-106295790D02*
X113417292Y-106248171D01*
X113417292Y-106248171D02*
X113369673Y-106200552D01*
X113369673Y-106200552D02*
X113322054Y-106105314D01*
X113322054Y-106105314D02*
X113322054Y-106057695D01*
X113322054Y-106057695D02*
X113369673Y-105962457D01*
X113369673Y-105962457D02*
X113417292Y-105914838D01*
X113417292Y-105914838D02*
X113512530Y-105867219D01*
X113512530Y-105867219D02*
X113703006Y-105867219D01*
X113703006Y-105867219D02*
X113798244Y-105914838D01*
X113798244Y-105914838D02*
X113845863Y-105962457D01*
X113845863Y-105962457D02*
X113893482Y-106057695D01*
X113893482Y-106057695D02*
X113893482Y-106105314D01*
X113893482Y-106105314D02*
X113845863Y-106200552D01*
X113845863Y-106200552D02*
X113798244Y-106248171D01*
X113798244Y-106248171D02*
X113703006Y-106295790D01*
X113703006Y-106295790D02*
X113512530Y-106295790D01*
X113512530Y-106295790D02*
X113417292Y-106343409D01*
X113417292Y-106343409D02*
X113369673Y-106391028D01*
X113369673Y-106391028D02*
X113322054Y-106486266D01*
X113322054Y-106486266D02*
X113322054Y-106676742D01*
X113322054Y-106676742D02*
X113369673Y-106771980D01*
X113369673Y-106771980D02*
X113417292Y-106819600D01*
X113417292Y-106819600D02*
X113512530Y-106867219D01*
X113512530Y-106867219D02*
X113703006Y-106867219D01*
X113703006Y-106867219D02*
X113798244Y-106819600D01*
X113798244Y-106819600D02*
X113845863Y-106771980D01*
X113845863Y-106771980D02*
X113893482Y-106676742D01*
X113893482Y-106676742D02*
X113893482Y-106486266D01*
X113893482Y-106486266D02*
X113845863Y-106391028D01*
X113845863Y-106391028D02*
X113798244Y-106343409D01*
X113798244Y-106343409D02*
X113703006Y-106295790D01*
X160893482Y-78914838D02*
X160798244Y-78867219D01*
X160798244Y-78867219D02*
X160655387Y-78867219D01*
X160655387Y-78867219D02*
X160512530Y-78914838D01*
X160512530Y-78914838D02*
X160417292Y-79010076D01*
X160417292Y-79010076D02*
X160369673Y-79105314D01*
X160369673Y-79105314D02*
X160322054Y-79295790D01*
X160322054Y-79295790D02*
X160322054Y-79438647D01*
X160322054Y-79438647D02*
X160369673Y-79629123D01*
X160369673Y-79629123D02*
X160417292Y-79724361D01*
X160417292Y-79724361D02*
X160512530Y-79819600D01*
X160512530Y-79819600D02*
X160655387Y-79867219D01*
X160655387Y-79867219D02*
X160750625Y-79867219D01*
X160750625Y-79867219D02*
X160893482Y-79819600D01*
X160893482Y-79819600D02*
X160941101Y-79771980D01*
X160941101Y-79771980D02*
X160941101Y-79438647D01*
X160941101Y-79438647D02*
X160750625Y-79438647D01*
X161369673Y-79867219D02*
X161369673Y-78867219D01*
X161369673Y-78867219D02*
X161941101Y-79867219D01*
X161941101Y-79867219D02*
X161941101Y-78867219D01*
X162417292Y-79867219D02*
X162417292Y-78867219D01*
X162417292Y-78867219D02*
X162655387Y-78867219D01*
X162655387Y-78867219D02*
X162798244Y-78914838D01*
X162798244Y-78914838D02*
X162893482Y-79010076D01*
X162893482Y-79010076D02*
X162941101Y-79105314D01*
X162941101Y-79105314D02*
X162988720Y-79295790D01*
X162988720Y-79295790D02*
X162988720Y-79438647D01*
X162988720Y-79438647D02*
X162941101Y-79629123D01*
X162941101Y-79629123D02*
X162893482Y-79724361D01*
X162893482Y-79724361D02*
X162798244Y-79819600D01*
X162798244Y-79819600D02*
X162655387Y-79867219D01*
X162655387Y-79867219D02*
X162417292Y-79867219D01*
X151369673Y-48486266D02*
X152131578Y-48486266D01*
X151750625Y-48867219D02*
X151750625Y-48105314D01*
X153083958Y-47867219D02*
X152607768Y-47867219D01*
X152607768Y-47867219D02*
X152560149Y-48343409D01*
X152560149Y-48343409D02*
X152607768Y-48295790D01*
X152607768Y-48295790D02*
X152703006Y-48248171D01*
X152703006Y-48248171D02*
X152941101Y-48248171D01*
X152941101Y-48248171D02*
X153036339Y-48295790D01*
X153036339Y-48295790D02*
X153083958Y-48343409D01*
X153083958Y-48343409D02*
X153131577Y-48438647D01*
X153131577Y-48438647D02*
X153131577Y-48676742D01*
X153131577Y-48676742D02*
X153083958Y-48771980D01*
X153083958Y-48771980D02*
X153036339Y-48819600D01*
X153036339Y-48819600D02*
X152941101Y-48867219D01*
X152941101Y-48867219D02*
X152703006Y-48867219D01*
X152703006Y-48867219D02*
X152607768Y-48819600D01*
X152607768Y-48819600D02*
X152560149Y-48771980D01*
X153417292Y-47867219D02*
X153750625Y-48867219D01*
X153750625Y-48867219D02*
X154083958Y-47867219D01*
X177822054Y-105962457D02*
X177869673Y-105914838D01*
X177869673Y-105914838D02*
X177964911Y-105867219D01*
X177964911Y-105867219D02*
X178203006Y-105867219D01*
X178203006Y-105867219D02*
X178298244Y-105914838D01*
X178298244Y-105914838D02*
X178345863Y-105962457D01*
X178345863Y-105962457D02*
X178393482Y-106057695D01*
X178393482Y-106057695D02*
X178393482Y-106152933D01*
X178393482Y-106152933D02*
X178345863Y-106295790D01*
X178345863Y-106295790D02*
X177774435Y-106867219D01*
X177774435Y-106867219D02*
X178393482Y-106867219D01*
X179345863Y-106867219D02*
X178774435Y-106867219D01*
X179060149Y-106867219D02*
X179060149Y-105867219D01*
X179060149Y-105867219D02*
X178964911Y-106010076D01*
X178964911Y-106010076D02*
X178869673Y-106105314D01*
X178869673Y-106105314D02*
X178774435Y-106152933D01*
X119893482Y-122367219D02*
X119322054Y-122367219D01*
X119607768Y-122367219D02*
X119607768Y-121367219D01*
X119607768Y-121367219D02*
X119512530Y-121510076D01*
X119512530Y-121510076D02*
X119417292Y-121605314D01*
X119417292Y-121605314D02*
X119322054Y-121652933D01*
X120845863Y-122367219D02*
X120274435Y-122367219D01*
X120560149Y-122367219D02*
X120560149Y-121367219D01*
X120560149Y-121367219D02*
X120464911Y-121510076D01*
X120464911Y-121510076D02*
X120369673Y-121605314D01*
X120369673Y-121605314D02*
X120274435Y-121652933D01*
X176813482Y-78914838D02*
X176718244Y-78867219D01*
X176718244Y-78867219D02*
X176575387Y-78867219D01*
X176575387Y-78867219D02*
X176432530Y-78914838D01*
X176432530Y-78914838D02*
X176337292Y-79010076D01*
X176337292Y-79010076D02*
X176289673Y-79105314D01*
X176289673Y-79105314D02*
X176242054Y-79295790D01*
X176242054Y-79295790D02*
X176242054Y-79438647D01*
X176242054Y-79438647D02*
X176289673Y-79629123D01*
X176289673Y-79629123D02*
X176337292Y-79724361D01*
X176337292Y-79724361D02*
X176432530Y-79819600D01*
X176432530Y-79819600D02*
X176575387Y-79867219D01*
X176575387Y-79867219D02*
X176670625Y-79867219D01*
X176670625Y-79867219D02*
X176813482Y-79819600D01*
X176813482Y-79819600D02*
X176861101Y-79771980D01*
X176861101Y-79771980D02*
X176861101Y-79438647D01*
X176861101Y-79438647D02*
X176670625Y-79438647D01*
X177289673Y-79867219D02*
X177289673Y-78867219D01*
X177289673Y-78867219D02*
X177861101Y-79867219D01*
X177861101Y-79867219D02*
X177861101Y-78867219D01*
X178337292Y-79867219D02*
X178337292Y-78867219D01*
X178337292Y-78867219D02*
X178575387Y-78867219D01*
X178575387Y-78867219D02*
X178718244Y-78914838D01*
X178718244Y-78914838D02*
X178813482Y-79010076D01*
X178813482Y-79010076D02*
X178861101Y-79105314D01*
X178861101Y-79105314D02*
X178908720Y-79295790D01*
X178908720Y-79295790D02*
X178908720Y-79438647D01*
X178908720Y-79438647D02*
X178861101Y-79629123D01*
X178861101Y-79629123D02*
X178813482Y-79724361D01*
X178813482Y-79724361D02*
X178718244Y-79819600D01*
X178718244Y-79819600D02*
X178575387Y-79867219D01*
X178575387Y-79867219D02*
X178337292Y-79867219D01*
X162893482Y-106867219D02*
X162322054Y-106867219D01*
X162607768Y-106867219D02*
X162607768Y-105867219D01*
X162607768Y-105867219D02*
X162512530Y-106010076D01*
X162512530Y-106010076D02*
X162417292Y-106105314D01*
X162417292Y-106105314D02*
X162322054Y-106152933D01*
X163464911Y-106295790D02*
X163369673Y-106248171D01*
X163369673Y-106248171D02*
X163322054Y-106200552D01*
X163322054Y-106200552D02*
X163274435Y-106105314D01*
X163274435Y-106105314D02*
X163274435Y-106057695D01*
X163274435Y-106057695D02*
X163322054Y-105962457D01*
X163322054Y-105962457D02*
X163369673Y-105914838D01*
X163369673Y-105914838D02*
X163464911Y-105867219D01*
X163464911Y-105867219D02*
X163655387Y-105867219D01*
X163655387Y-105867219D02*
X163750625Y-105914838D01*
X163750625Y-105914838D02*
X163798244Y-105962457D01*
X163798244Y-105962457D02*
X163845863Y-106057695D01*
X163845863Y-106057695D02*
X163845863Y-106105314D01*
X163845863Y-106105314D02*
X163798244Y-106200552D01*
X163798244Y-106200552D02*
X163750625Y-106248171D01*
X163750625Y-106248171D02*
X163655387Y-106295790D01*
X163655387Y-106295790D02*
X163464911Y-106295790D01*
X163464911Y-106295790D02*
X163369673Y-106343409D01*
X163369673Y-106343409D02*
X163322054Y-106391028D01*
X163322054Y-106391028D02*
X163274435Y-106486266D01*
X163274435Y-106486266D02*
X163274435Y-106676742D01*
X163274435Y-106676742D02*
X163322054Y-106771980D01*
X163322054Y-106771980D02*
X163369673Y-106819600D01*
X163369673Y-106819600D02*
X163464911Y-106867219D01*
X163464911Y-106867219D02*
X163655387Y-106867219D01*
X163655387Y-106867219D02*
X163750625Y-106819600D01*
X163750625Y-106819600D02*
X163798244Y-106771980D01*
X163798244Y-106771980D02*
X163845863Y-106676742D01*
X163845863Y-106676742D02*
X163845863Y-106486266D01*
X163845863Y-106486266D02*
X163798244Y-106391028D01*
X163798244Y-106391028D02*
X163750625Y-106343409D01*
X163750625Y-106343409D02*
X163655387Y-106295790D01*
X90322054Y-60319600D02*
X90464911Y-60367219D01*
X90464911Y-60367219D02*
X90703006Y-60367219D01*
X90703006Y-60367219D02*
X90798244Y-60319600D01*
X90798244Y-60319600D02*
X90845863Y-60271980D01*
X90845863Y-60271980D02*
X90893482Y-60176742D01*
X90893482Y-60176742D02*
X90893482Y-60081504D01*
X90893482Y-60081504D02*
X90845863Y-59986266D01*
X90845863Y-59986266D02*
X90798244Y-59938647D01*
X90798244Y-59938647D02*
X90703006Y-59891028D01*
X90703006Y-59891028D02*
X90512530Y-59843409D01*
X90512530Y-59843409D02*
X90417292Y-59795790D01*
X90417292Y-59795790D02*
X90369673Y-59748171D01*
X90369673Y-59748171D02*
X90322054Y-59652933D01*
X90322054Y-59652933D02*
X90322054Y-59557695D01*
X90322054Y-59557695D02*
X90369673Y-59462457D01*
X90369673Y-59462457D02*
X90417292Y-59414838D01*
X90417292Y-59414838D02*
X90512530Y-59367219D01*
X90512530Y-59367219D02*
X90750625Y-59367219D01*
X90750625Y-59367219D02*
X90893482Y-59414838D01*
X91322054Y-60367219D02*
X91322054Y-59367219D01*
X91322054Y-59367219D02*
X91560149Y-59367219D01*
X91560149Y-59367219D02*
X91703006Y-59414838D01*
X91703006Y-59414838D02*
X91798244Y-59510076D01*
X91798244Y-59510076D02*
X91845863Y-59605314D01*
X91845863Y-59605314D02*
X91893482Y-59795790D01*
X91893482Y-59795790D02*
X91893482Y-59938647D01*
X91893482Y-59938647D02*
X91845863Y-60129123D01*
X91845863Y-60129123D02*
X91798244Y-60224361D01*
X91798244Y-60224361D02*
X91703006Y-60319600D01*
X91703006Y-60319600D02*
X91560149Y-60367219D01*
X91560149Y-60367219D02*
X91322054Y-60367219D01*
X92274435Y-60081504D02*
X92750625Y-60081504D01*
X92179197Y-60367219D02*
X92512530Y-59367219D01*
X92512530Y-59367219D02*
X92845863Y-60367219D01*
X89869673Y-69986266D02*
X90631578Y-69986266D01*
X90250625Y-70367219D02*
X90250625Y-69605314D01*
X91012530Y-69367219D02*
X91631577Y-69367219D01*
X91631577Y-69367219D02*
X91298244Y-69748171D01*
X91298244Y-69748171D02*
X91441101Y-69748171D01*
X91441101Y-69748171D02*
X91536339Y-69795790D01*
X91536339Y-69795790D02*
X91583958Y-69843409D01*
X91583958Y-69843409D02*
X91631577Y-69938647D01*
X91631577Y-69938647D02*
X91631577Y-70176742D01*
X91631577Y-70176742D02*
X91583958Y-70271980D01*
X91583958Y-70271980D02*
X91536339Y-70319600D01*
X91536339Y-70319600D02*
X91441101Y-70367219D01*
X91441101Y-70367219D02*
X91155387Y-70367219D01*
X91155387Y-70367219D02*
X91060149Y-70319600D01*
X91060149Y-70319600D02*
X91012530Y-70271980D01*
X92060149Y-70271980D02*
X92107768Y-70319600D01*
X92107768Y-70319600D02*
X92060149Y-70367219D01*
X92060149Y-70367219D02*
X92012530Y-70319600D01*
X92012530Y-70319600D02*
X92060149Y-70271980D01*
X92060149Y-70271980D02*
X92060149Y-70367219D01*
X92441101Y-69367219D02*
X93060148Y-69367219D01*
X93060148Y-69367219D02*
X92726815Y-69748171D01*
X92726815Y-69748171D02*
X92869672Y-69748171D01*
X92869672Y-69748171D02*
X92964910Y-69795790D01*
X92964910Y-69795790D02*
X93012529Y-69843409D01*
X93012529Y-69843409D02*
X93060148Y-69938647D01*
X93060148Y-69938647D02*
X93060148Y-70176742D01*
X93060148Y-70176742D02*
X93012529Y-70271980D01*
X93012529Y-70271980D02*
X92964910Y-70319600D01*
X92964910Y-70319600D02*
X92869672Y-70367219D01*
X92869672Y-70367219D02*
X92583958Y-70367219D01*
X92583958Y-70367219D02*
X92488720Y-70319600D01*
X92488720Y-70319600D02*
X92441101Y-70271980D01*
X90893482Y-97914838D02*
X90798244Y-97867219D01*
X90798244Y-97867219D02*
X90655387Y-97867219D01*
X90655387Y-97867219D02*
X90512530Y-97914838D01*
X90512530Y-97914838D02*
X90417292Y-98010076D01*
X90417292Y-98010076D02*
X90369673Y-98105314D01*
X90369673Y-98105314D02*
X90322054Y-98295790D01*
X90322054Y-98295790D02*
X90322054Y-98438647D01*
X90322054Y-98438647D02*
X90369673Y-98629123D01*
X90369673Y-98629123D02*
X90417292Y-98724361D01*
X90417292Y-98724361D02*
X90512530Y-98819600D01*
X90512530Y-98819600D02*
X90655387Y-98867219D01*
X90655387Y-98867219D02*
X90750625Y-98867219D01*
X90750625Y-98867219D02*
X90893482Y-98819600D01*
X90893482Y-98819600D02*
X90941101Y-98771980D01*
X90941101Y-98771980D02*
X90941101Y-98438647D01*
X90941101Y-98438647D02*
X90750625Y-98438647D01*
X91369673Y-98867219D02*
X91369673Y-97867219D01*
X91369673Y-97867219D02*
X91941101Y-98867219D01*
X91941101Y-98867219D02*
X91941101Y-97867219D01*
X92417292Y-98867219D02*
X92417292Y-97867219D01*
X92417292Y-97867219D02*
X92655387Y-97867219D01*
X92655387Y-97867219D02*
X92798244Y-97914838D01*
X92798244Y-97914838D02*
X92893482Y-98010076D01*
X92893482Y-98010076D02*
X92941101Y-98105314D01*
X92941101Y-98105314D02*
X92988720Y-98295790D01*
X92988720Y-98295790D02*
X92988720Y-98438647D01*
X92988720Y-98438647D02*
X92941101Y-98629123D01*
X92941101Y-98629123D02*
X92893482Y-98724361D01*
X92893482Y-98724361D02*
X92798244Y-98819600D01*
X92798244Y-98819600D02*
X92655387Y-98867219D01*
X92655387Y-98867219D02*
X92417292Y-98867219D01*
X123226816Y-46367219D02*
X123798244Y-46367219D01*
X123512530Y-47367219D02*
X123512530Y-46367219D01*
X124036340Y-46367219D02*
X124703006Y-47367219D01*
X124703006Y-46367219D02*
X124036340Y-47367219D01*
X97393482Y-105914838D02*
X97298244Y-105867219D01*
X97298244Y-105867219D02*
X97155387Y-105867219D01*
X97155387Y-105867219D02*
X97012530Y-105914838D01*
X97012530Y-105914838D02*
X96917292Y-106010076D01*
X96917292Y-106010076D02*
X96869673Y-106105314D01*
X96869673Y-106105314D02*
X96822054Y-106295790D01*
X96822054Y-106295790D02*
X96822054Y-106438647D01*
X96822054Y-106438647D02*
X96869673Y-106629123D01*
X96869673Y-106629123D02*
X96917292Y-106724361D01*
X96917292Y-106724361D02*
X97012530Y-106819600D01*
X97012530Y-106819600D02*
X97155387Y-106867219D01*
X97155387Y-106867219D02*
X97250625Y-106867219D01*
X97250625Y-106867219D02*
X97393482Y-106819600D01*
X97393482Y-106819600D02*
X97441101Y-106771980D01*
X97441101Y-106771980D02*
X97441101Y-106438647D01*
X97441101Y-106438647D02*
X97250625Y-106438647D01*
X97869673Y-106867219D02*
X97869673Y-105867219D01*
X97869673Y-105867219D02*
X98441101Y-106867219D01*
X98441101Y-106867219D02*
X98441101Y-105867219D01*
X98917292Y-106867219D02*
X98917292Y-105867219D01*
X98917292Y-105867219D02*
X99155387Y-105867219D01*
X99155387Y-105867219D02*
X99298244Y-105914838D01*
X99298244Y-105914838D02*
X99393482Y-106010076D01*
X99393482Y-106010076D02*
X99441101Y-106105314D01*
X99441101Y-106105314D02*
X99488720Y-106295790D01*
X99488720Y-106295790D02*
X99488720Y-106438647D01*
X99488720Y-106438647D02*
X99441101Y-106629123D01*
X99441101Y-106629123D02*
X99393482Y-106724361D01*
X99393482Y-106724361D02*
X99298244Y-106819600D01*
X99298244Y-106819600D02*
X99155387Y-106867219D01*
X99155387Y-106867219D02*
X98917292Y-106867219D01*
X138869673Y-122486266D02*
X139631578Y-122486266D01*
X139250625Y-122867219D02*
X139250625Y-122105314D01*
X140012530Y-121867219D02*
X140631577Y-121867219D01*
X140631577Y-121867219D02*
X140298244Y-122248171D01*
X140298244Y-122248171D02*
X140441101Y-122248171D01*
X140441101Y-122248171D02*
X140536339Y-122295790D01*
X140536339Y-122295790D02*
X140583958Y-122343409D01*
X140583958Y-122343409D02*
X140631577Y-122438647D01*
X140631577Y-122438647D02*
X140631577Y-122676742D01*
X140631577Y-122676742D02*
X140583958Y-122771980D01*
X140583958Y-122771980D02*
X140536339Y-122819600D01*
X140536339Y-122819600D02*
X140441101Y-122867219D01*
X140441101Y-122867219D02*
X140155387Y-122867219D01*
X140155387Y-122867219D02*
X140060149Y-122819600D01*
X140060149Y-122819600D02*
X140012530Y-122771980D01*
X141060149Y-122771980D02*
X141107768Y-122819600D01*
X141107768Y-122819600D02*
X141060149Y-122867219D01*
X141060149Y-122867219D02*
X141012530Y-122819600D01*
X141012530Y-122819600D02*
X141060149Y-122771980D01*
X141060149Y-122771980D02*
X141060149Y-122867219D01*
X141441101Y-121867219D02*
X142060148Y-121867219D01*
X142060148Y-121867219D02*
X141726815Y-122248171D01*
X141726815Y-122248171D02*
X141869672Y-122248171D01*
X141869672Y-122248171D02*
X141964910Y-122295790D01*
X141964910Y-122295790D02*
X142012529Y-122343409D01*
X142012529Y-122343409D02*
X142060148Y-122438647D01*
X142060148Y-122438647D02*
X142060148Y-122676742D01*
X142060148Y-122676742D02*
X142012529Y-122771980D01*
X142012529Y-122771980D02*
X141964910Y-122819600D01*
X141964910Y-122819600D02*
X141869672Y-122867219D01*
X141869672Y-122867219D02*
X141583958Y-122867219D01*
X141583958Y-122867219D02*
X141488720Y-122819600D01*
X141488720Y-122819600D02*
X141441101Y-122771980D01*
X145393482Y-121914838D02*
X145298244Y-121867219D01*
X145298244Y-121867219D02*
X145155387Y-121867219D01*
X145155387Y-121867219D02*
X145012530Y-121914838D01*
X145012530Y-121914838D02*
X144917292Y-122010076D01*
X144917292Y-122010076D02*
X144869673Y-122105314D01*
X144869673Y-122105314D02*
X144822054Y-122295790D01*
X144822054Y-122295790D02*
X144822054Y-122438647D01*
X144822054Y-122438647D02*
X144869673Y-122629123D01*
X144869673Y-122629123D02*
X144917292Y-122724361D01*
X144917292Y-122724361D02*
X145012530Y-122819600D01*
X145012530Y-122819600D02*
X145155387Y-122867219D01*
X145155387Y-122867219D02*
X145250625Y-122867219D01*
X145250625Y-122867219D02*
X145393482Y-122819600D01*
X145393482Y-122819600D02*
X145441101Y-122771980D01*
X145441101Y-122771980D02*
X145441101Y-122438647D01*
X145441101Y-122438647D02*
X145250625Y-122438647D01*
X145869673Y-122867219D02*
X145869673Y-121867219D01*
X145869673Y-121867219D02*
X146441101Y-122867219D01*
X146441101Y-122867219D02*
X146441101Y-121867219D01*
X146917292Y-122867219D02*
X146917292Y-121867219D01*
X146917292Y-121867219D02*
X147155387Y-121867219D01*
X147155387Y-121867219D02*
X147298244Y-121914838D01*
X147298244Y-121914838D02*
X147393482Y-122010076D01*
X147393482Y-122010076D02*
X147441101Y-122105314D01*
X147441101Y-122105314D02*
X147488720Y-122295790D01*
X147488720Y-122295790D02*
X147488720Y-122438647D01*
X147488720Y-122438647D02*
X147441101Y-122629123D01*
X147441101Y-122629123D02*
X147393482Y-122724361D01*
X147393482Y-122724361D02*
X147298244Y-122819600D01*
X147298244Y-122819600D02*
X147155387Y-122867219D01*
X147155387Y-122867219D02*
X146917292Y-122867219D01*
X90322054Y-88319600D02*
X90464911Y-88367219D01*
X90464911Y-88367219D02*
X90703006Y-88367219D01*
X90703006Y-88367219D02*
X90798244Y-88319600D01*
X90798244Y-88319600D02*
X90845863Y-88271980D01*
X90845863Y-88271980D02*
X90893482Y-88176742D01*
X90893482Y-88176742D02*
X90893482Y-88081504D01*
X90893482Y-88081504D02*
X90845863Y-87986266D01*
X90845863Y-87986266D02*
X90798244Y-87938647D01*
X90798244Y-87938647D02*
X90703006Y-87891028D01*
X90703006Y-87891028D02*
X90512530Y-87843409D01*
X90512530Y-87843409D02*
X90417292Y-87795790D01*
X90417292Y-87795790D02*
X90369673Y-87748171D01*
X90369673Y-87748171D02*
X90322054Y-87652933D01*
X90322054Y-87652933D02*
X90322054Y-87557695D01*
X90322054Y-87557695D02*
X90369673Y-87462457D01*
X90369673Y-87462457D02*
X90417292Y-87414838D01*
X90417292Y-87414838D02*
X90512530Y-87367219D01*
X90512530Y-87367219D02*
X90750625Y-87367219D01*
X90750625Y-87367219D02*
X90893482Y-87414838D01*
X91893482Y-88271980D02*
X91845863Y-88319600D01*
X91845863Y-88319600D02*
X91703006Y-88367219D01*
X91703006Y-88367219D02*
X91607768Y-88367219D01*
X91607768Y-88367219D02*
X91464911Y-88319600D01*
X91464911Y-88319600D02*
X91369673Y-88224361D01*
X91369673Y-88224361D02*
X91322054Y-88129123D01*
X91322054Y-88129123D02*
X91274435Y-87938647D01*
X91274435Y-87938647D02*
X91274435Y-87795790D01*
X91274435Y-87795790D02*
X91322054Y-87605314D01*
X91322054Y-87605314D02*
X91369673Y-87510076D01*
X91369673Y-87510076D02*
X91464911Y-87414838D01*
X91464911Y-87414838D02*
X91607768Y-87367219D01*
X91607768Y-87367219D02*
X91703006Y-87367219D01*
X91703006Y-87367219D02*
X91845863Y-87414838D01*
X91845863Y-87414838D02*
X91893482Y-87462457D01*
X92798244Y-88367219D02*
X92322054Y-88367219D01*
X92322054Y-88367219D02*
X92322054Y-87367219D01*
X108393482Y-46414838D02*
X108298244Y-46367219D01*
X108298244Y-46367219D02*
X108155387Y-46367219D01*
X108155387Y-46367219D02*
X108012530Y-46414838D01*
X108012530Y-46414838D02*
X107917292Y-46510076D01*
X107917292Y-46510076D02*
X107869673Y-46605314D01*
X107869673Y-46605314D02*
X107822054Y-46795790D01*
X107822054Y-46795790D02*
X107822054Y-46938647D01*
X107822054Y-46938647D02*
X107869673Y-47129123D01*
X107869673Y-47129123D02*
X107917292Y-47224361D01*
X107917292Y-47224361D02*
X108012530Y-47319600D01*
X108012530Y-47319600D02*
X108155387Y-47367219D01*
X108155387Y-47367219D02*
X108250625Y-47367219D01*
X108250625Y-47367219D02*
X108393482Y-47319600D01*
X108393482Y-47319600D02*
X108441101Y-47271980D01*
X108441101Y-47271980D02*
X108441101Y-46938647D01*
X108441101Y-46938647D02*
X108250625Y-46938647D01*
X108869673Y-47367219D02*
X108869673Y-46367219D01*
X108869673Y-46367219D02*
X109441101Y-47367219D01*
X109441101Y-47367219D02*
X109441101Y-46367219D01*
X109917292Y-47367219D02*
X109917292Y-46367219D01*
X109917292Y-46367219D02*
X110155387Y-46367219D01*
X110155387Y-46367219D02*
X110298244Y-46414838D01*
X110298244Y-46414838D02*
X110393482Y-46510076D01*
X110393482Y-46510076D02*
X110441101Y-46605314D01*
X110441101Y-46605314D02*
X110488720Y-46795790D01*
X110488720Y-46795790D02*
X110488720Y-46938647D01*
X110488720Y-46938647D02*
X110441101Y-47129123D01*
X110441101Y-47129123D02*
X110393482Y-47224361D01*
X110393482Y-47224361D02*
X110298244Y-47319600D01*
X110298244Y-47319600D02*
X110155387Y-47367219D01*
X110155387Y-47367219D02*
X109917292Y-47367219D01*
D10*
X175140663Y-44480333D02*
X176664473Y-44480333D01*
X175902568Y-45242238D02*
X175902568Y-43718428D01*
D11*
X119441101Y-47367219D02*
X119107768Y-46891028D01*
X118869673Y-47367219D02*
X118869673Y-46367219D01*
X118869673Y-46367219D02*
X119250625Y-46367219D01*
X119250625Y-46367219D02*
X119345863Y-46414838D01*
X119345863Y-46414838D02*
X119393482Y-46462457D01*
X119393482Y-46462457D02*
X119441101Y-46557695D01*
X119441101Y-46557695D02*
X119441101Y-46700552D01*
X119441101Y-46700552D02*
X119393482Y-46795790D01*
X119393482Y-46795790D02*
X119345863Y-46843409D01*
X119345863Y-46843409D02*
X119250625Y-46891028D01*
X119250625Y-46891028D02*
X118869673Y-46891028D01*
X119774435Y-46367219D02*
X120441101Y-47367219D01*
X120441101Y-46367219D02*
X119774435Y-47367219D01*
X89869673Y-92986266D02*
X90631578Y-92986266D01*
X90250625Y-93367219D02*
X90250625Y-92605314D01*
X91012530Y-92367219D02*
X91631577Y-92367219D01*
X91631577Y-92367219D02*
X91298244Y-92748171D01*
X91298244Y-92748171D02*
X91441101Y-92748171D01*
X91441101Y-92748171D02*
X91536339Y-92795790D01*
X91536339Y-92795790D02*
X91583958Y-92843409D01*
X91583958Y-92843409D02*
X91631577Y-92938647D01*
X91631577Y-92938647D02*
X91631577Y-93176742D01*
X91631577Y-93176742D02*
X91583958Y-93271980D01*
X91583958Y-93271980D02*
X91536339Y-93319600D01*
X91536339Y-93319600D02*
X91441101Y-93367219D01*
X91441101Y-93367219D02*
X91155387Y-93367219D01*
X91155387Y-93367219D02*
X91060149Y-93319600D01*
X91060149Y-93319600D02*
X91012530Y-93271980D01*
X92060149Y-93271980D02*
X92107768Y-93319600D01*
X92107768Y-93319600D02*
X92060149Y-93367219D01*
X92060149Y-93367219D02*
X92012530Y-93319600D01*
X92012530Y-93319600D02*
X92060149Y-93271980D01*
X92060149Y-93271980D02*
X92060149Y-93367219D01*
X92441101Y-92367219D02*
X93060148Y-92367219D01*
X93060148Y-92367219D02*
X92726815Y-92748171D01*
X92726815Y-92748171D02*
X92869672Y-92748171D01*
X92869672Y-92748171D02*
X92964910Y-92795790D01*
X92964910Y-92795790D02*
X93012529Y-92843409D01*
X93012529Y-92843409D02*
X93060148Y-92938647D01*
X93060148Y-92938647D02*
X93060148Y-93176742D01*
X93060148Y-93176742D02*
X93012529Y-93271980D01*
X93012529Y-93271980D02*
X92964910Y-93319600D01*
X92964910Y-93319600D02*
X92869672Y-93367219D01*
X92869672Y-93367219D02*
X92583958Y-93367219D01*
X92583958Y-93367219D02*
X92488720Y-93319600D01*
X92488720Y-93319600D02*
X92441101Y-93271980D01*
X151393482Y-122867219D02*
X150822054Y-122867219D01*
X151107768Y-122867219D02*
X151107768Y-121867219D01*
X151107768Y-121867219D02*
X151012530Y-122010076D01*
X151012530Y-122010076D02*
X150917292Y-122105314D01*
X150917292Y-122105314D02*
X150822054Y-122152933D01*
X152250625Y-122200552D02*
X152250625Y-122867219D01*
X152012530Y-121819600D02*
X151774435Y-122533885D01*
X151774435Y-122533885D02*
X152393482Y-122533885D01*
X118417292Y-106867219D02*
X118607768Y-106867219D01*
X118607768Y-106867219D02*
X118703006Y-106819600D01*
X118703006Y-106819600D02*
X118750625Y-106771980D01*
X118750625Y-106771980D02*
X118845863Y-106629123D01*
X118845863Y-106629123D02*
X118893482Y-106438647D01*
X118893482Y-106438647D02*
X118893482Y-106057695D01*
X118893482Y-106057695D02*
X118845863Y-105962457D01*
X118845863Y-105962457D02*
X118798244Y-105914838D01*
X118798244Y-105914838D02*
X118703006Y-105867219D01*
X118703006Y-105867219D02*
X118512530Y-105867219D01*
X118512530Y-105867219D02*
X118417292Y-105914838D01*
X118417292Y-105914838D02*
X118369673Y-105962457D01*
X118369673Y-105962457D02*
X118322054Y-106057695D01*
X118322054Y-106057695D02*
X118322054Y-106295790D01*
X118322054Y-106295790D02*
X118369673Y-106391028D01*
X118369673Y-106391028D02*
X118417292Y-106438647D01*
X118417292Y-106438647D02*
X118512530Y-106486266D01*
X118512530Y-106486266D02*
X118703006Y-106486266D01*
X118703006Y-106486266D02*
X118798244Y-106438647D01*
X118798244Y-106438647D02*
X118845863Y-106391028D01*
X118845863Y-106391028D02*
X118893482Y-106295790D01*
X156893482Y-105914838D02*
X156798244Y-105867219D01*
X156798244Y-105867219D02*
X156655387Y-105867219D01*
X156655387Y-105867219D02*
X156512530Y-105914838D01*
X156512530Y-105914838D02*
X156417292Y-106010076D01*
X156417292Y-106010076D02*
X156369673Y-106105314D01*
X156369673Y-106105314D02*
X156322054Y-106295790D01*
X156322054Y-106295790D02*
X156322054Y-106438647D01*
X156322054Y-106438647D02*
X156369673Y-106629123D01*
X156369673Y-106629123D02*
X156417292Y-106724361D01*
X156417292Y-106724361D02*
X156512530Y-106819600D01*
X156512530Y-106819600D02*
X156655387Y-106867219D01*
X156655387Y-106867219D02*
X156750625Y-106867219D01*
X156750625Y-106867219D02*
X156893482Y-106819600D01*
X156893482Y-106819600D02*
X156941101Y-106771980D01*
X156941101Y-106771980D02*
X156941101Y-106438647D01*
X156941101Y-106438647D02*
X156750625Y-106438647D01*
X157369673Y-106867219D02*
X157369673Y-105867219D01*
X157369673Y-105867219D02*
X157941101Y-106867219D01*
X157941101Y-106867219D02*
X157941101Y-105867219D01*
X158417292Y-106867219D02*
X158417292Y-105867219D01*
X158417292Y-105867219D02*
X158655387Y-105867219D01*
X158655387Y-105867219D02*
X158798244Y-105914838D01*
X158798244Y-105914838D02*
X158893482Y-106010076D01*
X158893482Y-106010076D02*
X158941101Y-106105314D01*
X158941101Y-106105314D02*
X158988720Y-106295790D01*
X158988720Y-106295790D02*
X158988720Y-106438647D01*
X158988720Y-106438647D02*
X158941101Y-106629123D01*
X158941101Y-106629123D02*
X158893482Y-106724361D01*
X158893482Y-106724361D02*
X158798244Y-106819600D01*
X158798244Y-106819600D02*
X158655387Y-106867219D01*
X158655387Y-106867219D02*
X158417292Y-106867219D01*
X154869673Y-66986266D02*
X155631578Y-66986266D01*
X155250625Y-67367219D02*
X155250625Y-66605314D01*
X156583958Y-66367219D02*
X156107768Y-66367219D01*
X156107768Y-66367219D02*
X156060149Y-66843409D01*
X156060149Y-66843409D02*
X156107768Y-66795790D01*
X156107768Y-66795790D02*
X156203006Y-66748171D01*
X156203006Y-66748171D02*
X156441101Y-66748171D01*
X156441101Y-66748171D02*
X156536339Y-66795790D01*
X156536339Y-66795790D02*
X156583958Y-66843409D01*
X156583958Y-66843409D02*
X156631577Y-66938647D01*
X156631577Y-66938647D02*
X156631577Y-67176742D01*
X156631577Y-67176742D02*
X156583958Y-67271980D01*
X156583958Y-67271980D02*
X156536339Y-67319600D01*
X156536339Y-67319600D02*
X156441101Y-67367219D01*
X156441101Y-67367219D02*
X156203006Y-67367219D01*
X156203006Y-67367219D02*
X156107768Y-67319600D01*
X156107768Y-67319600D02*
X156060149Y-67271980D01*
X157893482Y-47914838D02*
X157798244Y-47867219D01*
X157798244Y-47867219D02*
X157655387Y-47867219D01*
X157655387Y-47867219D02*
X157512530Y-47914838D01*
X157512530Y-47914838D02*
X157417292Y-48010076D01*
X157417292Y-48010076D02*
X157369673Y-48105314D01*
X157369673Y-48105314D02*
X157322054Y-48295790D01*
X157322054Y-48295790D02*
X157322054Y-48438647D01*
X157322054Y-48438647D02*
X157369673Y-48629123D01*
X157369673Y-48629123D02*
X157417292Y-48724361D01*
X157417292Y-48724361D02*
X157512530Y-48819600D01*
X157512530Y-48819600D02*
X157655387Y-48867219D01*
X157655387Y-48867219D02*
X157750625Y-48867219D01*
X157750625Y-48867219D02*
X157893482Y-48819600D01*
X157893482Y-48819600D02*
X157941101Y-48771980D01*
X157941101Y-48771980D02*
X157941101Y-48438647D01*
X157941101Y-48438647D02*
X157750625Y-48438647D01*
X158369673Y-48867219D02*
X158369673Y-47867219D01*
X158369673Y-47867219D02*
X158941101Y-48867219D01*
X158941101Y-48867219D02*
X158941101Y-47867219D01*
X159417292Y-48867219D02*
X159417292Y-47867219D01*
X159417292Y-47867219D02*
X159655387Y-47867219D01*
X159655387Y-47867219D02*
X159798244Y-47914838D01*
X159798244Y-47914838D02*
X159893482Y-48010076D01*
X159893482Y-48010076D02*
X159941101Y-48105314D01*
X159941101Y-48105314D02*
X159988720Y-48295790D01*
X159988720Y-48295790D02*
X159988720Y-48438647D01*
X159988720Y-48438647D02*
X159941101Y-48629123D01*
X159941101Y-48629123D02*
X159893482Y-48724361D01*
X159893482Y-48724361D02*
X159798244Y-48819600D01*
X159798244Y-48819600D02*
X159655387Y-48867219D01*
X159655387Y-48867219D02*
X159417292Y-48867219D01*
X129893482Y-122367219D02*
X129322054Y-122367219D01*
X129607768Y-122367219D02*
X129607768Y-121367219D01*
X129607768Y-121367219D02*
X129512530Y-121510076D01*
X129512530Y-121510076D02*
X129417292Y-121605314D01*
X129417292Y-121605314D02*
X129322054Y-121652933D01*
X130226816Y-121367219D02*
X130845863Y-121367219D01*
X130845863Y-121367219D02*
X130512530Y-121748171D01*
X130512530Y-121748171D02*
X130655387Y-121748171D01*
X130655387Y-121748171D02*
X130750625Y-121795790D01*
X130750625Y-121795790D02*
X130798244Y-121843409D01*
X130798244Y-121843409D02*
X130845863Y-121938647D01*
X130845863Y-121938647D02*
X130845863Y-122176742D01*
X130845863Y-122176742D02*
X130798244Y-122271980D01*
X130798244Y-122271980D02*
X130750625Y-122319600D01*
X130750625Y-122319600D02*
X130655387Y-122367219D01*
X130655387Y-122367219D02*
X130369673Y-122367219D01*
X130369673Y-122367219D02*
X130274435Y-122319600D01*
X130274435Y-122319600D02*
X130226816Y-122271980D01*
X166393482Y-122867219D02*
X165822054Y-122867219D01*
X166107768Y-122867219D02*
X166107768Y-121867219D01*
X166107768Y-121867219D02*
X166012530Y-122010076D01*
X166012530Y-122010076D02*
X165917292Y-122105314D01*
X165917292Y-122105314D02*
X165822054Y-122152933D01*
X166726816Y-121867219D02*
X167393482Y-121867219D01*
X167393482Y-121867219D02*
X166964911Y-122867219D01*
X169869673Y-94367219D02*
X169869673Y-93367219D01*
X169869673Y-93367219D02*
X170107768Y-93367219D01*
X170107768Y-93367219D02*
X170250625Y-93414838D01*
X170250625Y-93414838D02*
X170345863Y-93510076D01*
X170345863Y-93510076D02*
X170393482Y-93605314D01*
X170393482Y-93605314D02*
X170441101Y-93795790D01*
X170441101Y-93795790D02*
X170441101Y-93938647D01*
X170441101Y-93938647D02*
X170393482Y-94129123D01*
X170393482Y-94129123D02*
X170345863Y-94224361D01*
X170345863Y-94224361D02*
X170250625Y-94319600D01*
X170250625Y-94319600D02*
X170107768Y-94367219D01*
X170107768Y-94367219D02*
X169869673Y-94367219D01*
X171298244Y-94367219D02*
X171298244Y-93843409D01*
X171298244Y-93843409D02*
X171250625Y-93748171D01*
X171250625Y-93748171D02*
X171155387Y-93700552D01*
X171155387Y-93700552D02*
X170964911Y-93700552D01*
X170964911Y-93700552D02*
X170869673Y-93748171D01*
X171298244Y-94319600D02*
X171203006Y-94367219D01*
X171203006Y-94367219D02*
X170964911Y-94367219D01*
X170964911Y-94367219D02*
X170869673Y-94319600D01*
X170869673Y-94319600D02*
X170822054Y-94224361D01*
X170822054Y-94224361D02*
X170822054Y-94129123D01*
X170822054Y-94129123D02*
X170869673Y-94033885D01*
X170869673Y-94033885D02*
X170964911Y-93986266D01*
X170964911Y-93986266D02*
X171203006Y-93986266D01*
X171203006Y-93986266D02*
X171298244Y-93938647D01*
X171631578Y-93700552D02*
X172012530Y-93700552D01*
X171774435Y-93367219D02*
X171774435Y-94224361D01*
X171774435Y-94224361D02*
X171822054Y-94319600D01*
X171822054Y-94319600D02*
X171917292Y-94367219D01*
X171917292Y-94367219D02*
X172012530Y-94367219D01*
X172774435Y-94367219D02*
X172774435Y-93843409D01*
X172774435Y-93843409D02*
X172726816Y-93748171D01*
X172726816Y-93748171D02*
X172631578Y-93700552D01*
X172631578Y-93700552D02*
X172441102Y-93700552D01*
X172441102Y-93700552D02*
X172345864Y-93748171D01*
X172774435Y-94319600D02*
X172679197Y-94367219D01*
X172679197Y-94367219D02*
X172441102Y-94367219D01*
X172441102Y-94367219D02*
X172345864Y-94319600D01*
X172345864Y-94319600D02*
X172298245Y-94224361D01*
X172298245Y-94224361D02*
X172298245Y-94129123D01*
X172298245Y-94129123D02*
X172345864Y-94033885D01*
X172345864Y-94033885D02*
X172441102Y-93986266D01*
X172441102Y-93986266D02*
X172679197Y-93986266D01*
X172679197Y-93986266D02*
X172774435Y-93938647D01*
X161393482Y-122867219D02*
X160822054Y-122867219D01*
X161107768Y-122867219D02*
X161107768Y-121867219D01*
X161107768Y-121867219D02*
X161012530Y-122010076D01*
X161012530Y-122010076D02*
X160917292Y-122105314D01*
X160917292Y-122105314D02*
X160822054Y-122152933D01*
X162250625Y-121867219D02*
X162060149Y-121867219D01*
X162060149Y-121867219D02*
X161964911Y-121914838D01*
X161964911Y-121914838D02*
X161917292Y-121962457D01*
X161917292Y-121962457D02*
X161822054Y-122105314D01*
X161822054Y-122105314D02*
X161774435Y-122295790D01*
X161774435Y-122295790D02*
X161774435Y-122676742D01*
X161774435Y-122676742D02*
X161822054Y-122771980D01*
X161822054Y-122771980D02*
X161869673Y-122819600D01*
X161869673Y-122819600D02*
X161964911Y-122867219D01*
X161964911Y-122867219D02*
X162155387Y-122867219D01*
X162155387Y-122867219D02*
X162250625Y-122819600D01*
X162250625Y-122819600D02*
X162298244Y-122771980D01*
X162298244Y-122771980D02*
X162345863Y-122676742D01*
X162345863Y-122676742D02*
X162345863Y-122438647D01*
X162345863Y-122438647D02*
X162298244Y-122343409D01*
X162298244Y-122343409D02*
X162250625Y-122295790D01*
X162250625Y-122295790D02*
X162155387Y-122248171D01*
X162155387Y-122248171D02*
X161964911Y-122248171D01*
X161964911Y-122248171D02*
X161869673Y-122295790D01*
X161869673Y-122295790D02*
X161822054Y-122343409D01*
X161822054Y-122343409D02*
X161774435Y-122438647D01*
X160893482Y-66414838D02*
X160798244Y-66367219D01*
X160798244Y-66367219D02*
X160655387Y-66367219D01*
X160655387Y-66367219D02*
X160512530Y-66414838D01*
X160512530Y-66414838D02*
X160417292Y-66510076D01*
X160417292Y-66510076D02*
X160369673Y-66605314D01*
X160369673Y-66605314D02*
X160322054Y-66795790D01*
X160322054Y-66795790D02*
X160322054Y-66938647D01*
X160322054Y-66938647D02*
X160369673Y-67129123D01*
X160369673Y-67129123D02*
X160417292Y-67224361D01*
X160417292Y-67224361D02*
X160512530Y-67319600D01*
X160512530Y-67319600D02*
X160655387Y-67367219D01*
X160655387Y-67367219D02*
X160750625Y-67367219D01*
X160750625Y-67367219D02*
X160893482Y-67319600D01*
X160893482Y-67319600D02*
X160941101Y-67271980D01*
X160941101Y-67271980D02*
X160941101Y-66938647D01*
X160941101Y-66938647D02*
X160750625Y-66938647D01*
X161369673Y-67367219D02*
X161369673Y-66367219D01*
X161369673Y-66367219D02*
X161941101Y-67367219D01*
X161941101Y-67367219D02*
X161941101Y-66367219D01*
X162417292Y-67367219D02*
X162417292Y-66367219D01*
X162417292Y-66367219D02*
X162655387Y-66367219D01*
X162655387Y-66367219D02*
X162798244Y-66414838D01*
X162798244Y-66414838D02*
X162893482Y-66510076D01*
X162893482Y-66510076D02*
X162941101Y-66605314D01*
X162941101Y-66605314D02*
X162988720Y-66795790D01*
X162988720Y-66795790D02*
X162988720Y-66938647D01*
X162988720Y-66938647D02*
X162941101Y-67129123D01*
X162941101Y-67129123D02*
X162893482Y-67224361D01*
X162893482Y-67224361D02*
X162798244Y-67319600D01*
X162798244Y-67319600D02*
X162655387Y-67367219D01*
X162655387Y-67367219D02*
X162417292Y-67367219D01*
X170789673Y-79486266D02*
X171551578Y-79486266D01*
X171170625Y-79867219D02*
X171170625Y-79105314D01*
X171932530Y-78867219D02*
X172551577Y-78867219D01*
X172551577Y-78867219D02*
X172218244Y-79248171D01*
X172218244Y-79248171D02*
X172361101Y-79248171D01*
X172361101Y-79248171D02*
X172456339Y-79295790D01*
X172456339Y-79295790D02*
X172503958Y-79343409D01*
X172503958Y-79343409D02*
X172551577Y-79438647D01*
X172551577Y-79438647D02*
X172551577Y-79676742D01*
X172551577Y-79676742D02*
X172503958Y-79771980D01*
X172503958Y-79771980D02*
X172456339Y-79819600D01*
X172456339Y-79819600D02*
X172361101Y-79867219D01*
X172361101Y-79867219D02*
X172075387Y-79867219D01*
X172075387Y-79867219D02*
X171980149Y-79819600D01*
X171980149Y-79819600D02*
X171932530Y-79771980D01*
X172980149Y-79771980D02*
X173027768Y-79819600D01*
X173027768Y-79819600D02*
X172980149Y-79867219D01*
X172980149Y-79867219D02*
X172932530Y-79819600D01*
X172932530Y-79819600D02*
X172980149Y-79771980D01*
X172980149Y-79771980D02*
X172980149Y-79867219D01*
X173361101Y-78867219D02*
X173980148Y-78867219D01*
X173980148Y-78867219D02*
X173646815Y-79248171D01*
X173646815Y-79248171D02*
X173789672Y-79248171D01*
X173789672Y-79248171D02*
X173884910Y-79295790D01*
X173884910Y-79295790D02*
X173932529Y-79343409D01*
X173932529Y-79343409D02*
X173980148Y-79438647D01*
X173980148Y-79438647D02*
X173980148Y-79676742D01*
X173980148Y-79676742D02*
X173932529Y-79771980D01*
X173932529Y-79771980D02*
X173884910Y-79819600D01*
X173884910Y-79819600D02*
X173789672Y-79867219D01*
X173789672Y-79867219D02*
X173503958Y-79867219D01*
X173503958Y-79867219D02*
X173408720Y-79819600D01*
X173408720Y-79819600D02*
X173361101Y-79771980D01*
X172822054Y-105962457D02*
X172869673Y-105914838D01*
X172869673Y-105914838D02*
X172964911Y-105867219D01*
X172964911Y-105867219D02*
X173203006Y-105867219D01*
X173203006Y-105867219D02*
X173298244Y-105914838D01*
X173298244Y-105914838D02*
X173345863Y-105962457D01*
X173345863Y-105962457D02*
X173393482Y-106057695D01*
X173393482Y-106057695D02*
X173393482Y-106152933D01*
X173393482Y-106152933D02*
X173345863Y-106295790D01*
X173345863Y-106295790D02*
X172774435Y-106867219D01*
X172774435Y-106867219D02*
X173393482Y-106867219D01*
X174012530Y-105867219D02*
X174107768Y-105867219D01*
X174107768Y-105867219D02*
X174203006Y-105914838D01*
X174203006Y-105914838D02*
X174250625Y-105962457D01*
X174250625Y-105962457D02*
X174298244Y-106057695D01*
X174298244Y-106057695D02*
X174345863Y-106248171D01*
X174345863Y-106248171D02*
X174345863Y-106486266D01*
X174345863Y-106486266D02*
X174298244Y-106676742D01*
X174298244Y-106676742D02*
X174250625Y-106771980D01*
X174250625Y-106771980D02*
X174203006Y-106819600D01*
X174203006Y-106819600D02*
X174107768Y-106867219D01*
X174107768Y-106867219D02*
X174012530Y-106867219D01*
X174012530Y-106867219D02*
X173917292Y-106819600D01*
X173917292Y-106819600D02*
X173869673Y-106771980D01*
X173869673Y-106771980D02*
X173822054Y-106676742D01*
X173822054Y-106676742D02*
X173774435Y-106486266D01*
X173774435Y-106486266D02*
X173774435Y-106248171D01*
X173774435Y-106248171D02*
X173822054Y-106057695D01*
X173822054Y-106057695D02*
X173869673Y-105962457D01*
X173869673Y-105962457D02*
X173917292Y-105914838D01*
X173917292Y-105914838D02*
X174012530Y-105867219D01*
X108274435Y-105867219D02*
X108941101Y-105867219D01*
X108941101Y-105867219D02*
X108512530Y-106867219D01*
X177393482Y-67414838D02*
X177298244Y-67367219D01*
X177298244Y-67367219D02*
X177155387Y-67367219D01*
X177155387Y-67367219D02*
X177012530Y-67414838D01*
X177012530Y-67414838D02*
X176917292Y-67510076D01*
X176917292Y-67510076D02*
X176869673Y-67605314D01*
X176869673Y-67605314D02*
X176822054Y-67795790D01*
X176822054Y-67795790D02*
X176822054Y-67938647D01*
X176822054Y-67938647D02*
X176869673Y-68129123D01*
X176869673Y-68129123D02*
X176917292Y-68224361D01*
X176917292Y-68224361D02*
X177012530Y-68319600D01*
X177012530Y-68319600D02*
X177155387Y-68367219D01*
X177155387Y-68367219D02*
X177250625Y-68367219D01*
X177250625Y-68367219D02*
X177393482Y-68319600D01*
X177393482Y-68319600D02*
X177441101Y-68271980D01*
X177441101Y-68271980D02*
X177441101Y-67938647D01*
X177441101Y-67938647D02*
X177250625Y-67938647D01*
X177869673Y-68367219D02*
X177869673Y-67367219D01*
X177869673Y-67367219D02*
X178441101Y-68367219D01*
X178441101Y-68367219D02*
X178441101Y-67367219D01*
X178917292Y-68367219D02*
X178917292Y-67367219D01*
X178917292Y-67367219D02*
X179155387Y-67367219D01*
X179155387Y-67367219D02*
X179298244Y-67414838D01*
X179298244Y-67414838D02*
X179393482Y-67510076D01*
X179393482Y-67510076D02*
X179441101Y-67605314D01*
X179441101Y-67605314D02*
X179488720Y-67795790D01*
X179488720Y-67795790D02*
X179488720Y-67938647D01*
X179488720Y-67938647D02*
X179441101Y-68129123D01*
X179441101Y-68129123D02*
X179393482Y-68224361D01*
X179393482Y-68224361D02*
X179298244Y-68319600D01*
X179298244Y-68319600D02*
X179155387Y-68367219D01*
X179155387Y-68367219D02*
X178917292Y-68367219D01*
X108893482Y-121414838D02*
X108798244Y-121367219D01*
X108798244Y-121367219D02*
X108655387Y-121367219D01*
X108655387Y-121367219D02*
X108512530Y-121414838D01*
X108512530Y-121414838D02*
X108417292Y-121510076D01*
X108417292Y-121510076D02*
X108369673Y-121605314D01*
X108369673Y-121605314D02*
X108322054Y-121795790D01*
X108322054Y-121795790D02*
X108322054Y-121938647D01*
X108322054Y-121938647D02*
X108369673Y-122129123D01*
X108369673Y-122129123D02*
X108417292Y-122224361D01*
X108417292Y-122224361D02*
X108512530Y-122319600D01*
X108512530Y-122319600D02*
X108655387Y-122367219D01*
X108655387Y-122367219D02*
X108750625Y-122367219D01*
X108750625Y-122367219D02*
X108893482Y-122319600D01*
X108893482Y-122319600D02*
X108941101Y-122271980D01*
X108941101Y-122271980D02*
X108941101Y-121938647D01*
X108941101Y-121938647D02*
X108750625Y-121938647D01*
X109369673Y-122367219D02*
X109369673Y-121367219D01*
X109369673Y-121367219D02*
X109941101Y-122367219D01*
X109941101Y-122367219D02*
X109941101Y-121367219D01*
X110417292Y-122367219D02*
X110417292Y-121367219D01*
X110417292Y-121367219D02*
X110655387Y-121367219D01*
X110655387Y-121367219D02*
X110798244Y-121414838D01*
X110798244Y-121414838D02*
X110893482Y-121510076D01*
X110893482Y-121510076D02*
X110941101Y-121605314D01*
X110941101Y-121605314D02*
X110988720Y-121795790D01*
X110988720Y-121795790D02*
X110988720Y-121938647D01*
X110988720Y-121938647D02*
X110941101Y-122129123D01*
X110941101Y-122129123D02*
X110893482Y-122224361D01*
X110893482Y-122224361D02*
X110798244Y-122319600D01*
X110798244Y-122319600D02*
X110655387Y-122367219D01*
X110655387Y-122367219D02*
X110417292Y-122367219D01*
X90893482Y-74914838D02*
X90798244Y-74867219D01*
X90798244Y-74867219D02*
X90655387Y-74867219D01*
X90655387Y-74867219D02*
X90512530Y-74914838D01*
X90512530Y-74914838D02*
X90417292Y-75010076D01*
X90417292Y-75010076D02*
X90369673Y-75105314D01*
X90369673Y-75105314D02*
X90322054Y-75295790D01*
X90322054Y-75295790D02*
X90322054Y-75438647D01*
X90322054Y-75438647D02*
X90369673Y-75629123D01*
X90369673Y-75629123D02*
X90417292Y-75724361D01*
X90417292Y-75724361D02*
X90512530Y-75819600D01*
X90512530Y-75819600D02*
X90655387Y-75867219D01*
X90655387Y-75867219D02*
X90750625Y-75867219D01*
X90750625Y-75867219D02*
X90893482Y-75819600D01*
X90893482Y-75819600D02*
X90941101Y-75771980D01*
X90941101Y-75771980D02*
X90941101Y-75438647D01*
X90941101Y-75438647D02*
X90750625Y-75438647D01*
X91369673Y-75867219D02*
X91369673Y-74867219D01*
X91369673Y-74867219D02*
X91941101Y-75867219D01*
X91941101Y-75867219D02*
X91941101Y-74867219D01*
X92417292Y-75867219D02*
X92417292Y-74867219D01*
X92417292Y-74867219D02*
X92655387Y-74867219D01*
X92655387Y-74867219D02*
X92798244Y-74914838D01*
X92798244Y-74914838D02*
X92893482Y-75010076D01*
X92893482Y-75010076D02*
X92941101Y-75105314D01*
X92941101Y-75105314D02*
X92988720Y-75295790D01*
X92988720Y-75295790D02*
X92988720Y-75438647D01*
X92988720Y-75438647D02*
X92941101Y-75629123D01*
X92941101Y-75629123D02*
X92893482Y-75724361D01*
X92893482Y-75724361D02*
X92798244Y-75819600D01*
X92798244Y-75819600D02*
X92655387Y-75867219D01*
X92655387Y-75867219D02*
X92417292Y-75867219D01*
X171369673Y-67986266D02*
X172131578Y-67986266D01*
X171750625Y-68367219D02*
X171750625Y-67605314D01*
X173083958Y-67367219D02*
X172607768Y-67367219D01*
X172607768Y-67367219D02*
X172560149Y-67843409D01*
X172560149Y-67843409D02*
X172607768Y-67795790D01*
X172607768Y-67795790D02*
X172703006Y-67748171D01*
X172703006Y-67748171D02*
X172941101Y-67748171D01*
X172941101Y-67748171D02*
X173036339Y-67795790D01*
X173036339Y-67795790D02*
X173083958Y-67843409D01*
X173083958Y-67843409D02*
X173131577Y-67938647D01*
X173131577Y-67938647D02*
X173131577Y-68176742D01*
X173131577Y-68176742D02*
X173083958Y-68271980D01*
X173083958Y-68271980D02*
X173036339Y-68319600D01*
X173036339Y-68319600D02*
X172941101Y-68367219D01*
X172941101Y-68367219D02*
X172703006Y-68367219D01*
X172703006Y-68367219D02*
X172607768Y-68319600D01*
X172607768Y-68319600D02*
X172560149Y-68271980D01*
X124893482Y-122367219D02*
X124322054Y-122367219D01*
X124607768Y-122367219D02*
X124607768Y-121367219D01*
X124607768Y-121367219D02*
X124512530Y-121510076D01*
X124512530Y-121510076D02*
X124417292Y-121605314D01*
X124417292Y-121605314D02*
X124322054Y-121652933D01*
X125274435Y-121462457D02*
X125322054Y-121414838D01*
X125322054Y-121414838D02*
X125417292Y-121367219D01*
X125417292Y-121367219D02*
X125655387Y-121367219D01*
X125655387Y-121367219D02*
X125750625Y-121414838D01*
X125750625Y-121414838D02*
X125798244Y-121462457D01*
X125798244Y-121462457D02*
X125845863Y-121557695D01*
X125845863Y-121557695D02*
X125845863Y-121652933D01*
X125845863Y-121652933D02*
X125798244Y-121795790D01*
X125798244Y-121795790D02*
X125226816Y-122367219D01*
X125226816Y-122367219D02*
X125845863Y-122367219D01*
X165393482Y-93414838D02*
X165298244Y-93367219D01*
X165298244Y-93367219D02*
X165155387Y-93367219D01*
X165155387Y-93367219D02*
X165012530Y-93414838D01*
X165012530Y-93414838D02*
X164917292Y-93510076D01*
X164917292Y-93510076D02*
X164869673Y-93605314D01*
X164869673Y-93605314D02*
X164822054Y-93795790D01*
X164822054Y-93795790D02*
X164822054Y-93938647D01*
X164822054Y-93938647D02*
X164869673Y-94129123D01*
X164869673Y-94129123D02*
X164917292Y-94224361D01*
X164917292Y-94224361D02*
X165012530Y-94319600D01*
X165012530Y-94319600D02*
X165155387Y-94367219D01*
X165155387Y-94367219D02*
X165250625Y-94367219D01*
X165250625Y-94367219D02*
X165393482Y-94319600D01*
X165393482Y-94319600D02*
X165441101Y-94271980D01*
X165441101Y-94271980D02*
X165441101Y-93938647D01*
X165441101Y-93938647D02*
X165250625Y-93938647D01*
X165869673Y-94367219D02*
X165869673Y-93367219D01*
X165869673Y-93367219D02*
X166441101Y-94367219D01*
X166441101Y-94367219D02*
X166441101Y-93367219D01*
X166917292Y-94367219D02*
X166917292Y-93367219D01*
X166917292Y-93367219D02*
X167155387Y-93367219D01*
X167155387Y-93367219D02*
X167298244Y-93414838D01*
X167298244Y-93414838D02*
X167393482Y-93510076D01*
X167393482Y-93510076D02*
X167441101Y-93605314D01*
X167441101Y-93605314D02*
X167488720Y-93795790D01*
X167488720Y-93795790D02*
X167488720Y-93938647D01*
X167488720Y-93938647D02*
X167441101Y-94129123D01*
X167441101Y-94129123D02*
X167393482Y-94224361D01*
X167393482Y-94224361D02*
X167298244Y-94319600D01*
X167298244Y-94319600D02*
X167155387Y-94367219D01*
X167155387Y-94367219D02*
X166917292Y-94367219D01*
X167893482Y-106867219D02*
X167322054Y-106867219D01*
X167607768Y-106867219D02*
X167607768Y-105867219D01*
X167607768Y-105867219D02*
X167512530Y-106010076D01*
X167512530Y-106010076D02*
X167417292Y-106105314D01*
X167417292Y-106105314D02*
X167322054Y-106152933D01*
X168369673Y-106867219D02*
X168560149Y-106867219D01*
X168560149Y-106867219D02*
X168655387Y-106819600D01*
X168655387Y-106819600D02*
X168703006Y-106771980D01*
X168703006Y-106771980D02*
X168798244Y-106629123D01*
X168798244Y-106629123D02*
X168845863Y-106438647D01*
X168845863Y-106438647D02*
X168845863Y-106057695D01*
X168845863Y-106057695D02*
X168798244Y-105962457D01*
X168798244Y-105962457D02*
X168750625Y-105914838D01*
X168750625Y-105914838D02*
X168655387Y-105867219D01*
X168655387Y-105867219D02*
X168464911Y-105867219D01*
X168464911Y-105867219D02*
X168369673Y-105914838D01*
X168369673Y-105914838D02*
X168322054Y-105962457D01*
X168322054Y-105962457D02*
X168274435Y-106057695D01*
X168274435Y-106057695D02*
X168274435Y-106295790D01*
X168274435Y-106295790D02*
X168322054Y-106391028D01*
X168322054Y-106391028D02*
X168369673Y-106438647D01*
X168369673Y-106438647D02*
X168464911Y-106486266D01*
X168464911Y-106486266D02*
X168655387Y-106486266D01*
X168655387Y-106486266D02*
X168750625Y-106438647D01*
X168750625Y-106438647D02*
X168798244Y-106391028D01*
X168798244Y-106391028D02*
X168845863Y-106295790D01*
X154869673Y-79486266D02*
X155631578Y-79486266D01*
X155250625Y-79867219D02*
X155250625Y-79105314D01*
X156012530Y-78867219D02*
X156631577Y-78867219D01*
X156631577Y-78867219D02*
X156298244Y-79248171D01*
X156298244Y-79248171D02*
X156441101Y-79248171D01*
X156441101Y-79248171D02*
X156536339Y-79295790D01*
X156536339Y-79295790D02*
X156583958Y-79343409D01*
X156583958Y-79343409D02*
X156631577Y-79438647D01*
X156631577Y-79438647D02*
X156631577Y-79676742D01*
X156631577Y-79676742D02*
X156583958Y-79771980D01*
X156583958Y-79771980D02*
X156536339Y-79819600D01*
X156536339Y-79819600D02*
X156441101Y-79867219D01*
X156441101Y-79867219D02*
X156155387Y-79867219D01*
X156155387Y-79867219D02*
X156060149Y-79819600D01*
X156060149Y-79819600D02*
X156012530Y-79771980D01*
X157060149Y-79771980D02*
X157107768Y-79819600D01*
X157107768Y-79819600D02*
X157060149Y-79867219D01*
X157060149Y-79867219D02*
X157012530Y-79819600D01*
X157012530Y-79819600D02*
X157060149Y-79771980D01*
X157060149Y-79771980D02*
X157060149Y-79867219D01*
X157441101Y-78867219D02*
X158060148Y-78867219D01*
X158060148Y-78867219D02*
X157726815Y-79248171D01*
X157726815Y-79248171D02*
X157869672Y-79248171D01*
X157869672Y-79248171D02*
X157964910Y-79295790D01*
X157964910Y-79295790D02*
X158012529Y-79343409D01*
X158012529Y-79343409D02*
X158060148Y-79438647D01*
X158060148Y-79438647D02*
X158060148Y-79676742D01*
X158060148Y-79676742D02*
X158012529Y-79771980D01*
X158012529Y-79771980D02*
X157964910Y-79819600D01*
X157964910Y-79819600D02*
X157869672Y-79867219D01*
X157869672Y-79867219D02*
X157583958Y-79867219D01*
X157583958Y-79867219D02*
X157488720Y-79819600D01*
X157488720Y-79819600D02*
X157441101Y-79771980D01*
X114893482Y-122367219D02*
X114322054Y-122367219D01*
X114607768Y-122367219D02*
X114607768Y-121367219D01*
X114607768Y-121367219D02*
X114512530Y-121510076D01*
X114512530Y-121510076D02*
X114417292Y-121605314D01*
X114417292Y-121605314D02*
X114322054Y-121652933D01*
X115512530Y-121367219D02*
X115607768Y-121367219D01*
X115607768Y-121367219D02*
X115703006Y-121414838D01*
X115703006Y-121414838D02*
X115750625Y-121462457D01*
X115750625Y-121462457D02*
X115798244Y-121557695D01*
X115798244Y-121557695D02*
X115845863Y-121748171D01*
X115845863Y-121748171D02*
X115845863Y-121986266D01*
X115845863Y-121986266D02*
X115798244Y-122176742D01*
X115798244Y-122176742D02*
X115750625Y-122271980D01*
X115750625Y-122271980D02*
X115703006Y-122319600D01*
X115703006Y-122319600D02*
X115607768Y-122367219D01*
X115607768Y-122367219D02*
X115512530Y-122367219D01*
X115512530Y-122367219D02*
X115417292Y-122319600D01*
X115417292Y-122319600D02*
X115369673Y-122271980D01*
X115369673Y-122271980D02*
X115322054Y-122176742D01*
X115322054Y-122176742D02*
X115274435Y-121986266D01*
X115274435Y-121986266D02*
X115274435Y-121748171D01*
X115274435Y-121748171D02*
X115322054Y-121557695D01*
X115322054Y-121557695D02*
X115369673Y-121462457D01*
X115369673Y-121462457D02*
X115417292Y-121414838D01*
X115417292Y-121414838D02*
X115512530Y-121367219D01*
X155893482Y-122867219D02*
X155322054Y-122867219D01*
X155607768Y-122867219D02*
X155607768Y-121867219D01*
X155607768Y-121867219D02*
X155512530Y-122010076D01*
X155512530Y-122010076D02*
X155417292Y-122105314D01*
X155417292Y-122105314D02*
X155322054Y-122152933D01*
X156798244Y-121867219D02*
X156322054Y-121867219D01*
X156322054Y-121867219D02*
X156274435Y-122343409D01*
X156274435Y-122343409D02*
X156322054Y-122295790D01*
X156322054Y-122295790D02*
X156417292Y-122248171D01*
X156417292Y-122248171D02*
X156655387Y-122248171D01*
X156655387Y-122248171D02*
X156750625Y-122295790D01*
X156750625Y-122295790D02*
X156798244Y-122343409D01*
X156798244Y-122343409D02*
X156845863Y-122438647D01*
X156845863Y-122438647D02*
X156845863Y-122676742D01*
X156845863Y-122676742D02*
X156798244Y-122771980D01*
X156798244Y-122771980D02*
X156750625Y-122819600D01*
X156750625Y-122819600D02*
X156655387Y-122867219D01*
X156655387Y-122867219D02*
X156417292Y-122867219D01*
X156417292Y-122867219D02*
X156322054Y-122819600D01*
X156322054Y-122819600D02*
X156274435Y-122771980D01*
X158669673Y-93986266D02*
X159431578Y-93986266D01*
X159050625Y-94367219D02*
X159050625Y-93605314D01*
X159812530Y-93367219D02*
X160431577Y-93367219D01*
X160431577Y-93367219D02*
X160098244Y-93748171D01*
X160098244Y-93748171D02*
X160241101Y-93748171D01*
X160241101Y-93748171D02*
X160336339Y-93795790D01*
X160336339Y-93795790D02*
X160383958Y-93843409D01*
X160383958Y-93843409D02*
X160431577Y-93938647D01*
X160431577Y-93938647D02*
X160431577Y-94176742D01*
X160431577Y-94176742D02*
X160383958Y-94271980D01*
X160383958Y-94271980D02*
X160336339Y-94319600D01*
X160336339Y-94319600D02*
X160241101Y-94367219D01*
X160241101Y-94367219D02*
X159955387Y-94367219D01*
X159955387Y-94367219D02*
X159860149Y-94319600D01*
X159860149Y-94319600D02*
X159812530Y-94271980D01*
X160860149Y-94271980D02*
X160907768Y-94319600D01*
X160907768Y-94319600D02*
X160860149Y-94367219D01*
X160860149Y-94367219D02*
X160812530Y-94319600D01*
X160812530Y-94319600D02*
X160860149Y-94271980D01*
X160860149Y-94271980D02*
X160860149Y-94367219D01*
X161241101Y-93367219D02*
X161860148Y-93367219D01*
X161860148Y-93367219D02*
X161526815Y-93748171D01*
X161526815Y-93748171D02*
X161669672Y-93748171D01*
X161669672Y-93748171D02*
X161764910Y-93795790D01*
X161764910Y-93795790D02*
X161812529Y-93843409D01*
X161812529Y-93843409D02*
X161860148Y-93938647D01*
X161860148Y-93938647D02*
X161860148Y-94176742D01*
X161860148Y-94176742D02*
X161812529Y-94271980D01*
X161812529Y-94271980D02*
X161764910Y-94319600D01*
X161764910Y-94319600D02*
X161669672Y-94367219D01*
X161669672Y-94367219D02*
X161383958Y-94367219D01*
X161383958Y-94367219D02*
X161288720Y-94319600D01*
X161288720Y-94319600D02*
X161241101Y-94271980D01*
X112369673Y-46986266D02*
X113131578Y-46986266D01*
X112750625Y-47367219D02*
X112750625Y-46605314D01*
X113512530Y-46367219D02*
X114131577Y-46367219D01*
X114131577Y-46367219D02*
X113798244Y-46748171D01*
X113798244Y-46748171D02*
X113941101Y-46748171D01*
X113941101Y-46748171D02*
X114036339Y-46795790D01*
X114036339Y-46795790D02*
X114083958Y-46843409D01*
X114083958Y-46843409D02*
X114131577Y-46938647D01*
X114131577Y-46938647D02*
X114131577Y-47176742D01*
X114131577Y-47176742D02*
X114083958Y-47271980D01*
X114083958Y-47271980D02*
X114036339Y-47319600D01*
X114036339Y-47319600D02*
X113941101Y-47367219D01*
X113941101Y-47367219D02*
X113655387Y-47367219D01*
X113655387Y-47367219D02*
X113560149Y-47319600D01*
X113560149Y-47319600D02*
X113512530Y-47271980D01*
X114560149Y-47271980D02*
X114607768Y-47319600D01*
X114607768Y-47319600D02*
X114560149Y-47367219D01*
X114560149Y-47367219D02*
X114512530Y-47319600D01*
X114512530Y-47319600D02*
X114560149Y-47271980D01*
X114560149Y-47271980D02*
X114560149Y-47367219D01*
X114941101Y-46367219D02*
X115560148Y-46367219D01*
X115560148Y-46367219D02*
X115226815Y-46748171D01*
X115226815Y-46748171D02*
X115369672Y-46748171D01*
X115369672Y-46748171D02*
X115464910Y-46795790D01*
X115464910Y-46795790D02*
X115512529Y-46843409D01*
X115512529Y-46843409D02*
X115560148Y-46938647D01*
X115560148Y-46938647D02*
X115560148Y-47176742D01*
X115560148Y-47176742D02*
X115512529Y-47271980D01*
X115512529Y-47271980D02*
X115464910Y-47319600D01*
X115464910Y-47319600D02*
X115369672Y-47367219D01*
X115369672Y-47367219D02*
X115083958Y-47367219D01*
X115083958Y-47367219D02*
X114988720Y-47319600D01*
X114988720Y-47319600D02*
X114941101Y-47271980D01*
X103298244Y-105867219D02*
X103107768Y-105867219D01*
X103107768Y-105867219D02*
X103012530Y-105914838D01*
X103012530Y-105914838D02*
X102964911Y-105962457D01*
X102964911Y-105962457D02*
X102869673Y-106105314D01*
X102869673Y-106105314D02*
X102822054Y-106295790D01*
X102822054Y-106295790D02*
X102822054Y-106676742D01*
X102822054Y-106676742D02*
X102869673Y-106771980D01*
X102869673Y-106771980D02*
X102917292Y-106819600D01*
X102917292Y-106819600D02*
X103012530Y-106867219D01*
X103012530Y-106867219D02*
X103203006Y-106867219D01*
X103203006Y-106867219D02*
X103298244Y-106819600D01*
X103298244Y-106819600D02*
X103345863Y-106771980D01*
X103345863Y-106771980D02*
X103393482Y-106676742D01*
X103393482Y-106676742D02*
X103393482Y-106438647D01*
X103393482Y-106438647D02*
X103345863Y-106343409D01*
X103345863Y-106343409D02*
X103298244Y-106295790D01*
X103298244Y-106295790D02*
X103203006Y-106248171D01*
X103203006Y-106248171D02*
X103012530Y-106248171D01*
X103012530Y-106248171D02*
X102917292Y-106295790D01*
X102917292Y-106295790D02*
X102869673Y-106343409D01*
X102869673Y-106343409D02*
X102822054Y-106438647D01*
X90322054Y-83319600D02*
X90464911Y-83367219D01*
X90464911Y-83367219D02*
X90703006Y-83367219D01*
X90703006Y-83367219D02*
X90798244Y-83319600D01*
X90798244Y-83319600D02*
X90845863Y-83271980D01*
X90845863Y-83271980D02*
X90893482Y-83176742D01*
X90893482Y-83176742D02*
X90893482Y-83081504D01*
X90893482Y-83081504D02*
X90845863Y-82986266D01*
X90845863Y-82986266D02*
X90798244Y-82938647D01*
X90798244Y-82938647D02*
X90703006Y-82891028D01*
X90703006Y-82891028D02*
X90512530Y-82843409D01*
X90512530Y-82843409D02*
X90417292Y-82795790D01*
X90417292Y-82795790D02*
X90369673Y-82748171D01*
X90369673Y-82748171D02*
X90322054Y-82652933D01*
X90322054Y-82652933D02*
X90322054Y-82557695D01*
X90322054Y-82557695D02*
X90369673Y-82462457D01*
X90369673Y-82462457D02*
X90417292Y-82414838D01*
X90417292Y-82414838D02*
X90512530Y-82367219D01*
X90512530Y-82367219D02*
X90750625Y-82367219D01*
X90750625Y-82367219D02*
X90893482Y-82414838D01*
X91322054Y-83367219D02*
X91322054Y-82367219D01*
X91322054Y-82367219D02*
X91560149Y-82367219D01*
X91560149Y-82367219D02*
X91703006Y-82414838D01*
X91703006Y-82414838D02*
X91798244Y-82510076D01*
X91798244Y-82510076D02*
X91845863Y-82605314D01*
X91845863Y-82605314D02*
X91893482Y-82795790D01*
X91893482Y-82795790D02*
X91893482Y-82938647D01*
X91893482Y-82938647D02*
X91845863Y-83129123D01*
X91845863Y-83129123D02*
X91798244Y-83224361D01*
X91798244Y-83224361D02*
X91703006Y-83319600D01*
X91703006Y-83319600D02*
X91560149Y-83367219D01*
X91560149Y-83367219D02*
X91322054Y-83367219D01*
X92274435Y-83081504D02*
X92750625Y-83081504D01*
X92179197Y-83367219D02*
X92512530Y-82367219D01*
X92512530Y-82367219D02*
X92845863Y-83367219D01*
X102369673Y-121986266D02*
X103131578Y-121986266D01*
X102750625Y-122367219D02*
X102750625Y-121605314D01*
X103512530Y-121367219D02*
X104131577Y-121367219D01*
X104131577Y-121367219D02*
X103798244Y-121748171D01*
X103798244Y-121748171D02*
X103941101Y-121748171D01*
X103941101Y-121748171D02*
X104036339Y-121795790D01*
X104036339Y-121795790D02*
X104083958Y-121843409D01*
X104083958Y-121843409D02*
X104131577Y-121938647D01*
X104131577Y-121938647D02*
X104131577Y-122176742D01*
X104131577Y-122176742D02*
X104083958Y-122271980D01*
X104083958Y-122271980D02*
X104036339Y-122319600D01*
X104036339Y-122319600D02*
X103941101Y-122367219D01*
X103941101Y-122367219D02*
X103655387Y-122367219D01*
X103655387Y-122367219D02*
X103560149Y-122319600D01*
X103560149Y-122319600D02*
X103512530Y-122271980D01*
X104560149Y-122271980D02*
X104607768Y-122319600D01*
X104607768Y-122319600D02*
X104560149Y-122367219D01*
X104560149Y-122367219D02*
X104512530Y-122319600D01*
X104512530Y-122319600D02*
X104560149Y-122271980D01*
X104560149Y-122271980D02*
X104560149Y-122367219D01*
X104941101Y-121367219D02*
X105560148Y-121367219D01*
X105560148Y-121367219D02*
X105226815Y-121748171D01*
X105226815Y-121748171D02*
X105369672Y-121748171D01*
X105369672Y-121748171D02*
X105464910Y-121795790D01*
X105464910Y-121795790D02*
X105512529Y-121843409D01*
X105512529Y-121843409D02*
X105560148Y-121938647D01*
X105560148Y-121938647D02*
X105560148Y-122176742D01*
X105560148Y-122176742D02*
X105512529Y-122271980D01*
X105512529Y-122271980D02*
X105464910Y-122319600D01*
X105464910Y-122319600D02*
X105369672Y-122367219D01*
X105369672Y-122367219D02*
X105083958Y-122367219D01*
X105083958Y-122367219D02*
X104988720Y-122319600D01*
X104988720Y-122319600D02*
X104941101Y-122271980D01*
X150369673Y-106486266D02*
X151131578Y-106486266D01*
X150750625Y-106867219D02*
X150750625Y-106105314D01*
X151512530Y-105867219D02*
X152131577Y-105867219D01*
X152131577Y-105867219D02*
X151798244Y-106248171D01*
X151798244Y-106248171D02*
X151941101Y-106248171D01*
X151941101Y-106248171D02*
X152036339Y-106295790D01*
X152036339Y-106295790D02*
X152083958Y-106343409D01*
X152083958Y-106343409D02*
X152131577Y-106438647D01*
X152131577Y-106438647D02*
X152131577Y-106676742D01*
X152131577Y-106676742D02*
X152083958Y-106771980D01*
X152083958Y-106771980D02*
X152036339Y-106819600D01*
X152036339Y-106819600D02*
X151941101Y-106867219D01*
X151941101Y-106867219D02*
X151655387Y-106867219D01*
X151655387Y-106867219D02*
X151560149Y-106819600D01*
X151560149Y-106819600D02*
X151512530Y-106771980D01*
X152560149Y-106771980D02*
X152607768Y-106819600D01*
X152607768Y-106819600D02*
X152560149Y-106867219D01*
X152560149Y-106867219D02*
X152512530Y-106819600D01*
X152512530Y-106819600D02*
X152560149Y-106771980D01*
X152560149Y-106771980D02*
X152560149Y-106867219D01*
X152941101Y-105867219D02*
X153560148Y-105867219D01*
X153560148Y-105867219D02*
X153226815Y-106248171D01*
X153226815Y-106248171D02*
X153369672Y-106248171D01*
X153369672Y-106248171D02*
X153464910Y-106295790D01*
X153464910Y-106295790D02*
X153512529Y-106343409D01*
X153512529Y-106343409D02*
X153560148Y-106438647D01*
X153560148Y-106438647D02*
X153560148Y-106676742D01*
X153560148Y-106676742D02*
X153512529Y-106771980D01*
X153512529Y-106771980D02*
X153464910Y-106819600D01*
X153464910Y-106819600D02*
X153369672Y-106867219D01*
X153369672Y-106867219D02*
X153083958Y-106867219D01*
X153083958Y-106867219D02*
X152988720Y-106819600D01*
X152988720Y-106819600D02*
X152941101Y-106771980D01*
D12*
X132173558Y-45239638D02*
X132173558Y-43239638D01*
X132173558Y-43239638D02*
X132649748Y-43239638D01*
X132649748Y-43239638D02*
X132935463Y-43334876D01*
X132935463Y-43334876D02*
X133125939Y-43525352D01*
X133125939Y-43525352D02*
X133221177Y-43715828D01*
X133221177Y-43715828D02*
X133316415Y-44096780D01*
X133316415Y-44096780D02*
X133316415Y-44382495D01*
X133316415Y-44382495D02*
X133221177Y-44763447D01*
X133221177Y-44763447D02*
X133125939Y-44953923D01*
X133125939Y-44953923D02*
X132935463Y-45144400D01*
X132935463Y-45144400D02*
X132649748Y-45239638D01*
X132649748Y-45239638D02*
X132173558Y-45239638D01*
X135030701Y-45239638D02*
X135030701Y-44192019D01*
X135030701Y-44192019D02*
X134935463Y-44001542D01*
X134935463Y-44001542D02*
X134744987Y-43906304D01*
X134744987Y-43906304D02*
X134364034Y-43906304D01*
X134364034Y-43906304D02*
X134173558Y-44001542D01*
X135030701Y-45144400D02*
X134840225Y-45239638D01*
X134840225Y-45239638D02*
X134364034Y-45239638D01*
X134364034Y-45239638D02*
X134173558Y-45144400D01*
X134173558Y-45144400D02*
X134078320Y-44953923D01*
X134078320Y-44953923D02*
X134078320Y-44763447D01*
X134078320Y-44763447D02*
X134173558Y-44572971D01*
X134173558Y-44572971D02*
X134364034Y-44477733D01*
X134364034Y-44477733D02*
X134840225Y-44477733D01*
X134840225Y-44477733D02*
X135030701Y-44382495D01*
X135697368Y-43906304D02*
X136459272Y-43906304D01*
X135983082Y-43239638D02*
X135983082Y-44953923D01*
X135983082Y-44953923D02*
X136078320Y-45144400D01*
X136078320Y-45144400D02*
X136268796Y-45239638D01*
X136268796Y-45239638D02*
X136459272Y-45239638D01*
X137983082Y-45239638D02*
X137983082Y-44192019D01*
X137983082Y-44192019D02*
X137887844Y-44001542D01*
X137887844Y-44001542D02*
X137697368Y-43906304D01*
X137697368Y-43906304D02*
X137316415Y-43906304D01*
X137316415Y-43906304D02*
X137125939Y-44001542D01*
X137983082Y-45144400D02*
X137792606Y-45239638D01*
X137792606Y-45239638D02*
X137316415Y-45239638D01*
X137316415Y-45239638D02*
X137125939Y-45144400D01*
X137125939Y-45144400D02*
X137030701Y-44953923D01*
X137030701Y-44953923D02*
X137030701Y-44763447D01*
X137030701Y-44763447D02*
X137125939Y-44572971D01*
X137125939Y-44572971D02*
X137316415Y-44477733D01*
X137316415Y-44477733D02*
X137792606Y-44477733D01*
X137792606Y-44477733D02*
X137983082Y-44382495D01*
X139221177Y-45239638D02*
X139030701Y-45144400D01*
X139030701Y-45144400D02*
X138935463Y-44953923D01*
X138935463Y-44953923D02*
X138935463Y-43239638D01*
X140268796Y-45239638D02*
X140078320Y-45144400D01*
X140078320Y-45144400D02*
X139983082Y-45049161D01*
X139983082Y-45049161D02*
X139887844Y-44858685D01*
X139887844Y-44858685D02*
X139887844Y-44287257D01*
X139887844Y-44287257D02*
X139983082Y-44096780D01*
X139983082Y-44096780D02*
X140078320Y-44001542D01*
X140078320Y-44001542D02*
X140268796Y-43906304D01*
X140268796Y-43906304D02*
X140554511Y-43906304D01*
X140554511Y-43906304D02*
X140744987Y-44001542D01*
X140744987Y-44001542D02*
X140840225Y-44096780D01*
X140840225Y-44096780D02*
X140935463Y-44287257D01*
X140935463Y-44287257D02*
X140935463Y-44858685D01*
X140935463Y-44858685D02*
X140840225Y-45049161D01*
X140840225Y-45049161D02*
X140744987Y-45144400D01*
X140744987Y-45144400D02*
X140554511Y-45239638D01*
X140554511Y-45239638D02*
X140268796Y-45239638D01*
X142649749Y-43906304D02*
X142649749Y-45525352D01*
X142649749Y-45525352D02*
X142554511Y-45715828D01*
X142554511Y-45715828D02*
X142459273Y-45811066D01*
X142459273Y-45811066D02*
X142268796Y-45906304D01*
X142268796Y-45906304D02*
X141983082Y-45906304D01*
X141983082Y-45906304D02*
X141792606Y-45811066D01*
X142649749Y-45144400D02*
X142459273Y-45239638D01*
X142459273Y-45239638D02*
X142078320Y-45239638D01*
X142078320Y-45239638D02*
X141887844Y-45144400D01*
X141887844Y-45144400D02*
X141792606Y-45049161D01*
X141792606Y-45049161D02*
X141697368Y-44858685D01*
X141697368Y-44858685D02*
X141697368Y-44287257D01*
X141697368Y-44287257D02*
X141792606Y-44096780D01*
X141792606Y-44096780D02*
X141887844Y-44001542D01*
X141887844Y-44001542D02*
X142078320Y-43906304D01*
X142078320Y-43906304D02*
X142459273Y-43906304D01*
X142459273Y-43906304D02*
X142649749Y-44001542D01*
X144459273Y-43906304D02*
X144459273Y-45525352D01*
X144459273Y-45525352D02*
X144364035Y-45715828D01*
X144364035Y-45715828D02*
X144268797Y-45811066D01*
X144268797Y-45811066D02*
X144078320Y-45906304D01*
X144078320Y-45906304D02*
X143792606Y-45906304D01*
X143792606Y-45906304D02*
X143602130Y-45811066D01*
X144459273Y-45144400D02*
X144268797Y-45239638D01*
X144268797Y-45239638D02*
X143887844Y-45239638D01*
X143887844Y-45239638D02*
X143697368Y-45144400D01*
X143697368Y-45144400D02*
X143602130Y-45049161D01*
X143602130Y-45049161D02*
X143506892Y-44858685D01*
X143506892Y-44858685D02*
X143506892Y-44287257D01*
X143506892Y-44287257D02*
X143602130Y-44096780D01*
X143602130Y-44096780D02*
X143697368Y-44001542D01*
X143697368Y-44001542D02*
X143887844Y-43906304D01*
X143887844Y-43906304D02*
X144268797Y-43906304D01*
X144268797Y-43906304D02*
X144459273Y-44001542D01*
X146173559Y-45144400D02*
X145983083Y-45239638D01*
X145983083Y-45239638D02*
X145602130Y-45239638D01*
X145602130Y-45239638D02*
X145411654Y-45144400D01*
X145411654Y-45144400D02*
X145316416Y-44953923D01*
X145316416Y-44953923D02*
X145316416Y-44192019D01*
X145316416Y-44192019D02*
X145411654Y-44001542D01*
X145411654Y-44001542D02*
X145602130Y-43906304D01*
X145602130Y-43906304D02*
X145983083Y-43906304D01*
X145983083Y-43906304D02*
X146173559Y-44001542D01*
X146173559Y-44001542D02*
X146268797Y-44192019D01*
X146268797Y-44192019D02*
X146268797Y-44382495D01*
X146268797Y-44382495D02*
X145316416Y-44572971D01*
X147125940Y-45239638D02*
X147125940Y-43906304D01*
X147125940Y-44287257D02*
X147221178Y-44096780D01*
X147221178Y-44096780D02*
X147316416Y-44001542D01*
X147316416Y-44001542D02*
X147506892Y-43906304D01*
X147506892Y-43906304D02*
X147697369Y-43906304D01*
X149887845Y-44192019D02*
X150554512Y-44192019D01*
X150840226Y-45239638D02*
X149887845Y-45239638D01*
X149887845Y-45239638D02*
X149887845Y-43239638D01*
X149887845Y-43239638D02*
X150840226Y-43239638D01*
X152554512Y-45144400D02*
X152364036Y-45239638D01*
X152364036Y-45239638D02*
X151983083Y-45239638D01*
X151983083Y-45239638D02*
X151792607Y-45144400D01*
X151792607Y-45144400D02*
X151697369Y-45049161D01*
X151697369Y-45049161D02*
X151602131Y-44858685D01*
X151602131Y-44858685D02*
X151602131Y-44287257D01*
X151602131Y-44287257D02*
X151697369Y-44096780D01*
X151697369Y-44096780D02*
X151792607Y-44001542D01*
X151792607Y-44001542D02*
X151983083Y-43906304D01*
X151983083Y-43906304D02*
X152364036Y-43906304D01*
X152364036Y-43906304D02*
X152554512Y-44001542D01*
X153697369Y-45239638D02*
X153506893Y-45144400D01*
X153506893Y-45144400D02*
X153411655Y-45049161D01*
X153411655Y-45049161D02*
X153316417Y-44858685D01*
X153316417Y-44858685D02*
X153316417Y-44287257D01*
X153316417Y-44287257D02*
X153411655Y-44096780D01*
X153411655Y-44096780D02*
X153506893Y-44001542D01*
X153506893Y-44001542D02*
X153697369Y-43906304D01*
X153697369Y-43906304D02*
X153983084Y-43906304D01*
X153983084Y-43906304D02*
X154173560Y-44001542D01*
X154173560Y-44001542D02*
X154268798Y-44096780D01*
X154268798Y-44096780D02*
X154364036Y-44287257D01*
X154364036Y-44287257D02*
X154364036Y-44858685D01*
X154364036Y-44858685D02*
X154268798Y-45049161D01*
X154268798Y-45049161D02*
X154173560Y-45144400D01*
X154173560Y-45144400D02*
X153983084Y-45239638D01*
X153983084Y-45239638D02*
X153697369Y-45239638D01*
X156840227Y-45239638D02*
X156744989Y-45239638D01*
X156744989Y-45239638D02*
X156554512Y-45144400D01*
X156554512Y-45144400D02*
X156268798Y-44858685D01*
X156268798Y-44858685D02*
X155792608Y-44287257D01*
X155792608Y-44287257D02*
X155602131Y-44001542D01*
X155602131Y-44001542D02*
X155506893Y-43715828D01*
X155506893Y-43715828D02*
X155506893Y-43525352D01*
X155506893Y-43525352D02*
X155602131Y-43334876D01*
X155602131Y-43334876D02*
X155792608Y-43239638D01*
X155792608Y-43239638D02*
X155887846Y-43239638D01*
X155887846Y-43239638D02*
X156078322Y-43334876D01*
X156078322Y-43334876D02*
X156173560Y-43525352D01*
X156173560Y-43525352D02*
X156173560Y-43620590D01*
X156173560Y-43620590D02*
X156078322Y-43811066D01*
X156078322Y-43811066D02*
X155983084Y-43906304D01*
X155983084Y-43906304D02*
X155411655Y-44287257D01*
X155411655Y-44287257D02*
X155316417Y-44382495D01*
X155316417Y-44382495D02*
X155221179Y-44572971D01*
X155221179Y-44572971D02*
X155221179Y-44858685D01*
X155221179Y-44858685D02*
X155316417Y-45049161D01*
X155316417Y-45049161D02*
X155411655Y-45144400D01*
X155411655Y-45144400D02*
X155602131Y-45239638D01*
X155602131Y-45239638D02*
X155887846Y-45239638D01*
X155887846Y-45239638D02*
X156078322Y-45144400D01*
X156078322Y-45144400D02*
X156173560Y-45049161D01*
X156173560Y-45049161D02*
X156459274Y-44668209D01*
X156459274Y-44668209D02*
X156554512Y-44382495D01*
X156554512Y-44382495D02*
X156554512Y-44192019D01*
X157602131Y-45144400D02*
X157887845Y-45239638D01*
X157887845Y-45239638D02*
X158364036Y-45239638D01*
X158364036Y-45239638D02*
X158554512Y-45144400D01*
X158554512Y-45144400D02*
X158649750Y-45049161D01*
X158649750Y-45049161D02*
X158744988Y-44858685D01*
X158744988Y-44858685D02*
X158744988Y-44668209D01*
X158744988Y-44668209D02*
X158649750Y-44477733D01*
X158649750Y-44477733D02*
X158554512Y-44382495D01*
X158554512Y-44382495D02*
X158364036Y-44287257D01*
X158364036Y-44287257D02*
X157983083Y-44192019D01*
X157983083Y-44192019D02*
X157792607Y-44096780D01*
X157792607Y-44096780D02*
X157697369Y-44001542D01*
X157697369Y-44001542D02*
X157602131Y-43811066D01*
X157602131Y-43811066D02*
X157602131Y-43620590D01*
X157602131Y-43620590D02*
X157697369Y-43430114D01*
X157697369Y-43430114D02*
X157792607Y-43334876D01*
X157792607Y-43334876D02*
X157983083Y-43239638D01*
X157983083Y-43239638D02*
X158459274Y-43239638D01*
X158459274Y-43239638D02*
X158744988Y-43334876D01*
X159887845Y-45239638D02*
X159697369Y-45144400D01*
X159697369Y-45144400D02*
X159602131Y-45049161D01*
X159602131Y-45049161D02*
X159506893Y-44858685D01*
X159506893Y-44858685D02*
X159506893Y-44287257D01*
X159506893Y-44287257D02*
X159602131Y-44096780D01*
X159602131Y-44096780D02*
X159697369Y-44001542D01*
X159697369Y-44001542D02*
X159887845Y-43906304D01*
X159887845Y-43906304D02*
X160173560Y-43906304D01*
X160173560Y-43906304D02*
X160364036Y-44001542D01*
X160364036Y-44001542D02*
X160459274Y-44096780D01*
X160459274Y-44096780D02*
X160554512Y-44287257D01*
X160554512Y-44287257D02*
X160554512Y-44858685D01*
X160554512Y-44858685D02*
X160459274Y-45049161D01*
X160459274Y-45049161D02*
X160364036Y-45144400D01*
X160364036Y-45144400D02*
X160173560Y-45239638D01*
X160173560Y-45239638D02*
X159887845Y-45239638D01*
X161697369Y-45239638D02*
X161506893Y-45144400D01*
X161506893Y-45144400D02*
X161411655Y-44953923D01*
X161411655Y-44953923D02*
X161411655Y-43239638D01*
X162364036Y-45144400D02*
X162554512Y-45239638D01*
X162554512Y-45239638D02*
X162935464Y-45239638D01*
X162935464Y-45239638D02*
X163125941Y-45144400D01*
X163125941Y-45144400D02*
X163221179Y-44953923D01*
X163221179Y-44953923D02*
X163221179Y-44858685D01*
X163221179Y-44858685D02*
X163125941Y-44668209D01*
X163125941Y-44668209D02*
X162935464Y-44572971D01*
X162935464Y-44572971D02*
X162649750Y-44572971D01*
X162649750Y-44572971D02*
X162459274Y-44477733D01*
X162459274Y-44477733D02*
X162364036Y-44287257D01*
X162364036Y-44287257D02*
X162364036Y-44192019D01*
X162364036Y-44192019D02*
X162459274Y-44001542D01*
X162459274Y-44001542D02*
X162649750Y-43906304D01*
X162649750Y-43906304D02*
X162935464Y-43906304D01*
X162935464Y-43906304D02*
X163125941Y-44001542D01*
X165316418Y-43239638D02*
X165983084Y-45239638D01*
X165983084Y-45239638D02*
X166649751Y-43239638D01*
X168364037Y-45239638D02*
X167221180Y-45239638D01*
X167792608Y-45239638D02*
X167792608Y-43239638D01*
X167792608Y-43239638D02*
X167602132Y-43525352D01*
X167602132Y-43525352D02*
X167411656Y-43715828D01*
X167411656Y-43715828D02*
X167221180Y-43811066D01*
D11*
X90929673Y-106486266D02*
X91691578Y-106486266D01*
X91310625Y-106867219D02*
X91310625Y-106105314D01*
X92072530Y-105867219D02*
X92691577Y-105867219D01*
X92691577Y-105867219D02*
X92358244Y-106248171D01*
X92358244Y-106248171D02*
X92501101Y-106248171D01*
X92501101Y-106248171D02*
X92596339Y-106295790D01*
X92596339Y-106295790D02*
X92643958Y-106343409D01*
X92643958Y-106343409D02*
X92691577Y-106438647D01*
X92691577Y-106438647D02*
X92691577Y-106676742D01*
X92691577Y-106676742D02*
X92643958Y-106771980D01*
X92643958Y-106771980D02*
X92596339Y-106819600D01*
X92596339Y-106819600D02*
X92501101Y-106867219D01*
X92501101Y-106867219D02*
X92215387Y-106867219D01*
X92215387Y-106867219D02*
X92120149Y-106819600D01*
X92120149Y-106819600D02*
X92072530Y-106771980D01*
X93120149Y-106771980D02*
X93167768Y-106819600D01*
X93167768Y-106819600D02*
X93120149Y-106867219D01*
X93120149Y-106867219D02*
X93072530Y-106819600D01*
X93072530Y-106819600D02*
X93120149Y-106771980D01*
X93120149Y-106771980D02*
X93120149Y-106867219D01*
X93501101Y-105867219D02*
X94120148Y-105867219D01*
X94120148Y-105867219D02*
X93786815Y-106248171D01*
X93786815Y-106248171D02*
X93929672Y-106248171D01*
X93929672Y-106248171D02*
X94024910Y-106295790D01*
X94024910Y-106295790D02*
X94072529Y-106343409D01*
X94072529Y-106343409D02*
X94120148Y-106438647D01*
X94120148Y-106438647D02*
X94120148Y-106676742D01*
X94120148Y-106676742D02*
X94072529Y-106771980D01*
X94072529Y-106771980D02*
X94024910Y-106819600D01*
X94024910Y-106819600D02*
X93929672Y-106867219D01*
X93929672Y-106867219D02*
X93643958Y-106867219D01*
X93643958Y-106867219D02*
X93548720Y-106819600D01*
X93548720Y-106819600D02*
X93501101Y-106771980D01*
D13*
X183238095Y-65854819D02*
X183238095Y-66664342D01*
X183238095Y-66664342D02*
X183285714Y-66759580D01*
X183285714Y-66759580D02*
X183333333Y-66807200D01*
X183333333Y-66807200D02*
X183428571Y-66854819D01*
X183428571Y-66854819D02*
X183619047Y-66854819D01*
X183619047Y-66854819D02*
X183714285Y-66807200D01*
X183714285Y-66807200D02*
X183761904Y-66759580D01*
X183761904Y-66759580D02*
X183809523Y-66664342D01*
X183809523Y-66664342D02*
X183809523Y-65854819D01*
X184809523Y-66854819D02*
X184238095Y-66854819D01*
X184523809Y-66854819D02*
X184523809Y-65854819D01*
X184523809Y-65854819D02*
X184428571Y-65997676D01*
X184428571Y-65997676D02*
X184333333Y-66092914D01*
X184333333Y-66092914D02*
X184238095Y-66140533D01*
X153437142Y-60984819D02*
X152865714Y-60984819D01*
X153151428Y-60984819D02*
X153151428Y-59984819D01*
X153151428Y-59984819D02*
X153056190Y-60127676D01*
X153056190Y-60127676D02*
X152960952Y-60222914D01*
X152960952Y-60222914D02*
X152865714Y-60270533D01*
X153865714Y-60984819D02*
X153865714Y-59984819D01*
X153865714Y-59984819D02*
X154437142Y-60984819D01*
X154437142Y-60984819D02*
X154437142Y-59984819D01*
X155389523Y-59984819D02*
X154913333Y-59984819D01*
X154913333Y-59984819D02*
X154865714Y-60461009D01*
X154865714Y-60461009D02*
X154913333Y-60413390D01*
X154913333Y-60413390D02*
X155008571Y-60365771D01*
X155008571Y-60365771D02*
X155246666Y-60365771D01*
X155246666Y-60365771D02*
X155341904Y-60413390D01*
X155341904Y-60413390D02*
X155389523Y-60461009D01*
X155389523Y-60461009D02*
X155437142Y-60556247D01*
X155437142Y-60556247D02*
X155437142Y-60794342D01*
X155437142Y-60794342D02*
X155389523Y-60889580D01*
X155389523Y-60889580D02*
X155341904Y-60937200D01*
X155341904Y-60937200D02*
X155246666Y-60984819D01*
X155246666Y-60984819D02*
X155008571Y-60984819D01*
X155008571Y-60984819D02*
X154913333Y-60937200D01*
X154913333Y-60937200D02*
X154865714Y-60889580D01*
X156008571Y-60413390D02*
X155913333Y-60365771D01*
X155913333Y-60365771D02*
X155865714Y-60318152D01*
X155865714Y-60318152D02*
X155818095Y-60222914D01*
X155818095Y-60222914D02*
X155818095Y-60175295D01*
X155818095Y-60175295D02*
X155865714Y-60080057D01*
X155865714Y-60080057D02*
X155913333Y-60032438D01*
X155913333Y-60032438D02*
X156008571Y-59984819D01*
X156008571Y-59984819D02*
X156199047Y-59984819D01*
X156199047Y-59984819D02*
X156294285Y-60032438D01*
X156294285Y-60032438D02*
X156341904Y-60080057D01*
X156341904Y-60080057D02*
X156389523Y-60175295D01*
X156389523Y-60175295D02*
X156389523Y-60222914D01*
X156389523Y-60222914D02*
X156341904Y-60318152D01*
X156341904Y-60318152D02*
X156294285Y-60365771D01*
X156294285Y-60365771D02*
X156199047Y-60413390D01*
X156199047Y-60413390D02*
X156008571Y-60413390D01*
X156008571Y-60413390D02*
X155913333Y-60461009D01*
X155913333Y-60461009D02*
X155865714Y-60508628D01*
X155865714Y-60508628D02*
X155818095Y-60603866D01*
X155818095Y-60603866D02*
X155818095Y-60794342D01*
X155818095Y-60794342D02*
X155865714Y-60889580D01*
X155865714Y-60889580D02*
X155913333Y-60937200D01*
X155913333Y-60937200D02*
X156008571Y-60984819D01*
X156008571Y-60984819D02*
X156199047Y-60984819D01*
X156199047Y-60984819D02*
X156294285Y-60937200D01*
X156294285Y-60937200D02*
X156341904Y-60889580D01*
X156341904Y-60889580D02*
X156389523Y-60794342D01*
X156389523Y-60794342D02*
X156389523Y-60603866D01*
X156389523Y-60603866D02*
X156341904Y-60508628D01*
X156341904Y-60508628D02*
X156294285Y-60461009D01*
X156294285Y-60461009D02*
X156199047Y-60413390D01*
X157341904Y-60984819D02*
X156770476Y-60984819D01*
X157056190Y-60984819D02*
X157056190Y-59984819D01*
X157056190Y-59984819D02*
X156960952Y-60127676D01*
X156960952Y-60127676D02*
X156865714Y-60222914D01*
X156865714Y-60222914D02*
X156770476Y-60270533D01*
X157675238Y-59984819D02*
X158341904Y-59984819D01*
X158341904Y-59984819D02*
X157913333Y-60984819D01*
X193666667Y-50407200D02*
X193809524Y-50454819D01*
X193809524Y-50454819D02*
X194047619Y-50454819D01*
X194047619Y-50454819D02*
X194142857Y-50407200D01*
X194142857Y-50407200D02*
X194190476Y-50359580D01*
X194190476Y-50359580D02*
X194238095Y-50264342D01*
X194238095Y-50264342D02*
X194238095Y-50169104D01*
X194238095Y-50169104D02*
X194190476Y-50073866D01*
X194190476Y-50073866D02*
X194142857Y-50026247D01*
X194142857Y-50026247D02*
X194047619Y-49978628D01*
X194047619Y-49978628D02*
X193857143Y-49931009D01*
X193857143Y-49931009D02*
X193761905Y-49883390D01*
X193761905Y-49883390D02*
X193714286Y-49835771D01*
X193714286Y-49835771D02*
X193666667Y-49740533D01*
X193666667Y-49740533D02*
X193666667Y-49645295D01*
X193666667Y-49645295D02*
X193714286Y-49550057D01*
X193714286Y-49550057D02*
X193761905Y-49502438D01*
X193761905Y-49502438D02*
X193857143Y-49454819D01*
X193857143Y-49454819D02*
X194095238Y-49454819D01*
X194095238Y-49454819D02*
X194238095Y-49502438D01*
X194571429Y-49454819D02*
X194809524Y-50454819D01*
X194809524Y-50454819D02*
X195000000Y-49740533D01*
X195000000Y-49740533D02*
X195190476Y-50454819D01*
X195190476Y-50454819D02*
X195428572Y-49454819D01*
X196333333Y-50454819D02*
X195761905Y-50454819D01*
X196047619Y-50454819D02*
X196047619Y-49454819D01*
X196047619Y-49454819D02*
X195952381Y-49597676D01*
X195952381Y-49597676D02*
X195857143Y-49692914D01*
X195857143Y-49692914D02*
X195761905Y-49740533D01*
X113333333Y-84954819D02*
X113333333Y-83954819D01*
X113761904Y-84050057D02*
X113809523Y-84002438D01*
X113809523Y-84002438D02*
X113904761Y-83954819D01*
X113904761Y-83954819D02*
X114142856Y-83954819D01*
X114142856Y-83954819D02*
X114238094Y-84002438D01*
X114238094Y-84002438D02*
X114285713Y-84050057D01*
X114285713Y-84050057D02*
X114333332Y-84145295D01*
X114333332Y-84145295D02*
X114333332Y-84240533D01*
X114333332Y-84240533D02*
X114285713Y-84383390D01*
X114285713Y-84383390D02*
X113714285Y-84954819D01*
X113714285Y-84954819D02*
X114333332Y-84954819D01*
X115333332Y-84859580D02*
X115285713Y-84907200D01*
X115285713Y-84907200D02*
X115142856Y-84954819D01*
X115142856Y-84954819D02*
X115047618Y-84954819D01*
X115047618Y-84954819D02*
X114904761Y-84907200D01*
X114904761Y-84907200D02*
X114809523Y-84811961D01*
X114809523Y-84811961D02*
X114761904Y-84716723D01*
X114761904Y-84716723D02*
X114714285Y-84526247D01*
X114714285Y-84526247D02*
X114714285Y-84383390D01*
X114714285Y-84383390D02*
X114761904Y-84192914D01*
X114761904Y-84192914D02*
X114809523Y-84097676D01*
X114809523Y-84097676D02*
X114904761Y-84002438D01*
X114904761Y-84002438D02*
X115047618Y-83954819D01*
X115047618Y-83954819D02*
X115142856Y-83954819D01*
X115142856Y-83954819D02*
X115285713Y-84002438D01*
X115285713Y-84002438D02*
X115333332Y-84050057D01*
X115952380Y-83954819D02*
X116047618Y-83954819D01*
X116047618Y-83954819D02*
X116142856Y-84002438D01*
X116142856Y-84002438D02*
X116190475Y-84050057D01*
X116190475Y-84050057D02*
X116238094Y-84145295D01*
X116238094Y-84145295D02*
X116285713Y-84335771D01*
X116285713Y-84335771D02*
X116285713Y-84573866D01*
X116285713Y-84573866D02*
X116238094Y-84764342D01*
X116238094Y-84764342D02*
X116190475Y-84859580D01*
X116190475Y-84859580D02*
X116142856Y-84907200D01*
X116142856Y-84907200D02*
X116047618Y-84954819D01*
X116047618Y-84954819D02*
X115952380Y-84954819D01*
X115952380Y-84954819D02*
X115857142Y-84907200D01*
X115857142Y-84907200D02*
X115809523Y-84859580D01*
X115809523Y-84859580D02*
X115761904Y-84764342D01*
X115761904Y-84764342D02*
X115714285Y-84573866D01*
X115714285Y-84573866D02*
X115714285Y-84335771D01*
X115714285Y-84335771D02*
X115761904Y-84145295D01*
X115761904Y-84145295D02*
X115809523Y-84050057D01*
X115809523Y-84050057D02*
X115857142Y-84002438D01*
X115857142Y-84002438D02*
X115952380Y-83954819D01*
X116999999Y-83954819D02*
X116999999Y-84669104D01*
X116999999Y-84669104D02*
X116952380Y-84811961D01*
X116952380Y-84811961D02*
X116857142Y-84907200D01*
X116857142Y-84907200D02*
X116714285Y-84954819D01*
X116714285Y-84954819D02*
X116619047Y-84954819D01*
X117428571Y-84907200D02*
X117571428Y-84954819D01*
X117571428Y-84954819D02*
X117809523Y-84954819D01*
X117809523Y-84954819D02*
X117904761Y-84907200D01*
X117904761Y-84907200D02*
X117952380Y-84859580D01*
X117952380Y-84859580D02*
X117999999Y-84764342D01*
X117999999Y-84764342D02*
X117999999Y-84669104D01*
X117999999Y-84669104D02*
X117952380Y-84573866D01*
X117952380Y-84573866D02*
X117904761Y-84526247D01*
X117904761Y-84526247D02*
X117809523Y-84478628D01*
X117809523Y-84478628D02*
X117619047Y-84431009D01*
X117619047Y-84431009D02*
X117523809Y-84383390D01*
X117523809Y-84383390D02*
X117476190Y-84335771D01*
X117476190Y-84335771D02*
X117428571Y-84240533D01*
X117428571Y-84240533D02*
X117428571Y-84145295D01*
X117428571Y-84145295D02*
X117476190Y-84050057D01*
X117476190Y-84050057D02*
X117523809Y-84002438D01*
X117523809Y-84002438D02*
X117619047Y-83954819D01*
X117619047Y-83954819D02*
X117857142Y-83954819D01*
X117857142Y-83954819D02*
X117999999Y-84002438D01*
X118285714Y-83954819D02*
X118857142Y-83954819D01*
X118571428Y-84954819D02*
X118571428Y-83954819D01*
X119714285Y-84954819D02*
X119142857Y-84954819D01*
X119428571Y-84954819D02*
X119428571Y-83954819D01*
X119428571Y-83954819D02*
X119333333Y-84097676D01*
X119333333Y-84097676D02*
X119238095Y-84192914D01*
X119238095Y-84192914D02*
X119142857Y-84240533D01*
X182374819Y-102873333D02*
X181374819Y-102873333D01*
X181374819Y-102873333D02*
X181374819Y-102492381D01*
X181374819Y-102492381D02*
X181422438Y-102397143D01*
X181422438Y-102397143D02*
X181470057Y-102349524D01*
X181470057Y-102349524D02*
X181565295Y-102301905D01*
X181565295Y-102301905D02*
X181708152Y-102301905D01*
X181708152Y-102301905D02*
X181803390Y-102349524D01*
X181803390Y-102349524D02*
X181851009Y-102397143D01*
X181851009Y-102397143D02*
X181898628Y-102492381D01*
X181898628Y-102492381D02*
X181898628Y-102873333D01*
X181708152Y-101444762D02*
X182374819Y-101444762D01*
X181708152Y-101873333D02*
X182231961Y-101873333D01*
X182231961Y-101873333D02*
X182327200Y-101825714D01*
X182327200Y-101825714D02*
X182374819Y-101730476D01*
X182374819Y-101730476D02*
X182374819Y-101587619D01*
X182374819Y-101587619D02*
X182327200Y-101492381D01*
X182327200Y-101492381D02*
X182279580Y-101444762D01*
X182374819Y-100825714D02*
X182327200Y-100920952D01*
X182327200Y-100920952D02*
X182231961Y-100968571D01*
X182231961Y-100968571D02*
X181374819Y-100968571D01*
X182374819Y-100301904D02*
X182327200Y-100397142D01*
X182327200Y-100397142D02*
X182231961Y-100444761D01*
X182231961Y-100444761D02*
X181374819Y-100444761D01*
X181708152Y-99492380D02*
X182374819Y-99492380D01*
X181708152Y-99920951D02*
X182231961Y-99920951D01*
X182231961Y-99920951D02*
X182327200Y-99873332D01*
X182327200Y-99873332D02*
X182374819Y-99778094D01*
X182374819Y-99778094D02*
X182374819Y-99635237D01*
X182374819Y-99635237D02*
X182327200Y-99539999D01*
X182327200Y-99539999D02*
X182279580Y-99492380D01*
X181708152Y-99016189D02*
X182708152Y-99016189D01*
X181755771Y-99016189D02*
X181708152Y-98920951D01*
X181708152Y-98920951D02*
X181708152Y-98730475D01*
X181708152Y-98730475D02*
X181755771Y-98635237D01*
X181755771Y-98635237D02*
X181803390Y-98587618D01*
X181803390Y-98587618D02*
X181898628Y-98539999D01*
X181898628Y-98539999D02*
X182184342Y-98539999D01*
X182184342Y-98539999D02*
X182279580Y-98587618D01*
X182279580Y-98587618D02*
X182327200Y-98635237D01*
X182327200Y-98635237D02*
X182374819Y-98730475D01*
X182374819Y-98730475D02*
X182374819Y-98920951D01*
X182374819Y-98920951D02*
X182327200Y-99016189D01*
X182470057Y-98349523D02*
X182470057Y-97587618D01*
X181374819Y-97159046D02*
X181374819Y-96968570D01*
X181374819Y-96968570D02*
X181422438Y-96873332D01*
X181422438Y-96873332D02*
X181517676Y-96778094D01*
X181517676Y-96778094D02*
X181708152Y-96730475D01*
X181708152Y-96730475D02*
X182041485Y-96730475D01*
X182041485Y-96730475D02*
X182231961Y-96778094D01*
X182231961Y-96778094D02*
X182327200Y-96873332D01*
X182327200Y-96873332D02*
X182374819Y-96968570D01*
X182374819Y-96968570D02*
X182374819Y-97159046D01*
X182374819Y-97159046D02*
X182327200Y-97254284D01*
X182327200Y-97254284D02*
X182231961Y-97349522D01*
X182231961Y-97349522D02*
X182041485Y-97397141D01*
X182041485Y-97397141D02*
X181708152Y-97397141D01*
X181708152Y-97397141D02*
X181517676Y-97349522D01*
X181517676Y-97349522D02*
X181422438Y-97254284D01*
X181422438Y-97254284D02*
X181374819Y-97159046D01*
X181708152Y-96301903D02*
X182374819Y-96301903D01*
X181803390Y-96301903D02*
X181755771Y-96254284D01*
X181755771Y-96254284D02*
X181708152Y-96159046D01*
X181708152Y-96159046D02*
X181708152Y-96016189D01*
X181708152Y-96016189D02*
X181755771Y-95920951D01*
X181755771Y-95920951D02*
X181851009Y-95873332D01*
X181851009Y-95873332D02*
X182374819Y-95873332D01*
X182327200Y-95016189D02*
X182374819Y-95111427D01*
X182374819Y-95111427D02*
X182374819Y-95301903D01*
X182374819Y-95301903D02*
X182327200Y-95397141D01*
X182327200Y-95397141D02*
X182231961Y-95444760D01*
X182231961Y-95444760D02*
X181851009Y-95444760D01*
X181851009Y-95444760D02*
X181755771Y-95397141D01*
X181755771Y-95397141D02*
X181708152Y-95301903D01*
X181708152Y-95301903D02*
X181708152Y-95111427D01*
X181708152Y-95111427D02*
X181755771Y-95016189D01*
X181755771Y-95016189D02*
X181851009Y-94968570D01*
X181851009Y-94968570D02*
X181946247Y-94968570D01*
X181946247Y-94968570D02*
X182041485Y-95444760D01*
X182470057Y-94778094D02*
X182470057Y-94016189D01*
X181374819Y-93873331D02*
X182374819Y-93635236D01*
X182374819Y-93635236D02*
X181660533Y-93444760D01*
X181660533Y-93444760D02*
X182374819Y-93254284D01*
X182374819Y-93254284D02*
X181374819Y-93016189D01*
X182374819Y-92635236D02*
X181708152Y-92635236D01*
X181374819Y-92635236D02*
X181422438Y-92682855D01*
X181422438Y-92682855D02*
X181470057Y-92635236D01*
X181470057Y-92635236D02*
X181422438Y-92587617D01*
X181422438Y-92587617D02*
X181374819Y-92635236D01*
X181374819Y-92635236D02*
X181470057Y-92635236D01*
X182374819Y-92159046D02*
X181708152Y-92159046D01*
X181898628Y-92159046D02*
X181803390Y-92111427D01*
X181803390Y-92111427D02*
X181755771Y-92063808D01*
X181755771Y-92063808D02*
X181708152Y-91968570D01*
X181708152Y-91968570D02*
X181708152Y-91873332D01*
X182327200Y-91159046D02*
X182374819Y-91254284D01*
X182374819Y-91254284D02*
X182374819Y-91444760D01*
X182374819Y-91444760D02*
X182327200Y-91539998D01*
X182327200Y-91539998D02*
X182231961Y-91587617D01*
X182231961Y-91587617D02*
X181851009Y-91587617D01*
X181851009Y-91587617D02*
X181755771Y-91539998D01*
X181755771Y-91539998D02*
X181708152Y-91444760D01*
X181708152Y-91444760D02*
X181708152Y-91254284D01*
X181708152Y-91254284D02*
X181755771Y-91159046D01*
X181755771Y-91159046D02*
X181851009Y-91111427D01*
X181851009Y-91111427D02*
X181946247Y-91111427D01*
X181946247Y-91111427D02*
X182041485Y-91587617D01*
X182374819Y-90159046D02*
X182374819Y-90730474D01*
X182374819Y-90444760D02*
X181374819Y-90444760D01*
X181374819Y-90444760D02*
X181517676Y-90539998D01*
X181517676Y-90539998D02*
X181612914Y-90635236D01*
X181612914Y-90635236D02*
X181660533Y-90730474D01*
X114828571Y-57254819D02*
X114828571Y-58064342D01*
X114828571Y-58064342D02*
X114876190Y-58159580D01*
X114876190Y-58159580D02*
X114923809Y-58207200D01*
X114923809Y-58207200D02*
X115019047Y-58254819D01*
X115019047Y-58254819D02*
X115209523Y-58254819D01*
X115209523Y-58254819D02*
X115304761Y-58207200D01*
X115304761Y-58207200D02*
X115352380Y-58159580D01*
X115352380Y-58159580D02*
X115399999Y-58064342D01*
X115399999Y-58064342D02*
X115399999Y-57254819D01*
X115828571Y-57969104D02*
X116304761Y-57969104D01*
X115733333Y-58254819D02*
X116066666Y-57254819D01*
X116066666Y-57254819D02*
X116399999Y-58254819D01*
X117304761Y-58254819D02*
X116971428Y-57778628D01*
X116733333Y-58254819D02*
X116733333Y-57254819D01*
X116733333Y-57254819D02*
X117114285Y-57254819D01*
X117114285Y-57254819D02*
X117209523Y-57302438D01*
X117209523Y-57302438D02*
X117257142Y-57350057D01*
X117257142Y-57350057D02*
X117304761Y-57445295D01*
X117304761Y-57445295D02*
X117304761Y-57588152D01*
X117304761Y-57588152D02*
X117257142Y-57683390D01*
X117257142Y-57683390D02*
X117209523Y-57731009D01*
X117209523Y-57731009D02*
X117114285Y-57778628D01*
X117114285Y-57778628D02*
X116733333Y-57778628D01*
X117590476Y-57254819D02*
X118161904Y-57254819D01*
X117876190Y-58254819D02*
X117876190Y-57254819D01*
X118685714Y-57254819D02*
X118780952Y-57254819D01*
X118780952Y-57254819D02*
X118876190Y-57302438D01*
X118876190Y-57302438D02*
X118923809Y-57350057D01*
X118923809Y-57350057D02*
X118971428Y-57445295D01*
X118971428Y-57445295D02*
X119019047Y-57635771D01*
X119019047Y-57635771D02*
X119019047Y-57873866D01*
X119019047Y-57873866D02*
X118971428Y-58064342D01*
X118971428Y-58064342D02*
X118923809Y-58159580D01*
X118923809Y-58159580D02*
X118876190Y-58207200D01*
X118876190Y-58207200D02*
X118780952Y-58254819D01*
X118780952Y-58254819D02*
X118685714Y-58254819D01*
X118685714Y-58254819D02*
X118590476Y-58207200D01*
X118590476Y-58207200D02*
X118542857Y-58159580D01*
X118542857Y-58159580D02*
X118495238Y-58064342D01*
X118495238Y-58064342D02*
X118447619Y-57873866D01*
X118447619Y-57873866D02*
X118447619Y-57635771D01*
X118447619Y-57635771D02*
X118495238Y-57445295D01*
X118495238Y-57445295D02*
X118542857Y-57350057D01*
X118542857Y-57350057D02*
X118590476Y-57302438D01*
X118590476Y-57302438D02*
X118685714Y-57254819D01*
X196550057Y-61166666D02*
X196502438Y-61119047D01*
X196502438Y-61119047D02*
X196454819Y-61023809D01*
X196454819Y-61023809D02*
X196454819Y-60785714D01*
X196454819Y-60785714D02*
X196502438Y-60690476D01*
X196502438Y-60690476D02*
X196550057Y-60642857D01*
X196550057Y-60642857D02*
X196645295Y-60595238D01*
X196645295Y-60595238D02*
X196740533Y-60595238D01*
X196740533Y-60595238D02*
X196883390Y-60642857D01*
X196883390Y-60642857D02*
X197454819Y-61214285D01*
X197454819Y-61214285D02*
X197454819Y-60595238D01*
X196454819Y-59976190D02*
X196454819Y-59880952D01*
X196454819Y-59880952D02*
X196502438Y-59785714D01*
X196502438Y-59785714D02*
X196550057Y-59738095D01*
X196550057Y-59738095D02*
X196645295Y-59690476D01*
X196645295Y-59690476D02*
X196835771Y-59642857D01*
X196835771Y-59642857D02*
X197073866Y-59642857D01*
X197073866Y-59642857D02*
X197264342Y-59690476D01*
X197264342Y-59690476D02*
X197359580Y-59738095D01*
X197359580Y-59738095D02*
X197407200Y-59785714D01*
X197407200Y-59785714D02*
X197454819Y-59880952D01*
X197454819Y-59880952D02*
X197454819Y-59976190D01*
X197454819Y-59976190D02*
X197407200Y-60071428D01*
X197407200Y-60071428D02*
X197359580Y-60119047D01*
X197359580Y-60119047D02*
X197264342Y-60166666D01*
X197264342Y-60166666D02*
X197073866Y-60214285D01*
X197073866Y-60214285D02*
X196835771Y-60214285D01*
X196835771Y-60214285D02*
X196645295Y-60166666D01*
X196645295Y-60166666D02*
X196550057Y-60119047D01*
X196550057Y-60119047D02*
X196502438Y-60071428D01*
X196502438Y-60071428D02*
X196454819Y-59976190D01*
X197454819Y-59214285D02*
X196454819Y-59214285D01*
X197073866Y-59119047D02*
X197454819Y-58833333D01*
X196788152Y-58833333D02*
X197169104Y-59214285D01*
X164833333Y-55900057D02*
X164880952Y-55852438D01*
X164880952Y-55852438D02*
X164976190Y-55804819D01*
X164976190Y-55804819D02*
X165214285Y-55804819D01*
X165214285Y-55804819D02*
X165309523Y-55852438D01*
X165309523Y-55852438D02*
X165357142Y-55900057D01*
X165357142Y-55900057D02*
X165404761Y-55995295D01*
X165404761Y-55995295D02*
X165404761Y-56090533D01*
X165404761Y-56090533D02*
X165357142Y-56233390D01*
X165357142Y-56233390D02*
X164785714Y-56804819D01*
X164785714Y-56804819D02*
X165404761Y-56804819D01*
X165785714Y-55900057D02*
X165833333Y-55852438D01*
X165833333Y-55852438D02*
X165928571Y-55804819D01*
X165928571Y-55804819D02*
X166166666Y-55804819D01*
X166166666Y-55804819D02*
X166261904Y-55852438D01*
X166261904Y-55852438D02*
X166309523Y-55900057D01*
X166309523Y-55900057D02*
X166357142Y-55995295D01*
X166357142Y-55995295D02*
X166357142Y-56090533D01*
X166357142Y-56090533D02*
X166309523Y-56233390D01*
X166309523Y-56233390D02*
X165738095Y-56804819D01*
X165738095Y-56804819D02*
X166357142Y-56804819D01*
X166785714Y-56804819D02*
X166785714Y-55804819D01*
X166880952Y-56423866D02*
X167166666Y-56804819D01*
X167166666Y-56138152D02*
X166785714Y-56519104D01*
X190928571Y-57954819D02*
X190357143Y-57954819D01*
X190642857Y-57954819D02*
X190642857Y-56954819D01*
X190642857Y-56954819D02*
X190547619Y-57097676D01*
X190547619Y-57097676D02*
X190452381Y-57192914D01*
X190452381Y-57192914D02*
X190357143Y-57240533D01*
X191547619Y-56954819D02*
X191642857Y-56954819D01*
X191642857Y-56954819D02*
X191738095Y-57002438D01*
X191738095Y-57002438D02*
X191785714Y-57050057D01*
X191785714Y-57050057D02*
X191833333Y-57145295D01*
X191833333Y-57145295D02*
X191880952Y-57335771D01*
X191880952Y-57335771D02*
X191880952Y-57573866D01*
X191880952Y-57573866D02*
X191833333Y-57764342D01*
X191833333Y-57764342D02*
X191785714Y-57859580D01*
X191785714Y-57859580D02*
X191738095Y-57907200D01*
X191738095Y-57907200D02*
X191642857Y-57954819D01*
X191642857Y-57954819D02*
X191547619Y-57954819D01*
X191547619Y-57954819D02*
X191452381Y-57907200D01*
X191452381Y-57907200D02*
X191404762Y-57859580D01*
X191404762Y-57859580D02*
X191357143Y-57764342D01*
X191357143Y-57764342D02*
X191309524Y-57573866D01*
X191309524Y-57573866D02*
X191309524Y-57335771D01*
X191309524Y-57335771D02*
X191357143Y-57145295D01*
X191357143Y-57145295D02*
X191404762Y-57050057D01*
X191404762Y-57050057D02*
X191452381Y-57002438D01*
X191452381Y-57002438D02*
X191547619Y-56954819D01*
X192785714Y-56954819D02*
X192309524Y-56954819D01*
X192309524Y-56954819D02*
X192261905Y-57431009D01*
X192261905Y-57431009D02*
X192309524Y-57383390D01*
X192309524Y-57383390D02*
X192404762Y-57335771D01*
X192404762Y-57335771D02*
X192642857Y-57335771D01*
X192642857Y-57335771D02*
X192738095Y-57383390D01*
X192738095Y-57383390D02*
X192785714Y-57431009D01*
X192785714Y-57431009D02*
X192833333Y-57526247D01*
X192833333Y-57526247D02*
X192833333Y-57764342D01*
X192833333Y-57764342D02*
X192785714Y-57859580D01*
X192785714Y-57859580D02*
X192738095Y-57907200D01*
X192738095Y-57907200D02*
X192642857Y-57954819D01*
X192642857Y-57954819D02*
X192404762Y-57954819D01*
X192404762Y-57954819D02*
X192309524Y-57907200D01*
X192309524Y-57907200D02*
X192261905Y-57859580D01*
X193261905Y-57954819D02*
X193261905Y-56954819D01*
X193357143Y-57573866D02*
X193642857Y-57954819D01*
X193642857Y-57288152D02*
X193261905Y-57669104D01*
X166561009Y-51602857D02*
X166561009Y-51936190D01*
X167084819Y-51936190D02*
X166084819Y-51936190D01*
X166084819Y-51936190D02*
X166084819Y-51460000D01*
X166418152Y-50650476D02*
X167084819Y-50650476D01*
X166418152Y-51079047D02*
X166941961Y-51079047D01*
X166941961Y-51079047D02*
X167037200Y-51031428D01*
X167037200Y-51031428D02*
X167084819Y-50936190D01*
X167084819Y-50936190D02*
X167084819Y-50793333D01*
X167084819Y-50793333D02*
X167037200Y-50698095D01*
X167037200Y-50698095D02*
X166989580Y-50650476D01*
X167037200Y-50221904D02*
X167084819Y-50126666D01*
X167084819Y-50126666D02*
X167084819Y-49936190D01*
X167084819Y-49936190D02*
X167037200Y-49840952D01*
X167037200Y-49840952D02*
X166941961Y-49793333D01*
X166941961Y-49793333D02*
X166894342Y-49793333D01*
X166894342Y-49793333D02*
X166799104Y-49840952D01*
X166799104Y-49840952D02*
X166751485Y-49936190D01*
X166751485Y-49936190D02*
X166751485Y-50079047D01*
X166751485Y-50079047D02*
X166703866Y-50174285D01*
X166703866Y-50174285D02*
X166608628Y-50221904D01*
X166608628Y-50221904D02*
X166561009Y-50221904D01*
X166561009Y-50221904D02*
X166465771Y-50174285D01*
X166465771Y-50174285D02*
X166418152Y-50079047D01*
X166418152Y-50079047D02*
X166418152Y-49936190D01*
X166418152Y-49936190D02*
X166465771Y-49840952D01*
X167037200Y-48983809D02*
X167084819Y-49079047D01*
X167084819Y-49079047D02*
X167084819Y-49269523D01*
X167084819Y-49269523D02*
X167037200Y-49364761D01*
X167037200Y-49364761D02*
X166941961Y-49412380D01*
X166941961Y-49412380D02*
X166561009Y-49412380D01*
X166561009Y-49412380D02*
X166465771Y-49364761D01*
X166465771Y-49364761D02*
X166418152Y-49269523D01*
X166418152Y-49269523D02*
X166418152Y-49079047D01*
X166418152Y-49079047D02*
X166465771Y-48983809D01*
X166465771Y-48983809D02*
X166561009Y-48936190D01*
X166561009Y-48936190D02*
X166656247Y-48936190D01*
X166656247Y-48936190D02*
X166751485Y-49412380D01*
X181185119Y-54900057D02*
X181232738Y-54852438D01*
X181232738Y-54852438D02*
X181327976Y-54804819D01*
X181327976Y-54804819D02*
X181566071Y-54804819D01*
X181566071Y-54804819D02*
X181661309Y-54852438D01*
X181661309Y-54852438D02*
X181708928Y-54900057D01*
X181708928Y-54900057D02*
X181756547Y-54995295D01*
X181756547Y-54995295D02*
X181756547Y-55090533D01*
X181756547Y-55090533D02*
X181708928Y-55233390D01*
X181708928Y-55233390D02*
X181137500Y-55804819D01*
X181137500Y-55804819D02*
X181756547Y-55804819D01*
X182185119Y-55709580D02*
X182232738Y-55757200D01*
X182232738Y-55757200D02*
X182185119Y-55804819D01*
X182185119Y-55804819D02*
X182137500Y-55757200D01*
X182137500Y-55757200D02*
X182185119Y-55709580D01*
X182185119Y-55709580D02*
X182185119Y-55804819D01*
X182613690Y-54900057D02*
X182661309Y-54852438D01*
X182661309Y-54852438D02*
X182756547Y-54804819D01*
X182756547Y-54804819D02*
X182994642Y-54804819D01*
X182994642Y-54804819D02*
X183089880Y-54852438D01*
X183089880Y-54852438D02*
X183137499Y-54900057D01*
X183137499Y-54900057D02*
X183185118Y-54995295D01*
X183185118Y-54995295D02*
X183185118Y-55090533D01*
X183185118Y-55090533D02*
X183137499Y-55233390D01*
X183137499Y-55233390D02*
X182566071Y-55804819D01*
X182566071Y-55804819D02*
X183185118Y-55804819D01*
X183613690Y-55138152D02*
X183613690Y-56138152D01*
X184089880Y-55661961D02*
X184137499Y-55757200D01*
X184137499Y-55757200D02*
X184232737Y-55804819D01*
X183613690Y-55661961D02*
X183661309Y-55757200D01*
X183661309Y-55757200D02*
X183756547Y-55804819D01*
X183756547Y-55804819D02*
X183947023Y-55804819D01*
X183947023Y-55804819D02*
X184042261Y-55757200D01*
X184042261Y-55757200D02*
X184089880Y-55661961D01*
X184089880Y-55661961D02*
X184089880Y-55138152D01*
X184994642Y-55281009D02*
X184661309Y-55281009D01*
X184661309Y-55804819D02*
X184661309Y-54804819D01*
X184661309Y-54804819D02*
X185137499Y-54804819D01*
X151476190Y-97954819D02*
X151666666Y-97954819D01*
X151666666Y-97954819D02*
X151761904Y-98002438D01*
X151761904Y-98002438D02*
X151857142Y-98097676D01*
X151857142Y-98097676D02*
X151904761Y-98288152D01*
X151904761Y-98288152D02*
X151904761Y-98621485D01*
X151904761Y-98621485D02*
X151857142Y-98811961D01*
X151857142Y-98811961D02*
X151761904Y-98907200D01*
X151761904Y-98907200D02*
X151666666Y-98954819D01*
X151666666Y-98954819D02*
X151476190Y-98954819D01*
X151476190Y-98954819D02*
X151380952Y-98907200D01*
X151380952Y-98907200D02*
X151285714Y-98811961D01*
X151285714Y-98811961D02*
X151238095Y-98621485D01*
X151238095Y-98621485D02*
X151238095Y-98288152D01*
X151238095Y-98288152D02*
X151285714Y-98097676D01*
X151285714Y-98097676D02*
X151380952Y-98002438D01*
X151380952Y-98002438D02*
X151476190Y-97954819D01*
X152333333Y-98288152D02*
X152333333Y-98954819D01*
X152333333Y-98383390D02*
X152380952Y-98335771D01*
X152380952Y-98335771D02*
X152476190Y-98288152D01*
X152476190Y-98288152D02*
X152619047Y-98288152D01*
X152619047Y-98288152D02*
X152714285Y-98335771D01*
X152714285Y-98335771D02*
X152761904Y-98431009D01*
X152761904Y-98431009D02*
X152761904Y-98954819D01*
X153619047Y-98907200D02*
X153523809Y-98954819D01*
X153523809Y-98954819D02*
X153333333Y-98954819D01*
X153333333Y-98954819D02*
X153238095Y-98907200D01*
X153238095Y-98907200D02*
X153190476Y-98811961D01*
X153190476Y-98811961D02*
X153190476Y-98431009D01*
X153190476Y-98431009D02*
X153238095Y-98335771D01*
X153238095Y-98335771D02*
X153333333Y-98288152D01*
X153333333Y-98288152D02*
X153523809Y-98288152D01*
X153523809Y-98288152D02*
X153619047Y-98335771D01*
X153619047Y-98335771D02*
X153666666Y-98431009D01*
X153666666Y-98431009D02*
X153666666Y-98526247D01*
X153666666Y-98526247D02*
X153190476Y-98621485D01*
X154000000Y-97954819D02*
X154238095Y-98954819D01*
X154238095Y-98954819D02*
X154428571Y-98240533D01*
X154428571Y-98240533D02*
X154619047Y-98954819D01*
X154619047Y-98954819D02*
X154857143Y-97954819D01*
X155238095Y-98954819D02*
X155238095Y-98288152D01*
X155238095Y-97954819D02*
X155190476Y-98002438D01*
X155190476Y-98002438D02*
X155238095Y-98050057D01*
X155238095Y-98050057D02*
X155285714Y-98002438D01*
X155285714Y-98002438D02*
X155238095Y-97954819D01*
X155238095Y-97954819D02*
X155238095Y-98050057D01*
X155714285Y-98954819D02*
X155714285Y-98288152D01*
X155714285Y-98478628D02*
X155761904Y-98383390D01*
X155761904Y-98383390D02*
X155809523Y-98335771D01*
X155809523Y-98335771D02*
X155904761Y-98288152D01*
X155904761Y-98288152D02*
X155999999Y-98288152D01*
X156714285Y-98907200D02*
X156619047Y-98954819D01*
X156619047Y-98954819D02*
X156428571Y-98954819D01*
X156428571Y-98954819D02*
X156333333Y-98907200D01*
X156333333Y-98907200D02*
X156285714Y-98811961D01*
X156285714Y-98811961D02*
X156285714Y-98431009D01*
X156285714Y-98431009D02*
X156333333Y-98335771D01*
X156333333Y-98335771D02*
X156428571Y-98288152D01*
X156428571Y-98288152D02*
X156619047Y-98288152D01*
X156619047Y-98288152D02*
X156714285Y-98335771D01*
X156714285Y-98335771D02*
X156761904Y-98431009D01*
X156761904Y-98431009D02*
X156761904Y-98526247D01*
X156761904Y-98526247D02*
X156285714Y-98621485D01*
X167285714Y-57550057D02*
X167333333Y-57502438D01*
X167333333Y-57502438D02*
X167428571Y-57454819D01*
X167428571Y-57454819D02*
X167666666Y-57454819D01*
X167666666Y-57454819D02*
X167761904Y-57502438D01*
X167761904Y-57502438D02*
X167809523Y-57550057D01*
X167809523Y-57550057D02*
X167857142Y-57645295D01*
X167857142Y-57645295D02*
X167857142Y-57740533D01*
X167857142Y-57740533D02*
X167809523Y-57883390D01*
X167809523Y-57883390D02*
X167238095Y-58454819D01*
X167238095Y-58454819D02*
X167857142Y-58454819D01*
X168238095Y-57550057D02*
X168285714Y-57502438D01*
X168285714Y-57502438D02*
X168380952Y-57454819D01*
X168380952Y-57454819D02*
X168619047Y-57454819D01*
X168619047Y-57454819D02*
X168714285Y-57502438D01*
X168714285Y-57502438D02*
X168761904Y-57550057D01*
X168761904Y-57550057D02*
X168809523Y-57645295D01*
X168809523Y-57645295D02*
X168809523Y-57740533D01*
X168809523Y-57740533D02*
X168761904Y-57883390D01*
X168761904Y-57883390D02*
X168190476Y-58454819D01*
X168190476Y-58454819D02*
X168809523Y-58454819D01*
X169238095Y-57788152D02*
X169238095Y-58788152D01*
X169714285Y-58311961D02*
X169761904Y-58407200D01*
X169761904Y-58407200D02*
X169857142Y-58454819D01*
X169238095Y-58311961D02*
X169285714Y-58407200D01*
X169285714Y-58407200D02*
X169380952Y-58454819D01*
X169380952Y-58454819D02*
X169571428Y-58454819D01*
X169571428Y-58454819D02*
X169666666Y-58407200D01*
X169666666Y-58407200D02*
X169714285Y-58311961D01*
X169714285Y-58311961D02*
X169714285Y-57788152D01*
X170619047Y-57931009D02*
X170285714Y-57931009D01*
X170285714Y-58454819D02*
X170285714Y-57454819D01*
X170285714Y-57454819D02*
X170761904Y-57454819D01*
X197954819Y-69072619D02*
X197954819Y-69644047D01*
X197954819Y-69358333D02*
X196954819Y-69358333D01*
X196954819Y-69358333D02*
X197097676Y-69453571D01*
X197097676Y-69453571D02*
X197192914Y-69548809D01*
X197192914Y-69548809D02*
X197240533Y-69644047D01*
X196954819Y-68453571D02*
X196954819Y-68358333D01*
X196954819Y-68358333D02*
X197002438Y-68263095D01*
X197002438Y-68263095D02*
X197050057Y-68215476D01*
X197050057Y-68215476D02*
X197145295Y-68167857D01*
X197145295Y-68167857D02*
X197335771Y-68120238D01*
X197335771Y-68120238D02*
X197573866Y-68120238D01*
X197573866Y-68120238D02*
X197764342Y-68167857D01*
X197764342Y-68167857D02*
X197859580Y-68215476D01*
X197859580Y-68215476D02*
X197907200Y-68263095D01*
X197907200Y-68263095D02*
X197954819Y-68358333D01*
X197954819Y-68358333D02*
X197954819Y-68453571D01*
X197954819Y-68453571D02*
X197907200Y-68548809D01*
X197907200Y-68548809D02*
X197859580Y-68596428D01*
X197859580Y-68596428D02*
X197764342Y-68644047D01*
X197764342Y-68644047D02*
X197573866Y-68691666D01*
X197573866Y-68691666D02*
X197335771Y-68691666D01*
X197335771Y-68691666D02*
X197145295Y-68644047D01*
X197145295Y-68644047D02*
X197050057Y-68596428D01*
X197050057Y-68596428D02*
X197002438Y-68548809D01*
X197002438Y-68548809D02*
X196954819Y-68453571D01*
X196954819Y-67501190D02*
X196954819Y-67405952D01*
X196954819Y-67405952D02*
X197002438Y-67310714D01*
X197002438Y-67310714D02*
X197050057Y-67263095D01*
X197050057Y-67263095D02*
X197145295Y-67215476D01*
X197145295Y-67215476D02*
X197335771Y-67167857D01*
X197335771Y-67167857D02*
X197573866Y-67167857D01*
X197573866Y-67167857D02*
X197764342Y-67215476D01*
X197764342Y-67215476D02*
X197859580Y-67263095D01*
X197859580Y-67263095D02*
X197907200Y-67310714D01*
X197907200Y-67310714D02*
X197954819Y-67405952D01*
X197954819Y-67405952D02*
X197954819Y-67501190D01*
X197954819Y-67501190D02*
X197907200Y-67596428D01*
X197907200Y-67596428D02*
X197859580Y-67644047D01*
X197859580Y-67644047D02*
X197764342Y-67691666D01*
X197764342Y-67691666D02*
X197573866Y-67739285D01*
X197573866Y-67739285D02*
X197335771Y-67739285D01*
X197335771Y-67739285D02*
X197145295Y-67691666D01*
X197145295Y-67691666D02*
X197050057Y-67644047D01*
X197050057Y-67644047D02*
X197002438Y-67596428D01*
X197002438Y-67596428D02*
X196954819Y-67501190D01*
X197288152Y-66739285D02*
X197954819Y-66739285D01*
X197383390Y-66739285D02*
X197335771Y-66691666D01*
X197335771Y-66691666D02*
X197288152Y-66596428D01*
X197288152Y-66596428D02*
X197288152Y-66453571D01*
X197288152Y-66453571D02*
X197335771Y-66358333D01*
X197335771Y-66358333D02*
X197431009Y-66310714D01*
X197431009Y-66310714D02*
X197954819Y-66310714D01*
X197431009Y-65501190D02*
X197431009Y-65834523D01*
X197954819Y-65834523D02*
X196954819Y-65834523D01*
X196954819Y-65834523D02*
X196954819Y-65358333D01*
X173761904Y-62454819D02*
X173190476Y-62454819D01*
X173476190Y-62454819D02*
X173476190Y-61454819D01*
X173476190Y-61454819D02*
X173380952Y-61597676D01*
X173380952Y-61597676D02*
X173285714Y-61692914D01*
X173285714Y-61692914D02*
X173190476Y-61740533D01*
X174333333Y-61883390D02*
X174238095Y-61835771D01*
X174238095Y-61835771D02*
X174190476Y-61788152D01*
X174190476Y-61788152D02*
X174142857Y-61692914D01*
X174142857Y-61692914D02*
X174142857Y-61645295D01*
X174142857Y-61645295D02*
X174190476Y-61550057D01*
X174190476Y-61550057D02*
X174238095Y-61502438D01*
X174238095Y-61502438D02*
X174333333Y-61454819D01*
X174333333Y-61454819D02*
X174523809Y-61454819D01*
X174523809Y-61454819D02*
X174619047Y-61502438D01*
X174619047Y-61502438D02*
X174666666Y-61550057D01*
X174666666Y-61550057D02*
X174714285Y-61645295D01*
X174714285Y-61645295D02*
X174714285Y-61692914D01*
X174714285Y-61692914D02*
X174666666Y-61788152D01*
X174666666Y-61788152D02*
X174619047Y-61835771D01*
X174619047Y-61835771D02*
X174523809Y-61883390D01*
X174523809Y-61883390D02*
X174333333Y-61883390D01*
X174333333Y-61883390D02*
X174238095Y-61931009D01*
X174238095Y-61931009D02*
X174190476Y-61978628D01*
X174190476Y-61978628D02*
X174142857Y-62073866D01*
X174142857Y-62073866D02*
X174142857Y-62264342D01*
X174142857Y-62264342D02*
X174190476Y-62359580D01*
X174190476Y-62359580D02*
X174238095Y-62407200D01*
X174238095Y-62407200D02*
X174333333Y-62454819D01*
X174333333Y-62454819D02*
X174523809Y-62454819D01*
X174523809Y-62454819D02*
X174619047Y-62407200D01*
X174619047Y-62407200D02*
X174666666Y-62359580D01*
X174666666Y-62359580D02*
X174714285Y-62264342D01*
X174714285Y-62264342D02*
X174714285Y-62073866D01*
X174714285Y-62073866D02*
X174666666Y-61978628D01*
X174666666Y-61978628D02*
X174619047Y-61931009D01*
X174619047Y-61931009D02*
X174523809Y-61883390D01*
X175142857Y-61788152D02*
X175142857Y-62788152D01*
X175619047Y-62311961D02*
X175666666Y-62407200D01*
X175666666Y-62407200D02*
X175761904Y-62454819D01*
X175142857Y-62311961D02*
X175190476Y-62407200D01*
X175190476Y-62407200D02*
X175285714Y-62454819D01*
X175285714Y-62454819D02*
X175476190Y-62454819D01*
X175476190Y-62454819D02*
X175571428Y-62407200D01*
X175571428Y-62407200D02*
X175619047Y-62311961D01*
X175619047Y-62311961D02*
X175619047Y-61788152D01*
X176190476Y-62454819D02*
X176190476Y-61454819D01*
X176190476Y-61931009D02*
X176761904Y-61931009D01*
X176761904Y-62454819D02*
X176761904Y-61454819D01*
X162309523Y-51454819D02*
X162119047Y-51454819D01*
X162119047Y-51454819D02*
X162023809Y-51502438D01*
X162023809Y-51502438D02*
X161976190Y-51550057D01*
X161976190Y-51550057D02*
X161880952Y-51692914D01*
X161880952Y-51692914D02*
X161833333Y-51883390D01*
X161833333Y-51883390D02*
X161833333Y-52264342D01*
X161833333Y-52264342D02*
X161880952Y-52359580D01*
X161880952Y-52359580D02*
X161928571Y-52407200D01*
X161928571Y-52407200D02*
X162023809Y-52454819D01*
X162023809Y-52454819D02*
X162214285Y-52454819D01*
X162214285Y-52454819D02*
X162309523Y-52407200D01*
X162309523Y-52407200D02*
X162357142Y-52359580D01*
X162357142Y-52359580D02*
X162404761Y-52264342D01*
X162404761Y-52264342D02*
X162404761Y-52026247D01*
X162404761Y-52026247D02*
X162357142Y-51931009D01*
X162357142Y-51931009D02*
X162309523Y-51883390D01*
X162309523Y-51883390D02*
X162214285Y-51835771D01*
X162214285Y-51835771D02*
X162023809Y-51835771D01*
X162023809Y-51835771D02*
X161928571Y-51883390D01*
X161928571Y-51883390D02*
X161880952Y-51931009D01*
X161880952Y-51931009D02*
X161833333Y-52026247D01*
X162976190Y-51883390D02*
X162880952Y-51835771D01*
X162880952Y-51835771D02*
X162833333Y-51788152D01*
X162833333Y-51788152D02*
X162785714Y-51692914D01*
X162785714Y-51692914D02*
X162785714Y-51645295D01*
X162785714Y-51645295D02*
X162833333Y-51550057D01*
X162833333Y-51550057D02*
X162880952Y-51502438D01*
X162880952Y-51502438D02*
X162976190Y-51454819D01*
X162976190Y-51454819D02*
X163166666Y-51454819D01*
X163166666Y-51454819D02*
X163261904Y-51502438D01*
X163261904Y-51502438D02*
X163309523Y-51550057D01*
X163309523Y-51550057D02*
X163357142Y-51645295D01*
X163357142Y-51645295D02*
X163357142Y-51692914D01*
X163357142Y-51692914D02*
X163309523Y-51788152D01*
X163309523Y-51788152D02*
X163261904Y-51835771D01*
X163261904Y-51835771D02*
X163166666Y-51883390D01*
X163166666Y-51883390D02*
X162976190Y-51883390D01*
X162976190Y-51883390D02*
X162880952Y-51931009D01*
X162880952Y-51931009D02*
X162833333Y-51978628D01*
X162833333Y-51978628D02*
X162785714Y-52073866D01*
X162785714Y-52073866D02*
X162785714Y-52264342D01*
X162785714Y-52264342D02*
X162833333Y-52359580D01*
X162833333Y-52359580D02*
X162880952Y-52407200D01*
X162880952Y-52407200D02*
X162976190Y-52454819D01*
X162976190Y-52454819D02*
X163166666Y-52454819D01*
X163166666Y-52454819D02*
X163261904Y-52407200D01*
X163261904Y-52407200D02*
X163309523Y-52359580D01*
X163309523Y-52359580D02*
X163357142Y-52264342D01*
X163357142Y-52264342D02*
X163357142Y-52073866D01*
X163357142Y-52073866D02*
X163309523Y-51978628D01*
X163309523Y-51978628D02*
X163261904Y-51931009D01*
X163261904Y-51931009D02*
X163166666Y-51883390D01*
X163785714Y-52454819D02*
X163785714Y-51454819D01*
X163880952Y-52073866D02*
X164166666Y-52454819D01*
X164166666Y-51788152D02*
X163785714Y-52169104D01*
X104254819Y-68932380D02*
X103254819Y-68932380D01*
X103350057Y-68503809D02*
X103302438Y-68456190D01*
X103302438Y-68456190D02*
X103254819Y-68360952D01*
X103254819Y-68360952D02*
X103254819Y-68122857D01*
X103254819Y-68122857D02*
X103302438Y-68027619D01*
X103302438Y-68027619D02*
X103350057Y-67980000D01*
X103350057Y-67980000D02*
X103445295Y-67932381D01*
X103445295Y-67932381D02*
X103540533Y-67932381D01*
X103540533Y-67932381D02*
X103683390Y-67980000D01*
X103683390Y-67980000D02*
X104254819Y-68551428D01*
X104254819Y-68551428D02*
X104254819Y-67932381D01*
X104159580Y-66932381D02*
X104207200Y-66980000D01*
X104207200Y-66980000D02*
X104254819Y-67122857D01*
X104254819Y-67122857D02*
X104254819Y-67218095D01*
X104254819Y-67218095D02*
X104207200Y-67360952D01*
X104207200Y-67360952D02*
X104111961Y-67456190D01*
X104111961Y-67456190D02*
X104016723Y-67503809D01*
X104016723Y-67503809D02*
X103826247Y-67551428D01*
X103826247Y-67551428D02*
X103683390Y-67551428D01*
X103683390Y-67551428D02*
X103492914Y-67503809D01*
X103492914Y-67503809D02*
X103397676Y-67456190D01*
X103397676Y-67456190D02*
X103302438Y-67360952D01*
X103302438Y-67360952D02*
X103254819Y-67218095D01*
X103254819Y-67218095D02*
X103254819Y-67122857D01*
X103254819Y-67122857D02*
X103302438Y-66980000D01*
X103302438Y-66980000D02*
X103350057Y-66932381D01*
X104254819Y-65980000D02*
X104254819Y-66551428D01*
X104254819Y-66265714D02*
X103254819Y-66265714D01*
X103254819Y-66265714D02*
X103397676Y-66360952D01*
X103397676Y-66360952D02*
X103492914Y-66456190D01*
X103492914Y-66456190D02*
X103540533Y-66551428D01*
X113333333Y-73454819D02*
X113333333Y-72454819D01*
X113761904Y-72550057D02*
X113809523Y-72502438D01*
X113809523Y-72502438D02*
X113904761Y-72454819D01*
X113904761Y-72454819D02*
X114142856Y-72454819D01*
X114142856Y-72454819D02*
X114238094Y-72502438D01*
X114238094Y-72502438D02*
X114285713Y-72550057D01*
X114285713Y-72550057D02*
X114333332Y-72645295D01*
X114333332Y-72645295D02*
X114333332Y-72740533D01*
X114333332Y-72740533D02*
X114285713Y-72883390D01*
X114285713Y-72883390D02*
X113714285Y-73454819D01*
X113714285Y-73454819D02*
X114333332Y-73454819D01*
X115333332Y-73359580D02*
X115285713Y-73407200D01*
X115285713Y-73407200D02*
X115142856Y-73454819D01*
X115142856Y-73454819D02*
X115047618Y-73454819D01*
X115047618Y-73454819D02*
X114904761Y-73407200D01*
X114904761Y-73407200D02*
X114809523Y-73311961D01*
X114809523Y-73311961D02*
X114761904Y-73216723D01*
X114761904Y-73216723D02*
X114714285Y-73026247D01*
X114714285Y-73026247D02*
X114714285Y-72883390D01*
X114714285Y-72883390D02*
X114761904Y-72692914D01*
X114761904Y-72692914D02*
X114809523Y-72597676D01*
X114809523Y-72597676D02*
X114904761Y-72502438D01*
X114904761Y-72502438D02*
X115047618Y-72454819D01*
X115047618Y-72454819D02*
X115142856Y-72454819D01*
X115142856Y-72454819D02*
X115285713Y-72502438D01*
X115285713Y-72502438D02*
X115333332Y-72550057D01*
X116285713Y-73454819D02*
X115714285Y-73454819D01*
X115999999Y-73454819D02*
X115999999Y-72454819D01*
X115999999Y-72454819D02*
X115904761Y-72597676D01*
X115904761Y-72597676D02*
X115809523Y-72692914D01*
X115809523Y-72692914D02*
X115714285Y-72740533D01*
X116999999Y-72454819D02*
X116999999Y-73169104D01*
X116999999Y-73169104D02*
X116952380Y-73311961D01*
X116952380Y-73311961D02*
X116857142Y-73407200D01*
X116857142Y-73407200D02*
X116714285Y-73454819D01*
X116714285Y-73454819D02*
X116619047Y-73454819D01*
X117428571Y-73407200D02*
X117571428Y-73454819D01*
X117571428Y-73454819D02*
X117809523Y-73454819D01*
X117809523Y-73454819D02*
X117904761Y-73407200D01*
X117904761Y-73407200D02*
X117952380Y-73359580D01*
X117952380Y-73359580D02*
X117999999Y-73264342D01*
X117999999Y-73264342D02*
X117999999Y-73169104D01*
X117999999Y-73169104D02*
X117952380Y-73073866D01*
X117952380Y-73073866D02*
X117904761Y-73026247D01*
X117904761Y-73026247D02*
X117809523Y-72978628D01*
X117809523Y-72978628D02*
X117619047Y-72931009D01*
X117619047Y-72931009D02*
X117523809Y-72883390D01*
X117523809Y-72883390D02*
X117476190Y-72835771D01*
X117476190Y-72835771D02*
X117428571Y-72740533D01*
X117428571Y-72740533D02*
X117428571Y-72645295D01*
X117428571Y-72645295D02*
X117476190Y-72550057D01*
X117476190Y-72550057D02*
X117523809Y-72502438D01*
X117523809Y-72502438D02*
X117619047Y-72454819D01*
X117619047Y-72454819D02*
X117857142Y-72454819D01*
X117857142Y-72454819D02*
X117999999Y-72502438D01*
X118285714Y-72454819D02*
X118857142Y-72454819D01*
X118571428Y-73454819D02*
X118571428Y-72454819D01*
X119714285Y-73454819D02*
X119142857Y-73454819D01*
X119428571Y-73454819D02*
X119428571Y-72454819D01*
X119428571Y-72454819D02*
X119333333Y-72597676D01*
X119333333Y-72597676D02*
X119238095Y-72692914D01*
X119238095Y-72692914D02*
X119142857Y-72740533D01*
X182880950Y-82931009D02*
X182547617Y-82931009D01*
X182547617Y-83454819D02*
X182547617Y-82454819D01*
X182547617Y-82454819D02*
X183023807Y-82454819D01*
X183833331Y-82788152D02*
X183833331Y-83454819D01*
X183404760Y-82788152D02*
X183404760Y-83311961D01*
X183404760Y-83311961D02*
X183452379Y-83407200D01*
X183452379Y-83407200D02*
X183547617Y-83454819D01*
X183547617Y-83454819D02*
X183690474Y-83454819D01*
X183690474Y-83454819D02*
X183785712Y-83407200D01*
X183785712Y-83407200D02*
X183833331Y-83359580D01*
X184261903Y-83407200D02*
X184357141Y-83454819D01*
X184357141Y-83454819D02*
X184547617Y-83454819D01*
X184547617Y-83454819D02*
X184642855Y-83407200D01*
X184642855Y-83407200D02*
X184690474Y-83311961D01*
X184690474Y-83311961D02*
X184690474Y-83264342D01*
X184690474Y-83264342D02*
X184642855Y-83169104D01*
X184642855Y-83169104D02*
X184547617Y-83121485D01*
X184547617Y-83121485D02*
X184404760Y-83121485D01*
X184404760Y-83121485D02*
X184309522Y-83073866D01*
X184309522Y-83073866D02*
X184261903Y-82978628D01*
X184261903Y-82978628D02*
X184261903Y-82931009D01*
X184261903Y-82931009D02*
X184309522Y-82835771D01*
X184309522Y-82835771D02*
X184404760Y-82788152D01*
X184404760Y-82788152D02*
X184547617Y-82788152D01*
X184547617Y-82788152D02*
X184642855Y-82835771D01*
X185499998Y-83407200D02*
X185404760Y-83454819D01*
X185404760Y-83454819D02*
X185214284Y-83454819D01*
X185214284Y-83454819D02*
X185119046Y-83407200D01*
X185119046Y-83407200D02*
X185071427Y-83311961D01*
X185071427Y-83311961D02*
X185071427Y-82931009D01*
X185071427Y-82931009D02*
X185119046Y-82835771D01*
X185119046Y-82835771D02*
X185214284Y-82788152D01*
X185214284Y-82788152D02*
X185404760Y-82788152D01*
X185404760Y-82788152D02*
X185499998Y-82835771D01*
X185499998Y-82835771D02*
X185547617Y-82931009D01*
X185547617Y-82931009D02*
X185547617Y-83026247D01*
X185547617Y-83026247D02*
X185071427Y-83121485D01*
X186738094Y-82788152D02*
X186738094Y-83788152D01*
X186738094Y-82835771D02*
X186833332Y-82788152D01*
X186833332Y-82788152D02*
X187023808Y-82788152D01*
X187023808Y-82788152D02*
X187119046Y-82835771D01*
X187119046Y-82835771D02*
X187166665Y-82883390D01*
X187166665Y-82883390D02*
X187214284Y-82978628D01*
X187214284Y-82978628D02*
X187214284Y-83264342D01*
X187214284Y-83264342D02*
X187166665Y-83359580D01*
X187166665Y-83359580D02*
X187119046Y-83407200D01*
X187119046Y-83407200D02*
X187023808Y-83454819D01*
X187023808Y-83454819D02*
X186833332Y-83454819D01*
X186833332Y-83454819D02*
X186738094Y-83407200D01*
X187642856Y-83454819D02*
X187642856Y-82788152D01*
X187642856Y-82978628D02*
X187690475Y-82883390D01*
X187690475Y-82883390D02*
X187738094Y-82835771D01*
X187738094Y-82835771D02*
X187833332Y-82788152D01*
X187833332Y-82788152D02*
X187928570Y-82788152D01*
X188404761Y-83454819D02*
X188309523Y-83407200D01*
X188309523Y-83407200D02*
X188261904Y-83359580D01*
X188261904Y-83359580D02*
X188214285Y-83264342D01*
X188214285Y-83264342D02*
X188214285Y-82978628D01*
X188214285Y-82978628D02*
X188261904Y-82883390D01*
X188261904Y-82883390D02*
X188309523Y-82835771D01*
X188309523Y-82835771D02*
X188404761Y-82788152D01*
X188404761Y-82788152D02*
X188547618Y-82788152D01*
X188547618Y-82788152D02*
X188642856Y-82835771D01*
X188642856Y-82835771D02*
X188690475Y-82883390D01*
X188690475Y-82883390D02*
X188738094Y-82978628D01*
X188738094Y-82978628D02*
X188738094Y-83264342D01*
X188738094Y-83264342D02*
X188690475Y-83359580D01*
X188690475Y-83359580D02*
X188642856Y-83407200D01*
X188642856Y-83407200D02*
X188547618Y-83454819D01*
X188547618Y-83454819D02*
X188404761Y-83454819D01*
X189023809Y-82788152D02*
X189404761Y-82788152D01*
X189166666Y-82454819D02*
X189166666Y-83311961D01*
X189166666Y-83311961D02*
X189214285Y-83407200D01*
X189214285Y-83407200D02*
X189309523Y-83454819D01*
X189309523Y-83454819D02*
X189404761Y-83454819D01*
X190119047Y-83407200D02*
X190023809Y-83454819D01*
X190023809Y-83454819D02*
X189833333Y-83454819D01*
X189833333Y-83454819D02*
X189738095Y-83407200D01*
X189738095Y-83407200D02*
X189690476Y-83311961D01*
X189690476Y-83311961D02*
X189690476Y-82931009D01*
X189690476Y-82931009D02*
X189738095Y-82835771D01*
X189738095Y-82835771D02*
X189833333Y-82788152D01*
X189833333Y-82788152D02*
X190023809Y-82788152D01*
X190023809Y-82788152D02*
X190119047Y-82835771D01*
X190119047Y-82835771D02*
X190166666Y-82931009D01*
X190166666Y-82931009D02*
X190166666Y-83026247D01*
X190166666Y-83026247D02*
X189690476Y-83121485D01*
X191023809Y-83407200D02*
X190928571Y-83454819D01*
X190928571Y-83454819D02*
X190738095Y-83454819D01*
X190738095Y-83454819D02*
X190642857Y-83407200D01*
X190642857Y-83407200D02*
X190595238Y-83359580D01*
X190595238Y-83359580D02*
X190547619Y-83264342D01*
X190547619Y-83264342D02*
X190547619Y-82978628D01*
X190547619Y-82978628D02*
X190595238Y-82883390D01*
X190595238Y-82883390D02*
X190642857Y-82835771D01*
X190642857Y-82835771D02*
X190738095Y-82788152D01*
X190738095Y-82788152D02*
X190928571Y-82788152D01*
X190928571Y-82788152D02*
X191023809Y-82835771D01*
X191309524Y-82788152D02*
X191690476Y-82788152D01*
X191452381Y-82454819D02*
X191452381Y-83311961D01*
X191452381Y-83311961D02*
X191500000Y-83407200D01*
X191500000Y-83407200D02*
X191595238Y-83454819D01*
X191595238Y-83454819D02*
X191690476Y-83454819D01*
X192404762Y-83407200D02*
X192309524Y-83454819D01*
X192309524Y-83454819D02*
X192119048Y-83454819D01*
X192119048Y-83454819D02*
X192023810Y-83407200D01*
X192023810Y-83407200D02*
X191976191Y-83311961D01*
X191976191Y-83311961D02*
X191976191Y-82931009D01*
X191976191Y-82931009D02*
X192023810Y-82835771D01*
X192023810Y-82835771D02*
X192119048Y-82788152D01*
X192119048Y-82788152D02*
X192309524Y-82788152D01*
X192309524Y-82788152D02*
X192404762Y-82835771D01*
X192404762Y-82835771D02*
X192452381Y-82931009D01*
X192452381Y-82931009D02*
X192452381Y-83026247D01*
X192452381Y-83026247D02*
X191976191Y-83121485D01*
X193309524Y-83454819D02*
X193309524Y-82454819D01*
X193309524Y-83407200D02*
X193214286Y-83454819D01*
X193214286Y-83454819D02*
X193023810Y-83454819D01*
X193023810Y-83454819D02*
X192928572Y-83407200D01*
X192928572Y-83407200D02*
X192880953Y-83359580D01*
X192880953Y-83359580D02*
X192833334Y-83264342D01*
X192833334Y-83264342D02*
X192833334Y-82978628D01*
X192833334Y-82978628D02*
X192880953Y-82883390D01*
X192880953Y-82883390D02*
X192928572Y-82835771D01*
X192928572Y-82835771D02*
X193023810Y-82788152D01*
X193023810Y-82788152D02*
X193214286Y-82788152D01*
X193214286Y-82788152D02*
X193309524Y-82835771D01*
X194880953Y-82931009D02*
X195023810Y-82978628D01*
X195023810Y-82978628D02*
X195071429Y-83026247D01*
X195071429Y-83026247D02*
X195119048Y-83121485D01*
X195119048Y-83121485D02*
X195119048Y-83264342D01*
X195119048Y-83264342D02*
X195071429Y-83359580D01*
X195071429Y-83359580D02*
X195023810Y-83407200D01*
X195023810Y-83407200D02*
X194928572Y-83454819D01*
X194928572Y-83454819D02*
X194547620Y-83454819D01*
X194547620Y-83454819D02*
X194547620Y-82454819D01*
X194547620Y-82454819D02*
X194880953Y-82454819D01*
X194880953Y-82454819D02*
X194976191Y-82502438D01*
X194976191Y-82502438D02*
X195023810Y-82550057D01*
X195023810Y-82550057D02*
X195071429Y-82645295D01*
X195071429Y-82645295D02*
X195071429Y-82740533D01*
X195071429Y-82740533D02*
X195023810Y-82835771D01*
X195023810Y-82835771D02*
X194976191Y-82883390D01*
X194976191Y-82883390D02*
X194880953Y-82931009D01*
X194880953Y-82931009D02*
X194547620Y-82931009D01*
X195500001Y-83169104D02*
X195976191Y-83169104D01*
X195404763Y-83454819D02*
X195738096Y-82454819D01*
X195738096Y-82454819D02*
X196071429Y-83454819D01*
X196261906Y-82454819D02*
X196833334Y-82454819D01*
X196547620Y-83454819D02*
X196547620Y-82454819D01*
X197023811Y-82454819D02*
X197595239Y-82454819D01*
X197309525Y-83454819D02*
X197309525Y-82454819D01*
X104254819Y-91892380D02*
X103254819Y-91892380D01*
X103350057Y-91463809D02*
X103302438Y-91416190D01*
X103302438Y-91416190D02*
X103254819Y-91320952D01*
X103254819Y-91320952D02*
X103254819Y-91082857D01*
X103254819Y-91082857D02*
X103302438Y-90987619D01*
X103302438Y-90987619D02*
X103350057Y-90940000D01*
X103350057Y-90940000D02*
X103445295Y-90892381D01*
X103445295Y-90892381D02*
X103540533Y-90892381D01*
X103540533Y-90892381D02*
X103683390Y-90940000D01*
X103683390Y-90940000D02*
X104254819Y-91511428D01*
X104254819Y-91511428D02*
X104254819Y-90892381D01*
X104159580Y-89892381D02*
X104207200Y-89940000D01*
X104207200Y-89940000D02*
X104254819Y-90082857D01*
X104254819Y-90082857D02*
X104254819Y-90178095D01*
X104254819Y-90178095D02*
X104207200Y-90320952D01*
X104207200Y-90320952D02*
X104111961Y-90416190D01*
X104111961Y-90416190D02*
X104016723Y-90463809D01*
X104016723Y-90463809D02*
X103826247Y-90511428D01*
X103826247Y-90511428D02*
X103683390Y-90511428D01*
X103683390Y-90511428D02*
X103492914Y-90463809D01*
X103492914Y-90463809D02*
X103397676Y-90416190D01*
X103397676Y-90416190D02*
X103302438Y-90320952D01*
X103302438Y-90320952D02*
X103254819Y-90178095D01*
X103254819Y-90178095D02*
X103254819Y-90082857D01*
X103254819Y-90082857D02*
X103302438Y-89940000D01*
X103302438Y-89940000D02*
X103350057Y-89892381D01*
X103254819Y-89273333D02*
X103254819Y-89178095D01*
X103254819Y-89178095D02*
X103302438Y-89082857D01*
X103302438Y-89082857D02*
X103350057Y-89035238D01*
X103350057Y-89035238D02*
X103445295Y-88987619D01*
X103445295Y-88987619D02*
X103635771Y-88940000D01*
X103635771Y-88940000D02*
X103873866Y-88940000D01*
X103873866Y-88940000D02*
X104064342Y-88987619D01*
X104064342Y-88987619D02*
X104159580Y-89035238D01*
X104159580Y-89035238D02*
X104207200Y-89082857D01*
X104207200Y-89082857D02*
X104254819Y-89178095D01*
X104254819Y-89178095D02*
X104254819Y-89273333D01*
X104254819Y-89273333D02*
X104207200Y-89368571D01*
X104207200Y-89368571D02*
X104159580Y-89416190D01*
X104159580Y-89416190D02*
X104064342Y-89463809D01*
X104064342Y-89463809D02*
X103873866Y-89511428D01*
X103873866Y-89511428D02*
X103635771Y-89511428D01*
X103635771Y-89511428D02*
X103445295Y-89463809D01*
X103445295Y-89463809D02*
X103350057Y-89416190D01*
X103350057Y-89416190D02*
X103302438Y-89368571D01*
X103302438Y-89368571D02*
X103254819Y-89273333D01*
D14*
%TO.C,U1*%
X184000000Y-62440000D02*
X183200000Y-62440000D01*
X184000000Y-62440000D02*
X184800000Y-62440000D01*
X184000000Y-65560000D02*
X183200000Y-65560000D01*
X184000000Y-65560000D02*
X184800000Y-65560000D01*
X185540000Y-65840000D02*
X185060000Y-65840000D01*
X185300000Y-65510000D01*
X185540000Y-65840000D01*
G36*
X185540000Y-65840000D02*
G01*
X185060000Y-65840000D01*
X185300000Y-65510000D01*
X185540000Y-65840000D01*
G37*
%TO.C,1N5817*%
X151840000Y-63000000D02*
X152860000Y-63000000D01*
X153640000Y-61530000D02*
X153640000Y-64470000D01*
X153760000Y-61530000D02*
X153760000Y-64470000D01*
X153880000Y-61530000D02*
X153880000Y-64470000D01*
X159320000Y-63000000D02*
X158300000Y-63000000D01*
X152860000Y-61530000D02*
X158300000Y-61530000D01*
X158300000Y-64470000D01*
X152860000Y-64470000D01*
X152860000Y-61530000D01*
%TO.C,SW1*%
X196110000Y-54360000D02*
X185890000Y-54360000D01*
X185890000Y-51640000D01*
X196110000Y-51640000D01*
X196110000Y-54360000D01*
%TO.C,I2C0JST1*%
X115440000Y-88000000D02*
X115440000Y-94060000D01*
X115440000Y-88000000D02*
X117560000Y-88000000D01*
X115440000Y-94060000D02*
X117560000Y-94060000D01*
X116500000Y-85940000D02*
X117560000Y-85940000D01*
X117560000Y-85940000D02*
X117560000Y-87000000D01*
X117560000Y-88000000D02*
X117560000Y-94060000D01*
%TO.C,J3*%
X153880000Y-69190000D02*
X153880000Y-76810000D01*
X153880000Y-76810000D02*
X164040000Y-76810000D01*
X164040000Y-69190000D02*
X153880000Y-69190000D01*
X164040000Y-75540000D02*
X153880000Y-75540000D01*
X164040000Y-76810000D02*
X164040000Y-69190000D01*
%TO.C,Pullup_One_Wire1*%
X180000000Y-94920000D02*
X180000000Y-98080000D01*
X180920000Y-94000000D02*
G75*
G02*
X179080000Y-94000000I-920000J0D01*
G01*
X179080000Y-94000000D02*
G75*
G02*
X180920000Y-94000000I920000J0D01*
G01*
%TO.C,UART0*%
X106720000Y-49190000D02*
X106720000Y-56810000D01*
X106720000Y-50460000D02*
X127040000Y-50460000D01*
X127040000Y-49190000D02*
X106720000Y-49190000D01*
X127040000Y-56810000D02*
X106720000Y-56810000D01*
X127040000Y-56810000D02*
X127040000Y-49190000D01*
%TO.C,20k*%
X194265000Y-60227064D02*
X194265000Y-59772936D01*
X195735000Y-60227064D02*
X195735000Y-59772936D01*
%TO.C,22k*%
X163772936Y-57265000D02*
X164227064Y-57265000D01*
X163772936Y-58735000D02*
X164227064Y-58735000D01*
%TO.C,105k*%
X191265000Y-59772936D02*
X191265000Y-60227064D01*
X192735000Y-59772936D02*
X192735000Y-60227064D01*
%TO.C,Fuse*%
X169000000Y-51630000D02*
X169000000Y-49020000D01*
X170370000Y-53000000D02*
G75*
G02*
X167630000Y-53000000I-1370000J0D01*
G01*
X167630000Y-53000000D02*
G75*
G02*
X170370000Y-53000000I1370000J0D01*
G01*
%TO.C,2.2\u00B5F*%
X181976248Y-56290000D02*
X184298752Y-56290000D01*
X181976248Y-59710000D02*
X184298752Y-59710000D01*
%TO.C,OneWire*%
X158300000Y-95190000D02*
X173540000Y-95190000D01*
X158300000Y-101540000D02*
X173540000Y-101540000D01*
X158300000Y-102810000D02*
X158300000Y-95190000D01*
X158300000Y-102810000D02*
X173540000Y-102810000D01*
X173540000Y-102810000D02*
X173540000Y-95190000D01*
%TO.C,22\u00B5F*%
X167290000Y-60976248D02*
X167290000Y-63298752D01*
X170710000Y-60976248D02*
X170710000Y-63298752D01*
%TO.C,J2*%
X153880000Y-82690000D02*
X153880000Y-90310000D01*
X153880000Y-90310000D02*
X164040000Y-90310000D01*
X164040000Y-82690000D02*
X153880000Y-82690000D01*
X164040000Y-89040000D02*
X153880000Y-89040000D01*
X164040000Y-90310000D02*
X164040000Y-82690000D01*
%TO.C,J9*%
X169880000Y-69190000D02*
X169880000Y-76810000D01*
X169880000Y-76810000D02*
X180040000Y-76810000D01*
X180040000Y-69190000D02*
X169880000Y-69190000D01*
X180040000Y-75540000D02*
X169880000Y-75540000D01*
X180040000Y-76810000D02*
X180040000Y-69190000D01*
%TO.C,J1*%
X173460000Y-46190000D02*
X173460000Y-53810000D01*
X173460000Y-53810000D02*
X183620000Y-53810000D01*
X183620000Y-46190000D02*
X173460000Y-46190000D01*
X183620000Y-52540000D02*
X173460000Y-52540000D01*
X183620000Y-53810000D02*
X183620000Y-46190000D01*
%TO.C,100nF*%
X192790000Y-66226248D02*
X192790000Y-68548752D01*
X196210000Y-66226248D02*
X196210000Y-68548752D01*
%TO.C,18\u00B5H*%
X172200000Y-61325000D02*
X172200000Y-62525000D01*
X177800000Y-62525000D02*
X177800000Y-61325000D01*
%TO.C,GPIO10-13*%
X102060000Y-124190000D02*
X102060000Y-131810000D01*
X132540000Y-124190000D02*
X102060000Y-124190000D01*
X132540000Y-125460000D02*
X102060000Y-125460000D01*
X132540000Y-131810000D02*
X102060000Y-131810000D01*
X132540000Y-131810000D02*
X132540000Y-124190000D01*
%TO.C,68k*%
X164227064Y-53265000D02*
X163772936Y-53265000D01*
X164227064Y-54735000D02*
X163772936Y-54735000D01*
%TO.C,I2C1*%
X95190000Y-57340000D02*
X95190000Y-77660000D01*
X95190000Y-77660000D02*
X102810000Y-77660000D01*
X96460000Y-77660000D02*
X96460000Y-57340000D01*
X102810000Y-57340000D02*
X95190000Y-57340000D01*
X102810000Y-57340000D02*
X102810000Y-77660000D01*
%TO.C,GPIO6-9*%
X89140000Y-109190000D02*
X89140000Y-116810000D01*
X119620000Y-109190000D02*
X89140000Y-109190000D01*
X119620000Y-110460000D02*
X89140000Y-110460000D01*
X119620000Y-116810000D02*
X89140000Y-116810000D01*
X119620000Y-116810000D02*
X119620000Y-109190000D01*
%TO.C,I2C1JST1*%
X115440000Y-76500000D02*
X115440000Y-82560000D01*
X115440000Y-76500000D02*
X117560000Y-76500000D01*
X115440000Y-82560000D02*
X117560000Y-82560000D01*
X116500000Y-74440000D02*
X117560000Y-74440000D01*
X117560000Y-74440000D02*
X117560000Y-75500000D01*
X117560000Y-76500000D02*
X117560000Y-82560000D01*
%TO.C,Fuse protected BATT*%
X183420000Y-73690000D02*
X183420000Y-81310000D01*
X183420000Y-81310000D02*
X193580000Y-81310000D01*
X193580000Y-73690000D02*
X183420000Y-73690000D01*
X193580000Y-80040000D02*
X183420000Y-80040000D01*
X193580000Y-81310000D02*
X193580000Y-73690000D01*
%TO.C,J10*%
X169880000Y-82690000D02*
X169880000Y-90310000D01*
X169880000Y-90310000D02*
X180040000Y-90310000D01*
X180040000Y-82690000D02*
X169880000Y-82690000D01*
X180040000Y-89040000D02*
X169880000Y-89040000D01*
X180040000Y-90310000D02*
X180040000Y-82690000D01*
%TO.C,J4*%
X150380000Y-50190000D02*
X150380000Y-57810000D01*
X150380000Y-57810000D02*
X160540000Y-57810000D01*
X160540000Y-50190000D02*
X150380000Y-50190000D01*
X160540000Y-56540000D02*
X150380000Y-56540000D01*
X160540000Y-57810000D02*
X160540000Y-50190000D01*
%TO.C,A1*%
X125200000Y-68800000D02*
X124720000Y-68800000D01*
X125200000Y-68800000D02*
X125200000Y-69220000D01*
X125200000Y-71340000D02*
X125200000Y-71760000D01*
X125200000Y-73880000D02*
X125200000Y-74300000D01*
X125200000Y-76420000D02*
X125200000Y-76840000D01*
X125200000Y-78960000D02*
X125200000Y-79380000D01*
X125200000Y-81500000D02*
X125200000Y-81920000D01*
X125200000Y-84040000D02*
X125200000Y-84460000D01*
X125200000Y-86580000D02*
X125200000Y-87000000D01*
X125200000Y-89120000D02*
X125200000Y-89540000D01*
X125200000Y-91660000D02*
X125200000Y-92080000D01*
X125200000Y-94200000D02*
X125200000Y-94620000D01*
X125200000Y-96740000D02*
X125200000Y-97160000D01*
X125200000Y-99280000D02*
X125200000Y-99700000D01*
X125200000Y-101820000D02*
X125200000Y-102240000D01*
X125200000Y-104360000D02*
X125200000Y-104780000D01*
X125200000Y-106900000D02*
X125200000Y-107320000D01*
X125200000Y-109440000D02*
X125200000Y-109860000D01*
X125200000Y-111980000D02*
X125200000Y-112400000D01*
X125200000Y-114520000D02*
X125200000Y-114940000D01*
X125230324Y-66680000D02*
X124720000Y-66680000D01*
X125540000Y-66680063D02*
X125540000Y-66323000D01*
X125540000Y-68800000D02*
X125540000Y-69220000D01*
X125540000Y-71340000D02*
X125540000Y-71760000D01*
X125540000Y-73880000D02*
X125540000Y-74300000D01*
X125540000Y-76420000D02*
X125540000Y-76840000D01*
X125540000Y-78960000D02*
X125540000Y-79380000D01*
X125540000Y-81500000D02*
X125540000Y-81920000D01*
X125540000Y-84040000D02*
X125540000Y-84460000D01*
X125540000Y-86580000D02*
X125540000Y-87000000D01*
X125540000Y-89120000D02*
X125540000Y-89540000D01*
X125540000Y-91660000D02*
X125540000Y-92080000D01*
X125540000Y-94200000D02*
X125540000Y-94620000D01*
X125540000Y-96740000D02*
X125540000Y-97160000D01*
X125540000Y-99280000D02*
X125540000Y-99700000D01*
X125540000Y-101820000D02*
X125540000Y-102240000D01*
X125540000Y-104360000D02*
X125540000Y-104780000D01*
X125540000Y-106900000D02*
X125540000Y-107320000D01*
X125540000Y-109440000D02*
X125540000Y-109860000D01*
X125540000Y-111980000D02*
X125540000Y-112400000D01*
X125540000Y-114520000D02*
X125540000Y-114940000D01*
X125540000Y-117059937D02*
X125540000Y-117417000D01*
X125810000Y-66260000D02*
X128300000Y-66260000D01*
X125810000Y-117480000D02*
X129647939Y-117480000D01*
X128300000Y-66260000D02*
X128300000Y-67173520D01*
X128300000Y-66260000D02*
X129647940Y-66260000D01*
X128300000Y-69566480D02*
X128300000Y-114173520D01*
X128300000Y-116566480D02*
X128300000Y-117480000D01*
X130572061Y-66260000D02*
X131575000Y-66260000D01*
X131575000Y-66260000D02*
X140045000Y-66260000D01*
X131910000Y-66260000D02*
X131910000Y-67176000D01*
X131910000Y-69564000D02*
X131910000Y-70780000D01*
X131910000Y-70780000D02*
X132206090Y-70780000D01*
X132210000Y-117480000D02*
X130572061Y-117480000D01*
X134563910Y-70780000D02*
X137056090Y-70780000D01*
X139410000Y-117480000D02*
X132210000Y-117480000D01*
X139413910Y-70780000D02*
X139710000Y-70780000D01*
X139710000Y-66260000D02*
X139710000Y-67176000D01*
X139710000Y-69564000D02*
X139710000Y-70780000D01*
X140045000Y-66260000D02*
X141047939Y-66260000D01*
X141047939Y-117480000D02*
X139410000Y-117480000D01*
X141972061Y-66260000D02*
X143320000Y-66260000D01*
X141972061Y-117480000D02*
X145810000Y-117480000D01*
X143320000Y-66260000D02*
X143320000Y-67173520D01*
X143320000Y-69566480D02*
X143320000Y-114173520D01*
X143320000Y-116566480D02*
X143320000Y-117480000D01*
X145810000Y-66260000D02*
X143320000Y-66260000D01*
X146080000Y-66680063D02*
X146080000Y-66323000D01*
X146080000Y-68800000D02*
X146080000Y-69220000D01*
X146080000Y-71340000D02*
X146080000Y-71760000D01*
X146080000Y-73880000D02*
X146080000Y-74300000D01*
X146080000Y-76420000D02*
X146080000Y-76840000D01*
X146080000Y-78960000D02*
X146080000Y-79380000D01*
X146080000Y-81500000D02*
X146080000Y-81920000D01*
X146080000Y-84040000D02*
X146080000Y-84460000D01*
X146080000Y-86580000D02*
X146080000Y-87000000D01*
X146080000Y-89120000D02*
X146080000Y-89540000D01*
X146080000Y-91660000D02*
X146080000Y-92080000D01*
X146080000Y-94200000D02*
X146080000Y-94620000D01*
X146080000Y-96740000D02*
X146080000Y-97160000D01*
X146080000Y-99280000D02*
X146080000Y-99700000D01*
X146080000Y-101820000D02*
X146080000Y-102240000D01*
X146080000Y-104360000D02*
X146080000Y-104780000D01*
X146080000Y-106900000D02*
X146080000Y-107320000D01*
X146080000Y-109440000D02*
X146080000Y-109860000D01*
X146080000Y-111980000D02*
X146080000Y-112400000D01*
X146080000Y-114520000D02*
X146080000Y-114940000D01*
X146080000Y-117059937D02*
X146080000Y-117417000D01*
X146420000Y-68800000D02*
X146420000Y-69220000D01*
X146420000Y-71340000D02*
X146420000Y-71760000D01*
X146420000Y-73880000D02*
X146420000Y-74300000D01*
X146420000Y-76420000D02*
X146420000Y-76840000D01*
X146420000Y-78960000D02*
X146420000Y-79380000D01*
X146420000Y-81500000D02*
X146420000Y-81920000D01*
X146420000Y-84040000D02*
X146420000Y-84460000D01*
X146420000Y-86580000D02*
X146420000Y-87000000D01*
X146420000Y-89120000D02*
X146420000Y-89540000D01*
X146420000Y-91660000D02*
X146420000Y-92080000D01*
X146420000Y-94200000D02*
X146420000Y-94620000D01*
X146420000Y-96740000D02*
X146420000Y-97160000D01*
X146420000Y-99280000D02*
X146420000Y-99700000D01*
X146420000Y-101820000D02*
X146420000Y-102240000D01*
X146420000Y-104360000D02*
X146420000Y-104780000D01*
X146420000Y-106900000D02*
X146420000Y-107320000D01*
X146420000Y-109440000D02*
X146420000Y-109860000D01*
X146420000Y-111980000D02*
X146420000Y-112400000D01*
X146420000Y-114520000D02*
X146420000Y-114940000D01*
X125230324Y-66680000D02*
G75*
G02*
X125810000Y-66260000I579692J-190051D01*
G01*
X125810000Y-117480000D02*
G75*
G02*
X125230324Y-117059937I1J610002D01*
G01*
X145810000Y-66260000D02*
G75*
G02*
X146389676Y-66680063I0J-610000D01*
G01*
X146389676Y-117059937D02*
G75*
G02*
X145810000Y-117480069I-579676J189837D01*
G01*
%TO.C,GPIO14-17*%
X138760000Y-124190000D02*
X138760000Y-131810000D01*
X169240000Y-124190000D02*
X138760000Y-124190000D01*
X169240000Y-125460000D02*
X138760000Y-125460000D01*
X169240000Y-131810000D02*
X138760000Y-131810000D01*
X169240000Y-131810000D02*
X169240000Y-124190000D01*
%TO.C,GPIO18-21*%
X150300000Y-108690000D02*
X150300000Y-116310000D01*
X180780000Y-108690000D02*
X150300000Y-108690000D01*
X180780000Y-109960000D02*
X150300000Y-109960000D01*
X180780000Y-116310000D02*
X150300000Y-116310000D01*
X180780000Y-116310000D02*
X180780000Y-108690000D01*
%TO.C,I2C0*%
X95190000Y-80300000D02*
X95190000Y-100620000D01*
X95190000Y-100620000D02*
X102810000Y-100620000D01*
X96460000Y-100620000D02*
X96460000Y-80300000D01*
X102810000Y-80300000D02*
X95190000Y-80300000D01*
X102810000Y-80300000D02*
X102810000Y-100620000D01*
%TD*%
M02*
