%TF.GenerationSoftware,KiCad,Pcbnew,9.0.9-9.0.9~ubuntu22.04.1*%
%TF.CreationDate,2026-07-02T09:42:56+01:00*%
%TF.ProjectId,datalogger_pcb,64617461-6c6f-4676-9765-725f7063622e,rev?*%
%TF.SameCoordinates,Original*%
%TF.FileFunction,Soldermask,Top*%
%TF.FilePolarity,Negative*%
%FSLAX46Y46*%
G04 Gerber Fmt 4.6, Leading zero omitted, Abs format (unit mm)*
G04 Created by KiCad (PCBNEW 9.0.9-9.0.9~ubuntu22.04.1) date 2026-07-02 09:42:56*
%MOMM*%
%LPD*%
G01*
G04 APERTURE LIST*
G04 Aperture macros list*
%AMRoundRect*
0 Rectangle with rounded corners*
0 $1 Rounding radius*
0 $2 $3 $4 $5 $6 $7 $8 $9 X,Y pos of 4 corners*
0 Add a 4 corners polygon primitive as box body*
4,1,4,$2,$3,$4,$5,$6,$7,$8,$9,$2,$3,0*
0 Add four circle primitives for the rounded corners*
1,1,$1+$1,$2,$3*
1,1,$1+$1,$4,$5*
1,1,$1+$1,$6,$7*
1,1,$1+$1,$8,$9*
0 Add four rect primitives between the rounded corners*
20,1,$1+$1,$2,$3,$4,$5,0*
20,1,$1+$1,$4,$5,$6,$7,0*
20,1,$1+$1,$6,$7,$8,$9,0*
20,1,$1+$1,$8,$9,$2,$3,0*%
%AMFreePoly0*
4,1,37,0.603843,0.796157,0.639018,0.796157,0.711114,0.766294,0.766294,0.711114,0.796157,0.639018,0.796157,0.603843,0.800000,0.600000,0.800000,-0.600000,0.796157,-0.603843,0.796157,-0.639018,0.766294,-0.711114,0.711114,-0.766294,0.639018,-0.796157,0.603843,-0.796157,0.600000,-0.800000,0.000000,-0.800000,0.000000,-0.796148,-0.078414,-0.796148,-0.232228,-0.765552,-0.377117,-0.705537,
-0.507515,-0.618408,-0.618408,-0.507515,-0.705537,-0.377117,-0.765552,-0.232228,-0.796148,-0.078414,-0.796148,0.078414,-0.765552,0.232228,-0.705537,0.377117,-0.618408,0.507515,-0.507515,0.618408,-0.377117,0.705537,-0.232228,0.765552,-0.078414,0.796148,0.000000,0.796148,0.000000,0.800000,0.600000,0.800000,0.603843,0.796157,0.603843,0.796157,$1*%
%AMFreePoly1*
4,1,37,0.000000,0.796148,0.078414,0.796148,0.232228,0.765552,0.377117,0.705537,0.507515,0.618408,0.618408,0.507515,0.705537,0.377117,0.765552,0.232228,0.796148,0.078414,0.796148,-0.078414,0.765552,-0.232228,0.705537,-0.377117,0.618408,-0.507515,0.507515,-0.618408,0.377117,-0.705537,0.232228,-0.765552,0.078414,-0.796148,0.000000,-0.796148,0.000000,-0.800000,-0.600000,-0.800000,
-0.603843,-0.796157,-0.639018,-0.796157,-0.711114,-0.766294,-0.766294,-0.711114,-0.796157,-0.639018,-0.796157,-0.603843,-0.800000,-0.600000,-0.800000,0.600000,-0.796157,0.603843,-0.796157,0.639018,-0.766294,0.711114,-0.711114,0.766294,-0.639018,0.796157,-0.603843,0.796157,-0.600000,0.800000,0.000000,0.800000,0.000000,0.796148,0.000000,0.796148,$1*%
G04 Aperture macros list end*
%ADD10RoundRect,0.250000X-0.537500X-1.450000X0.537500X-1.450000X0.537500X1.450000X-0.537500X1.450000X0*%
%ADD11RoundRect,0.250000X1.050000X-1.050000X1.050000X1.050000X-1.050000X1.050000X-1.050000X-1.050000X0*%
%ADD12C,2.600000*%
%ADD13R,5.500000X2.150000*%
%ADD14RoundRect,0.250000X-0.450000X0.350000X-0.450000X-0.350000X0.450000X-0.350000X0.450000X0.350000X0*%
%ADD15RoundRect,0.250000X-0.350000X-0.450000X0.350000X-0.450000X0.350000X0.450000X-0.350000X0.450000X0*%
%ADD16RoundRect,0.250000X0.350000X0.450000X-0.350000X0.450000X-0.350000X-0.450000X0.350000X-0.450000X0*%
%ADD17C,1.400000*%
%ADD18R,1.100000X0.400000*%
%ADD19C,1.600000*%
%ADD20RoundRect,0.250000X0.450000X-0.350000X0.450000X0.350000X-0.450000X0.350000X-0.450000X-0.350000X0*%
%ADD21R,1.350000X1.350000*%
%ADD22C,1.350000*%
%ADD23R,1.050000X1.500000*%
%ADD24O,1.050000X1.500000*%
%ADD25R,1.500000X1.500000*%
%ADD26RoundRect,0.150000X0.825000X0.150000X-0.825000X0.150000X-0.825000X-0.150000X0.825000X-0.150000X0*%
%ADD27RoundRect,0.250000X-1.050000X-1.050000X1.050000X-1.050000X1.050000X1.050000X-1.050000X1.050000X0*%
%ADD28RoundRect,0.150000X-0.587500X-0.150000X0.587500X-0.150000X0.587500X0.150000X-0.587500X0.150000X0*%
%ADD29R,2.540000X2.540000*%
%ADD30C,2.540000*%
%ADD31RoundRect,0.150000X-0.512500X-0.150000X0.512500X-0.150000X0.512500X0.150000X-0.512500X0.150000X0*%
%ADD32C,2.000000*%
%ADD33R,1.100000X0.850000*%
%ADD34R,1.100000X0.750000*%
%ADD35R,1.000000X1.200000*%
%ADD36R,1.350000X1.550000*%
%ADD37R,1.350000X1.900000*%
%ADD38R,1.800000X1.170000*%
%ADD39RoundRect,0.200000X0.600000X-0.600000X0.600000X0.600000X-0.600000X0.600000X-0.600000X-0.600000X0*%
%ADD40FreePoly0,90.000000*%
%ADD41FreePoly1,90.000000*%
G04 APERTURE END LIST*
D10*
%TO.C,C3*%
X125225000Y-50725000D03*
X129500000Y-50725000D03*
%TD*%
D11*
%TO.C,GPIO10-1*%
X121000000Y-139820000D03*
D12*
X121000000Y-134740000D03*
X121000000Y-129660000D03*
X121000000Y-124580000D03*
X121000000Y-119500000D03*
X121000000Y-114420000D03*
%TD*%
D13*
%TO.C,L_alim1*%
X139500000Y-52100000D03*
X139500000Y-48250000D03*
%TD*%
D14*
%TO.C,R3*%
X124900000Y-58250000D03*
X124900000Y-60250000D03*
%TD*%
D15*
%TO.C,R7*%
X169550000Y-46150000D03*
X171550000Y-46150000D03*
%TD*%
D16*
%TO.C,R5*%
X158200000Y-81800000D03*
X156200000Y-81800000D03*
%TD*%
D17*
%TO.C,Pullup_One_Wire1*%
X143810000Y-102700000D03*
X148890000Y-102700000D03*
%TD*%
%TO.C,RpullupSDA1*%
X76750000Y-132700000D03*
X71670000Y-132700000D03*
%TD*%
D16*
%TO.C,R2*%
X150920000Y-62000000D03*
X148920000Y-62000000D03*
%TD*%
D18*
%TO.C,U2*%
X157100000Y-45500000D03*
X157100000Y-46150000D03*
X157100000Y-46800000D03*
X157100000Y-47450000D03*
X160900000Y-47450000D03*
X160900000Y-46800000D03*
X160900000Y-46150000D03*
X160900000Y-45500000D03*
%TD*%
D19*
%TO.C,F1*%
X155000000Y-41000000D03*
X155000000Y-35920000D03*
%TD*%
D15*
%TO.C,R8*%
X169400000Y-54350000D03*
X171400000Y-54350000D03*
%TD*%
D11*
%TO.C,UART1*%
X62000000Y-93660000D03*
D12*
X62000000Y-88580000D03*
X62000000Y-83500000D03*
X62000000Y-78420000D03*
%TD*%
D11*
%TO.C,5VPOUT1*%
X61450000Y-142100000D03*
D12*
X61450000Y-137020000D03*
%TD*%
D11*
%TO.C,OneWire1*%
X150000000Y-121200000D03*
D12*
X150000000Y-116120000D03*
X150000000Y-111040000D03*
%TD*%
D11*
%TO.C,I2C1*%
X61500000Y-125160000D03*
D12*
X61500000Y-120080000D03*
X61500000Y-115000000D03*
X61500000Y-109920000D03*
%TD*%
D20*
%TO.C,10k*%
X132000000Y-73650000D03*
X132000000Y-71650000D03*
%TD*%
D11*
%TO.C,GPIO14-1*%
X121000000Y-104080000D03*
D12*
X121000000Y-99000000D03*
X121000000Y-93920000D03*
X121000000Y-88840000D03*
X121000000Y-83760000D03*
X121000000Y-78680000D03*
%TD*%
D17*
%TO.C,RpullupSCL0*%
X71420000Y-103200000D03*
X76500000Y-103200000D03*
%TD*%
D15*
%TO.C,R_pdown_MFET_1*%
X169550000Y-48950000D03*
X171550000Y-48950000D03*
%TD*%
D11*
%TO.C,GPIO6-1*%
X92500000Y-140400000D03*
D12*
X92500000Y-135320000D03*
X92500000Y-130240000D03*
X92500000Y-125160000D03*
X92500000Y-120080000D03*
X92500000Y-115000000D03*
%TD*%
D16*
%TO.C,Rpllup2*%
X150800000Y-84700000D03*
X148800000Y-84700000D03*
%TD*%
D21*
%TO.C,I2C0JST1*%
X88500000Y-102500000D03*
D22*
X90500000Y-102500000D03*
X92500000Y-102500000D03*
X94500000Y-102500000D03*
%TD*%
D23*
%TO.C,MOSFET_5V1*%
X146500000Y-129300000D03*
D24*
X147770000Y-129300000D03*
X149040000Y-129300000D03*
%TD*%
D11*
%TO.C,J2*%
X150200000Y-142000000D03*
D12*
X150200000Y-136920000D03*
%TD*%
D17*
%TO.C,RpullupSDA0*%
X71320000Y-99250000D03*
X76400000Y-99250000D03*
%TD*%
D25*
%TO.C,SW1*%
X131450000Y-68450000D03*
D19*
X128910000Y-68450000D03*
X133990000Y-68450000D03*
%TD*%
D14*
%TO.C,R4*%
X126800000Y-62500000D03*
X126800000Y-64500000D03*
%TD*%
D15*
%TO.C,R_pdown_MFET_2*%
X169500000Y-51800000D03*
X171500000Y-51800000D03*
%TD*%
D26*
%TO.C,U1*%
X152000000Y-81270000D03*
X152000000Y-80000000D03*
X152000000Y-78730000D03*
X152000000Y-77460000D03*
X147050000Y-77460000D03*
X147050000Y-78730000D03*
X147050000Y-80000000D03*
X147050000Y-81270000D03*
%TD*%
D27*
%TO.C,PWRIN1*%
X142000000Y-38000000D03*
D12*
X147080000Y-38000000D03*
%TD*%
D10*
%TO.C,C2*%
X137925000Y-62200000D03*
X142200000Y-62200000D03*
%TD*%
D11*
%TO.C,I2C2*%
X93000000Y-92000000D03*
D12*
X93000000Y-86920000D03*
X93000000Y-81840000D03*
X93000000Y-76760000D03*
%TD*%
D28*
%TO.C,P Mosfet*%
X148500000Y-46400000D03*
X148500000Y-48300000D03*
X150375000Y-47350000D03*
%TD*%
D29*
%TO.C,BT1*%
X153517800Y-95000000D03*
D30*
X163500000Y-95000000D03*
%TD*%
D10*
%TO.C,C1*%
X130225000Y-55725000D03*
X134500000Y-55725000D03*
%TD*%
D16*
%TO.C,R1*%
X156920000Y-62000000D03*
X154920000Y-62000000D03*
%TD*%
D27*
%TO.C,Alim5V1*%
X123080000Y-38000000D03*
D12*
X128160000Y-38000000D03*
%TD*%
D21*
%TO.C,I2C1JST1*%
X58000000Y-102000000D03*
D22*
X60000000Y-102000000D03*
X62000000Y-102000000D03*
X64000000Y-102000000D03*
%TD*%
D31*
%TO.C,Alimoption1*%
X131225000Y-60725000D03*
X131225000Y-61675000D03*
X131225000Y-62625000D03*
X133500000Y-62625000D03*
X133500000Y-61675000D03*
X133500000Y-60725000D03*
%TD*%
D17*
%TO.C,R_BYPASS1*%
X151600000Y-54150000D03*
X151600000Y-49070000D03*
%TD*%
D32*
%TO.C,SW2*%
X164800000Y-57700000D03*
X158300000Y-57700000D03*
X164800000Y-53200000D03*
X158300000Y-53200000D03*
%TD*%
D20*
%TO.C,R_pullup_int1*%
X154300000Y-51050000D03*
X154300000Y-49050000D03*
%TD*%
D33*
%TO.C,J1*%
X173075000Y-64415000D03*
X173075000Y-65515000D03*
X173075000Y-66615000D03*
X173075000Y-67715000D03*
X173075000Y-68815000D03*
X173075000Y-69915000D03*
X173075000Y-71015000D03*
D34*
X173075000Y-72065000D03*
D35*
X166925000Y-61780000D03*
X163225000Y-61780000D03*
D36*
X172950000Y-61955000D03*
D37*
X162250000Y-65280000D03*
X162250000Y-71250000D03*
D38*
X172725000Y-73275000D03*
%TD*%
D17*
%TO.C,RpullupSCL1*%
X76780000Y-129300000D03*
X71700000Y-129300000D03*
%TD*%
D23*
%TO.C,MOSFET_12V1*%
X156300000Y-129200000D03*
D24*
X157570000Y-129200000D03*
X158840000Y-129200000D03*
%TD*%
D10*
%TO.C,C4*%
X161900000Y-80000000D03*
X166175000Y-80000000D03*
%TD*%
D14*
%TO.C,Rpllup1*%
X141400000Y-78000000D03*
X141400000Y-80000000D03*
%TD*%
D16*
%TO.C,R_pullup_shtdwn1*%
X160350000Y-50000000D03*
X158350000Y-50000000D03*
%TD*%
D39*
%TO.C,A1*%
X59500000Y-68000000D03*
D19*
X62040000Y-68000000D03*
D40*
X64580000Y-68000000D03*
D19*
X67120000Y-68000000D03*
X69660000Y-68000000D03*
X72200000Y-68000000D03*
X74740000Y-68000000D03*
D40*
X77280000Y-68000000D03*
D19*
X79820000Y-68000000D03*
X82360000Y-68000000D03*
X84900000Y-68000000D03*
X87440000Y-68000000D03*
D40*
X89980000Y-68000000D03*
D19*
X92520000Y-68000000D03*
X95060000Y-68000000D03*
X97600000Y-68000000D03*
X100140000Y-68000000D03*
D40*
X102680000Y-68000000D03*
D19*
X105220000Y-68000000D03*
X107760000Y-68000000D03*
X107760000Y-50220000D03*
X105220000Y-50220000D03*
D41*
X102680000Y-50220000D03*
D19*
X100140000Y-50220000D03*
X97600000Y-50220000D03*
X95060000Y-50220000D03*
X92520000Y-50220000D03*
D41*
X89980000Y-50220000D03*
D19*
X87440000Y-50220000D03*
X84900000Y-50220000D03*
X82360000Y-50220000D03*
X79820000Y-50220000D03*
D41*
X77280000Y-50220000D03*
D19*
X74740000Y-50220000D03*
X72200000Y-50220000D03*
X69660000Y-50220000D03*
X67120000Y-50220000D03*
D41*
X64580000Y-50220000D03*
D19*
X62040000Y-50220000D03*
X59500000Y-50220000D03*
%TD*%
D11*
%TO.C,PWR12V1*%
X167050000Y-39900000D03*
D12*
X167050000Y-34820000D03*
%TD*%
M02*
