M48
; DRILL file {KiCad 9.0.9-9.0.9~ubuntu22.04.1} date 2026-07-02T09:43:00+0100
; FORMAT={-:-/ absolute / metric / decimal}
; #@! TF.CreationDate,2026-07-02T09:43:00+01:00
; #@! TF.GenerationSoftware,Kicad,Pcbnew,9.0.9-9.0.9~ubuntu22.04.1
; #@! TF.FileFunction,Plated,1,2,PTH
FMAT,2
METRIC
; #@! TA.AperFunction,Plated,PTH,ViaDrill
T1C0.300
; #@! TA.AperFunction,Plated,PTH,ComponentDrill
T2C0.700
; #@! TA.AperFunction,Plated,PTH,ComponentDrill
T3C0.750
; #@! TA.AperFunction,Plated,PTH,ComponentDrill
T4C0.800
; #@! TA.AperFunction,Plated,PTH,ComponentDrill
T5C1.000
; #@! TA.AperFunction,Plated,PTH,ComponentDrill
T6C1.016
; #@! TA.AperFunction,Plated,PTH,ComponentDrill
T7C1.100
; #@! TA.AperFunction,Plated,PTH,ComponentDrill
T8C1.300
%
G90
G05
T1
X88.5Y-108.0
X103.0Y-104.2
X116.3Y-111.2
X116.4Y-108.6
X117.0Y-73.3
X128.6Y-33.8
X129.85Y-64.7
X134.65Y-42.55
X135.25Y-64.4
X144.5Y-78.73
X146.8Y-48.35
X147.42Y-59.5
X149.6Y-79.4
X152.57Y-64.35
X154.0Y-81.27
X155.5Y-78.6
X158.825Y-76.875
X159.0Y-69.95
X159.6Y-45.4
X160.1Y-61.8
X160.85Y-76.35
X161.5Y-51.8
X163.5Y-54.8
X166.2Y-68.2
X167.125Y-70.925
X167.3Y-55.65
X167.325Y-73.775
X167.95Y-46.1
X171.975Y-58.025
X172.8Y-46.15
T2
X71.32Y-99.25
X71.42Y-103.2
X71.67Y-132.7
X71.7Y-129.3
X76.4Y-99.25
X76.5Y-103.2
X76.75Y-132.7
X76.78Y-129.3
X143.81Y-102.7
X148.89Y-102.7
X151.6Y-49.07
X151.6Y-54.15
T3
X146.5Y-129.3
X147.77Y-129.3
X149.04Y-129.3
X156.3Y-129.2
X157.57Y-129.2
X158.84Y-129.2
T4
X58.0Y-102.0
X60.0Y-102.0
X62.0Y-102.0
X64.0Y-102.0
X88.5Y-102.5
X90.5Y-102.5
X92.5Y-102.5
X94.5Y-102.5
X128.91Y-68.45
X131.45Y-68.45
X133.99Y-68.45
X155.0Y-35.92
X155.0Y-41.0
T5
X59.5Y-50.22
X59.5Y-68.0
X62.04Y-50.22
X62.04Y-68.0
X64.58Y-50.22
X64.58Y-68.0
X67.12Y-50.22
X67.12Y-68.0
X69.66Y-50.22
X69.66Y-68.0
X72.2Y-50.22
X72.2Y-68.0
X74.74Y-50.22
X74.74Y-68.0
X77.28Y-50.22
X77.28Y-68.0
X79.82Y-50.22
X79.82Y-68.0
X82.36Y-50.22
X82.36Y-68.0
X84.9Y-50.22
X84.9Y-68.0
X87.44Y-50.22
X87.44Y-68.0
X89.98Y-50.22
X89.98Y-68.0
X92.52Y-50.22
X92.52Y-68.0
X95.06Y-50.22
X95.06Y-68.0
X97.6Y-50.22
X97.6Y-68.0
X100.14Y-50.22
X100.14Y-68.0
X102.68Y-50.22
X102.68Y-68.0
X105.22Y-50.22
X105.22Y-68.0
X107.76Y-50.22
X107.76Y-68.0
T6
X153.518Y-95.0
X163.5Y-95.0
T7
X158.3Y-53.2
X158.3Y-57.7
X164.8Y-53.2
X164.8Y-57.7
T8
X61.45Y-137.02
X61.45Y-142.1
X61.5Y-109.92
X61.5Y-115.0
X61.5Y-120.08
X61.5Y-125.16
X62.0Y-78.42
X62.0Y-83.5
X62.0Y-88.58
X62.0Y-93.66
X92.5Y-115.0
X92.5Y-120.08
X92.5Y-125.16
X92.5Y-130.24
X92.5Y-135.32
X92.5Y-140.4
X93.0Y-76.76
X93.0Y-81.84
X93.0Y-86.92
X93.0Y-92.0
X121.0Y-78.68
X121.0Y-83.76
X121.0Y-88.84
X121.0Y-93.92
X121.0Y-99.0
X121.0Y-104.08
X121.0Y-114.42
X121.0Y-119.5
X121.0Y-124.58
X121.0Y-129.66
X121.0Y-134.74
X121.0Y-139.82
X123.08Y-38.0
X128.16Y-38.0
X142.0Y-38.0
X147.08Y-38.0
X150.0Y-111.04
X150.0Y-116.12
X150.0Y-121.2
X150.2Y-136.92
X150.2Y-142.0
X167.05Y-34.82
X167.05Y-39.9
M30
