M48
; DRILL file {KiCad 9.0.4-9.0.4-0~ubuntu22.04.1} date 2025-09-22T13:36:47+0100
; FORMAT={-:-/ absolute / metric / decimal}
; #@! TF.CreationDate,2025-09-22T13:36:47+01:00
; #@! TF.GenerationSoftware,Kicad,Pcbnew,9.0.4-9.0.4-0~ubuntu22.04.1
; #@! TF.FileFunction,Plated,1,2,PTH
FMAT,2
METRIC
; #@! TA.AperFunction,Plated,PTH,ViaDrill
T1C0.300
; #@! TA.AperFunction,Plated,PTH,ComponentDrill
T2C0.700
; #@! TA.AperFunction,Plated,PTH,ComponentDrill
T3C0.800
; #@! TA.AperFunction,Plated,PTH,ComponentDrill
T4C1.000
; #@! TA.AperFunction,Plated,PTH,ComponentDrill
T5C1.100
; #@! TA.AperFunction,Plated,PTH,ComponentDrill
T6C1.520
%
G90
G05
T1
X144.0Y-62.0
X165.0Y-60.0
X175.0Y-57.0
X190.0Y-59.0
T2
X180.0Y-94.0
X180.0Y-99.08
T3
X116.5Y-75.5
X116.5Y-77.5
X116.5Y-79.5
X116.5Y-81.5
X116.5Y-87.0
X116.5Y-89.0
X116.5Y-91.0
X116.5Y-93.0
X169.0Y-47.92
X169.0Y-53.0
X188.46Y-53.0
X191.0Y-53.0
X193.54Y-53.0
T4
X126.92Y-67.74
X126.92Y-70.28
X126.92Y-72.82
X126.92Y-75.36
X126.92Y-77.9
X126.92Y-80.44
X126.92Y-82.98
X126.92Y-85.52
X126.92Y-88.06
X126.92Y-90.6
X126.92Y-93.14
X126.92Y-95.68
X126.92Y-98.22
X126.92Y-100.76
X126.92Y-103.3
X126.92Y-105.84
X126.92Y-108.38
X126.92Y-110.92
X126.92Y-113.46
X126.92Y-116.0
X144.7Y-67.74
X144.7Y-70.28
X144.7Y-72.82
X144.7Y-75.36
X144.7Y-77.9
X144.7Y-80.44
X144.7Y-82.98
X144.7Y-85.52
X144.7Y-88.06
X144.7Y-90.6
X144.7Y-93.14
X144.7Y-95.68
X144.7Y-98.22
X144.7Y-100.76
X144.7Y-103.3
X144.7Y-105.84
X144.7Y-108.38
X144.7Y-110.92
X144.7Y-113.46
X144.7Y-116.0
T5
X150.5Y-63.0
X160.66Y-63.0
T6
X91.68Y-113.0
X96.76Y-113.0
X99.0Y-59.88
X99.0Y-64.96
X99.0Y-70.04
X99.0Y-75.12
X99.0Y-82.84
X99.0Y-87.92
X99.0Y-93.0
X99.0Y-98.08
X101.84Y-113.0
X104.6Y-128.0
X106.92Y-113.0
X109.26Y-53.0
X109.68Y-128.0
X112.0Y-113.0
X114.34Y-53.0
X114.76Y-128.0
X117.08Y-113.0
X119.42Y-53.0
X119.84Y-128.0
X124.5Y-53.0
X124.92Y-128.0
X130.0Y-128.0
X141.3Y-128.0
X146.38Y-128.0
X151.46Y-128.0
X152.84Y-112.5
X152.92Y-54.0
X156.42Y-73.0
X156.42Y-86.5
X156.54Y-128.0
X157.92Y-112.5
X158.0Y-54.0
X160.84Y-99.0
X161.5Y-73.0
X161.5Y-86.5
X161.62Y-128.0
X163.0Y-112.5
X165.92Y-99.0
X166.7Y-128.0
X168.08Y-112.5
X171.0Y-99.0
X172.42Y-73.0
X172.42Y-86.5
X173.16Y-112.5
X176.0Y-50.0
X177.5Y-73.0
X177.5Y-86.5
X178.24Y-112.5
X181.08Y-50.0
X185.96Y-77.5
X191.04Y-77.5
M30
