%TF.GenerationSoftware,KiCad,Pcbnew,9.0.4-9.0.4-0~ubuntu22.04.1*%
%TF.CreationDate,2025-09-22T13:37:09+01:00*%
%TF.ProjectId,datalogger_pcb,64617461-6c6f-4676-9765-725f7063622e,rev?*%
%TF.SameCoordinates,Original*%
%TF.FileFunction,Soldermask,Bot*%
%TF.FilePolarity,Negative*%
%FSLAX46Y46*%
G04 Gerber Fmt 4.6, Leading zero omitted, Abs format (unit mm)*
G04 Created by KiCad (PCBNEW 9.0.4-9.0.4-0~ubuntu22.04.1) date 2025-09-22 13:37:09*
%MOMM*%
%LPD*%
G01*
G04 APERTURE LIST*
G04 Aperture macros list*
%AMRoundRect*
0 Rectangle with rounded corners*
0 $1 Rounding radius*
0 $2 $3 $4 $5 $6 $7 $8 $9 X,Y pos of 4 corners*
0 Add a 4 corners polygon primitive as box body*
4,1,4,$2,$3,$4,$5,$6,$7,$8,$9,$2,$3,0*
0 Add four circle primitives for the rounded corners*
1,1,$1+$1,$2,$3*
1,1,$1+$1,$4,$5*
1,1,$1+$1,$6,$7*
1,1,$1+$1,$8,$9*
0 Add four rect primitives between the rounded corners*
20,1,$1+$1,$2,$3,$4,$5,0*
20,1,$1+$1,$4,$5,$6,$7,0*
20,1,$1+$1,$6,$7,$8,$9,0*
20,1,$1+$1,$8,$9,$2,$3,0*%
%AMFreePoly0*
4,1,37,0.603843,0.796157,0.639018,0.796157,0.711114,0.766294,0.766294,0.711114,0.796157,0.639018,0.796157,0.603843,0.800000,0.600000,0.800000,-0.600000,0.796157,-0.603843,0.796157,-0.639018,0.766294,-0.711114,0.711114,-0.766294,0.639018,-0.796157,0.603843,-0.796157,0.600000,-0.800000,0.000000,-0.800000,0.000000,-0.796148,-0.078414,-0.796148,-0.232228,-0.765552,-0.377117,-0.705537,
-0.507515,-0.618408,-0.618408,-0.507515,-0.705537,-0.377117,-0.765552,-0.232228,-0.796148,-0.078414,-0.796148,0.078414,-0.765552,0.232228,-0.705537,0.377117,-0.618408,0.507515,-0.507515,0.618408,-0.377117,0.705537,-0.232228,0.765552,-0.078414,0.796148,0.000000,0.796148,0.000000,0.800000,0.600000,0.800000,0.603843,0.796157,0.603843,0.796157,$1*%
%AMFreePoly1*
4,1,37,0.000000,0.796148,0.078414,0.796148,0.232228,0.765552,0.377117,0.705537,0.507515,0.618408,0.618408,0.507515,0.705537,0.377117,0.765552,0.232228,0.796148,0.078414,0.796148,-0.078414,0.765552,-0.232228,0.705537,-0.377117,0.618408,-0.507515,0.507515,-0.618408,0.377117,-0.705537,0.232228,-0.765552,0.078414,-0.796148,0.000000,-0.796148,0.000000,-0.800000,-0.600000,-0.800000,
-0.603843,-0.796157,-0.639018,-0.796157,-0.711114,-0.766294,-0.766294,-0.711114,-0.796157,-0.639018,-0.796157,-0.603843,-0.800000,-0.600000,-0.800000,0.600000,-0.796157,0.603843,-0.796157,0.639018,-0.766294,0.711114,-0.711114,0.766294,-0.639018,0.796157,-0.603843,0.796157,-0.600000,0.800000,0.000000,0.800000,0.000000,0.796148,0.000000,0.796148,$1*%
G04 Aperture macros list end*
%ADD10RoundRect,0.249999X-0.850001X-0.850001X0.850001X-0.850001X0.850001X0.850001X-0.850001X0.850001X0*%
%ADD11C,2.200000*%
%ADD12R,1.500000X1.500000*%
%ADD13C,1.600000*%
%ADD14R,1.350000X1.350000*%
%ADD15C,1.350000*%
%ADD16R,3.000000X3.000000*%
%ADD17C,3.000000*%
%ADD18C,1.400000*%
%ADD19C,1.850000*%
%ADD20RoundRect,0.200000X-0.600000X-0.600000X0.600000X-0.600000X0.600000X0.600000X-0.600000X0.600000X0*%
%ADD21FreePoly0,0.000000*%
%ADD22FreePoly1,0.000000*%
G04 APERTURE END LIST*
D10*
%TO.C,1N5817*%
X150500000Y-63000000D03*
D11*
X160660000Y-63000000D03*
%TD*%
D12*
%TO.C,SW1*%
X191000000Y-53000000D03*
D13*
X193540000Y-53000000D03*
X188460000Y-53000000D03*
%TD*%
D14*
%TO.C,I2C0JST1*%
X116500000Y-87000000D03*
D15*
X116500000Y-89000000D03*
X116500000Y-91000000D03*
X116500000Y-93000000D03*
%TD*%
D16*
%TO.C,J3*%
X156420000Y-73000000D03*
D17*
X161500000Y-73000000D03*
%TD*%
D18*
%TO.C,Pullup_One_Wire1*%
X180000000Y-94000000D03*
X180000000Y-99080000D03*
%TD*%
D16*
%TO.C,UART0*%
X124500000Y-53000000D03*
D17*
X119420000Y-53000000D03*
X114340000Y-53000000D03*
X109260000Y-53000000D03*
%TD*%
D13*
%TO.C,Fuse*%
X169000000Y-53000000D03*
X169000000Y-47920000D03*
%TD*%
D16*
%TO.C,OneWire*%
X160840000Y-99000000D03*
D17*
X165920000Y-99000000D03*
X171000000Y-99000000D03*
%TD*%
D16*
%TO.C,J2*%
X156420000Y-86500000D03*
D17*
X161500000Y-86500000D03*
%TD*%
D16*
%TO.C,J9*%
X172420000Y-73000000D03*
D17*
X177500000Y-73000000D03*
%TD*%
D16*
%TO.C,J1*%
X176000000Y-50000000D03*
D17*
X181080000Y-50000000D03*
%TD*%
D16*
%TO.C,GPIO10-13*%
X130000000Y-128000000D03*
D17*
X124920000Y-128000000D03*
X119840000Y-128000000D03*
X114760000Y-128000000D03*
X109680000Y-128000000D03*
X104600000Y-128000000D03*
%TD*%
D16*
%TO.C,I2C1*%
X99000000Y-59880000D03*
D17*
X99000000Y-64960000D03*
X99000000Y-70040000D03*
X99000000Y-75120000D03*
%TD*%
D16*
%TO.C,GPIO6-9*%
X117080000Y-113000000D03*
D17*
X112000000Y-113000000D03*
X106920000Y-113000000D03*
X101840000Y-113000000D03*
X96760000Y-113000000D03*
X91680000Y-113000000D03*
%TD*%
D14*
%TO.C,I2C1JST1*%
X116500000Y-75500000D03*
D15*
X116500000Y-77500000D03*
X116500000Y-79500000D03*
X116500000Y-81500000D03*
%TD*%
D16*
%TO.C,Fuse protected BATT*%
X185960000Y-77500000D03*
D17*
X191040000Y-77500000D03*
%TD*%
D16*
%TO.C,J10*%
X172420000Y-86500000D03*
D17*
X177500000Y-86500000D03*
%TD*%
D16*
%TO.C,J4*%
X152920000Y-54000000D03*
D17*
X158000000Y-54000000D03*
%TD*%
D11*
%TO.C,A1*%
X133085000Y-67870000D03*
D19*
X133385000Y-70900000D03*
X138235000Y-70900000D03*
D11*
X138535000Y-67870000D03*
D20*
X126920000Y-67740000D03*
D13*
X126920000Y-70280000D03*
D21*
X126920000Y-72820000D03*
D13*
X126920000Y-75360000D03*
X126920000Y-77900000D03*
X126920000Y-80440000D03*
X126920000Y-82980000D03*
D21*
X126920000Y-85520000D03*
D13*
X126920000Y-88060000D03*
X126920000Y-90600000D03*
X126920000Y-93140000D03*
X126920000Y-95680000D03*
D21*
X126920000Y-98220000D03*
D13*
X126920000Y-100760000D03*
X126920000Y-103300000D03*
X126920000Y-105840000D03*
X126920000Y-108380000D03*
D21*
X126920000Y-110920000D03*
D13*
X126920000Y-113460000D03*
X126920000Y-116000000D03*
X144700000Y-116000000D03*
X144700000Y-113460000D03*
D22*
X144700000Y-110920000D03*
D13*
X144700000Y-108380000D03*
X144700000Y-105840000D03*
X144700000Y-103300000D03*
X144700000Y-100760000D03*
D22*
X144700000Y-98220000D03*
D13*
X144700000Y-95680000D03*
X144700000Y-93140000D03*
X144700000Y-90600000D03*
X144700000Y-88060000D03*
D22*
X144700000Y-85520000D03*
D13*
X144700000Y-82980000D03*
X144700000Y-80440000D03*
X144700000Y-77900000D03*
X144700000Y-75360000D03*
D22*
X144700000Y-72820000D03*
D13*
X144700000Y-70280000D03*
X144700000Y-67740000D03*
%TD*%
D16*
%TO.C,GPIO14-17*%
X166700000Y-128000000D03*
D17*
X161620000Y-128000000D03*
X156540000Y-128000000D03*
X151460000Y-128000000D03*
X146380000Y-128000000D03*
X141300000Y-128000000D03*
%TD*%
D16*
%TO.C,GPIO18-21*%
X178240000Y-112500000D03*
D17*
X173160000Y-112500000D03*
X168080000Y-112500000D03*
X163000000Y-112500000D03*
X157920000Y-112500000D03*
X152840000Y-112500000D03*
%TD*%
D16*
%TO.C,I2C0*%
X99000000Y-82840000D03*
D17*
X99000000Y-87920000D03*
X99000000Y-93000000D03*
X99000000Y-98080000D03*
%TD*%
M02*
