%TF.GenerationSoftware,KiCad,Pcbnew,9.0.9-9.0.9~ubuntu22.04.1*%
%TF.CreationDate,2026-06-09T18:41:45+01:00*%
%TF.ProjectId,temp,74656d70-2e6b-4696-9361-645f70636258,rev?*%
%TF.SameCoordinates,Original*%
%TF.FileFunction,Copper,L1,Top*%
%TF.FilePolarity,Positive*%
%FSLAX46Y46*%
G04 Gerber Fmt 4.6, Leading zero omitted, Abs format (unit mm)*
G04 Created by KiCad (PCBNEW 9.0.9-9.0.9~ubuntu22.04.1) date 2026-06-09 18:41:45*
%MOMM*%
%LPD*%
G01*
G04 APERTURE LIST*
G04 Aperture macros list*
%AMRoundRect*
0 Rectangle with rounded corners*
0 $1 Rounding radius*
0 $2 $3 $4 $5 $6 $7 $8 $9 X,Y pos of 4 corners*
0 Add a 4 corners polygon primitive as box body*
4,1,4,$2,$3,$4,$5,$6,$7,$8,$9,$2,$3,0*
0 Add four circle primitives for the rounded corners*
1,1,$1+$1,$2,$3*
1,1,$1+$1,$4,$5*
1,1,$1+$1,$6,$7*
1,1,$1+$1,$8,$9*
0 Add four rect primitives between the rounded corners*
20,1,$1+$1,$2,$3,$4,$5,0*
20,1,$1+$1,$4,$5,$6,$7,0*
20,1,$1+$1,$6,$7,$8,$9,0*
20,1,$1+$1,$8,$9,$2,$3,0*%
G04 Aperture macros list end*
%TA.AperFunction,SMDPad,CuDef*%
%ADD10RoundRect,0.125000X-0.687500X-0.125000X0.687500X-0.125000X0.687500X0.125000X-0.687500X0.125000X0*%
%TD*%
%TA.AperFunction,ComponentPad*%
%ADD11R,1.000000X1.000000*%
%TD*%
%TA.AperFunction,ViaPad*%
%ADD12C,0.600000*%
%TD*%
%TA.AperFunction,Conductor*%
%ADD13C,0.200000*%
%TD*%
%TA.AperFunction,Conductor*%
%ADD14C,0.500000*%
%TD*%
G04 APERTURE END LIST*
D10*
%TO.P,U1,1,V+*%
%TO.N,+3.3V*%
X132700000Y-80625000D03*
%TO.P,U1,2,SDQ*%
%TO.N,Net-(J3-Pin_1)*%
X132700000Y-81275000D03*
%TO.P,U1,3,ADDR*%
%TO.N,GND*%
X132700000Y-81925000D03*
%TO.P,U1,4,GND*%
X132700000Y-82575000D03*
%TO.P,U1,5,IO3*%
X136925000Y-82575000D03*
%TO.P,U1,6,IO0*%
X136925000Y-81925000D03*
%TO.P,U1,7,IO1*%
X136925000Y-81275000D03*
%TO.P,U1,8,~{ALERT}*%
X136925000Y-80625000D03*
%TD*%
D11*
%TO.P,J4,1,Pin_1*%
%TO.N,+3.3V*%
X128400000Y-80300000D03*
%TD*%
%TO.P,J1,1,Pin_1*%
%TO.N,GND*%
X128400000Y-82600000D03*
%TD*%
%TO.P,J3,1,Pin_1*%
%TO.N,Net-(J3-Pin_1)*%
X125500000Y-81500000D03*
%TD*%
%TO.P,J6,1,Pin_1*%
%TO.N,+3.3V*%
X139700000Y-80400000D03*
%TD*%
%TO.P,J5,1,Pin_1*%
%TO.N,Net-(J3-Pin_1)*%
X142500000Y-81700000D03*
%TD*%
%TO.P,J2,1,Pin_1*%
%TO.N,GND*%
X139700000Y-82700000D03*
%TD*%
D12*
%TO.N,Net-(J3-Pin_1)*%
X134500000Y-81700000D03*
%TD*%
D13*
%TO.N,Net-(J3-Pin_1)*%
X132700000Y-81275000D02*
X132600000Y-81375000D01*
X132600000Y-81375000D02*
X125325000Y-81375000D01*
X125325000Y-81375000D02*
X125200000Y-81500000D01*
%TO.N,GND*%
X136925000Y-81275000D02*
X136925000Y-81925000D01*
X136925000Y-81925000D02*
X136925000Y-82575000D01*
X132700000Y-82575000D02*
X132700000Y-81925000D01*
X132825000Y-82700000D02*
X132700000Y-82575000D01*
X136925000Y-80625000D02*
X136925000Y-81275000D01*
X136925000Y-82575000D02*
X136800000Y-82700000D01*
X136800000Y-82700000D02*
X132825000Y-82700000D01*
D14*
%TO.N,+3.3V*%
X139700000Y-80400000D02*
X139400000Y-80400000D01*
X132700000Y-80575000D02*
X132175000Y-80575000D01*
X132175000Y-80575000D02*
X131900000Y-80300000D01*
X133425000Y-79850000D02*
X132700000Y-80575000D01*
X131900000Y-80300000D02*
X128500000Y-80300000D01*
X138850000Y-79850000D02*
X133425000Y-79850000D01*
X139400000Y-80400000D02*
X138850000Y-79850000D01*
D13*
%TO.N,Net-(J3-Pin_1)*%
X132700000Y-81275000D02*
X132600000Y-81175000D01*
X134075000Y-81275000D02*
X132700000Y-81275000D01*
X134500000Y-81700000D02*
X134075000Y-81275000D01*
%TD*%
%TA.AperFunction,Conductor*%
%TO.N,GND*%
G36*
X127344795Y-79620185D02*
G01*
X127390550Y-79672989D01*
X127401045Y-79737752D01*
X127399500Y-79752127D01*
X127399500Y-79752133D01*
X127399500Y-79752134D01*
X127399500Y-79752135D01*
X127399501Y-80650500D01*
X127379817Y-80717539D01*
X127327013Y-80763294D01*
X127275501Y-80774500D01*
X126518465Y-80774500D01*
X126451426Y-80754815D01*
X126419198Y-80724811D01*
X126419002Y-80724549D01*
X126357546Y-80642454D01*
X126334542Y-80625233D01*
X126242335Y-80556206D01*
X126242328Y-80556202D01*
X126107482Y-80505908D01*
X126107483Y-80505908D01*
X126047883Y-80499501D01*
X126047881Y-80499500D01*
X126047873Y-80499500D01*
X126047864Y-80499500D01*
X124952129Y-80499500D01*
X124952123Y-80499501D01*
X124892516Y-80505908D01*
X124757671Y-80556202D01*
X124757664Y-80556206D01*
X124642455Y-80642452D01*
X124642452Y-80642455D01*
X124556206Y-80757664D01*
X124556202Y-80757671D01*
X124505908Y-80892517D01*
X124499501Y-80952116D01*
X124499500Y-80952135D01*
X124499500Y-82047870D01*
X124499501Y-82047876D01*
X124505908Y-82107483D01*
X124556202Y-82242328D01*
X124556206Y-82242335D01*
X124642452Y-82357544D01*
X124642455Y-82357547D01*
X124757664Y-82443793D01*
X124757671Y-82443797D01*
X124892517Y-82494091D01*
X124892516Y-82494091D01*
X124899444Y-82494835D01*
X124952127Y-82500500D01*
X126047872Y-82500499D01*
X126107483Y-82494091D01*
X126242331Y-82443796D01*
X126357546Y-82357546D01*
X126443796Y-82242331D01*
X126494091Y-82107483D01*
X126494949Y-82099500D01*
X126496375Y-82086243D01*
X126523114Y-82021692D01*
X126580507Y-81981845D01*
X126619664Y-81975500D01*
X127276000Y-81975500D01*
X127343039Y-81995185D01*
X127388794Y-82047989D01*
X127400000Y-82099500D01*
X127400000Y-82350000D01*
X128190382Y-82350000D01*
X128139936Y-82400446D01*
X128097149Y-82474555D01*
X128075000Y-82557213D01*
X128075000Y-82642787D01*
X128097149Y-82725445D01*
X128139936Y-82799554D01*
X128190382Y-82850000D01*
X127400000Y-82850000D01*
X127400000Y-83075500D01*
X127380315Y-83142539D01*
X127327511Y-83188294D01*
X127276000Y-83199500D01*
X124324500Y-83199500D01*
X124257461Y-83179815D01*
X124211706Y-83127011D01*
X124200500Y-83075500D01*
X124200500Y-79724500D01*
X124220185Y-79657461D01*
X124272989Y-79611706D01*
X124324500Y-79600500D01*
X127277756Y-79600500D01*
X127344795Y-79620185D01*
G37*
%TD.AperFunction*%
%TA.AperFunction,Conductor*%
G36*
X143742539Y-79620185D02*
G01*
X143788294Y-79672989D01*
X143799500Y-79724500D01*
X143799500Y-83075500D01*
X143779815Y-83142539D01*
X143727011Y-83188294D01*
X143675500Y-83199500D01*
X140824000Y-83199500D01*
X140756961Y-83179815D01*
X140711206Y-83127011D01*
X140700000Y-83075500D01*
X140700000Y-82950000D01*
X139909618Y-82950000D01*
X139960064Y-82899554D01*
X140002851Y-82825445D01*
X140025000Y-82742787D01*
X140025000Y-82657213D01*
X140002851Y-82574555D01*
X139960064Y-82500446D01*
X139909618Y-82450000D01*
X139950000Y-82450000D01*
X140700000Y-82450000D01*
X140700000Y-82152172D01*
X140699999Y-82152155D01*
X140693598Y-82092627D01*
X140693596Y-82092620D01*
X140643354Y-81957913D01*
X140643350Y-81957906D01*
X140557190Y-81842812D01*
X140557187Y-81842809D01*
X140442093Y-81756649D01*
X140442086Y-81756645D01*
X140307379Y-81706403D01*
X140307372Y-81706401D01*
X140247844Y-81700000D01*
X139950000Y-81700000D01*
X139950000Y-82450000D01*
X139909618Y-82450000D01*
X139899554Y-82439936D01*
X139825445Y-82397149D01*
X139742787Y-82375000D01*
X139657213Y-82375000D01*
X139574555Y-82397149D01*
X139500446Y-82439936D01*
X139439936Y-82500446D01*
X139397149Y-82574555D01*
X139375000Y-82657213D01*
X139375000Y-82742787D01*
X139397149Y-82825445D01*
X139439936Y-82899554D01*
X139490382Y-82950000D01*
X138700000Y-82950000D01*
X138700000Y-83075500D01*
X138680315Y-83142539D01*
X138627511Y-83188294D01*
X138576000Y-83199500D01*
X138260609Y-83199500D01*
X138193570Y-83179815D01*
X138147815Y-83127011D01*
X138137871Y-83057853D01*
X138153877Y-83012380D01*
X138190652Y-82950194D01*
X138190656Y-82950185D01*
X138227025Y-82825000D01*
X135622974Y-82825000D01*
X135659343Y-82950185D01*
X135659347Y-82950194D01*
X135696123Y-83012380D01*
X135713306Y-83080104D01*
X135691146Y-83146366D01*
X135636679Y-83190129D01*
X135589391Y-83199500D01*
X134035609Y-83199500D01*
X133968570Y-83179815D01*
X133922815Y-83127011D01*
X133912871Y-83057853D01*
X133928877Y-83012380D01*
X133965652Y-82950194D01*
X133965656Y-82950185D01*
X134002025Y-82825000D01*
X131397974Y-82825000D01*
X131434343Y-82950185D01*
X131434347Y-82950194D01*
X131471123Y-83012380D01*
X131488306Y-83080104D01*
X131466146Y-83146366D01*
X131411679Y-83190129D01*
X131364391Y-83199500D01*
X129524000Y-83199500D01*
X129456961Y-83179815D01*
X129411206Y-83127011D01*
X129400000Y-83075500D01*
X129400000Y-82850000D01*
X128609618Y-82850000D01*
X128660064Y-82799554D01*
X128702851Y-82725445D01*
X128725000Y-82642787D01*
X128725000Y-82557213D01*
X128702851Y-82474555D01*
X128660064Y-82400446D01*
X128609618Y-82350000D01*
X129400000Y-82350000D01*
X129400000Y-82099500D01*
X129419685Y-82032461D01*
X129472489Y-81986706D01*
X129524000Y-81975500D01*
X131263500Y-81975500D01*
X131330539Y-81995185D01*
X131376294Y-82047989D01*
X131385532Y-82077497D01*
X131412668Y-82227996D01*
X131409712Y-82255458D01*
X131409713Y-82284592D01*
X131397973Y-82324999D01*
X131397974Y-82325000D01*
X133956902Y-82325000D01*
X134023941Y-82344685D01*
X134025774Y-82345885D01*
X134120821Y-82409394D01*
X134120823Y-82409395D01*
X134120827Y-82409397D01*
X134218853Y-82450000D01*
X134266503Y-82469737D01*
X134388938Y-82494091D01*
X134421153Y-82500499D01*
X134421156Y-82500500D01*
X134421158Y-82500500D01*
X134578844Y-82500500D01*
X134578845Y-82500499D01*
X134733497Y-82469737D01*
X134879179Y-82409394D01*
X135005485Y-82324999D01*
X135622973Y-82324999D01*
X135622974Y-82325000D01*
X136675000Y-82325000D01*
X137175000Y-82325000D01*
X138227026Y-82325000D01*
X138215287Y-82284596D01*
X138215184Y-82267351D01*
X138210376Y-82251824D01*
X138214893Y-82218319D01*
X138214885Y-82216819D01*
X138226499Y-82175000D01*
X137175000Y-82175000D01*
X137175000Y-82325000D01*
X136675000Y-82325000D01*
X136675000Y-82175000D01*
X135622974Y-82175000D01*
X135634712Y-82215407D01*
X135634712Y-82284593D01*
X135622973Y-82324999D01*
X135005485Y-82324999D01*
X135010289Y-82321789D01*
X135121789Y-82210289D01*
X135160633Y-82152155D01*
X138700000Y-82152155D01*
X138700000Y-82450000D01*
X139450000Y-82450000D01*
X139450000Y-81700000D01*
X139152155Y-81700000D01*
X139092627Y-81706401D01*
X139092620Y-81706403D01*
X138957913Y-81756645D01*
X138957906Y-81756649D01*
X138842812Y-81842809D01*
X138842809Y-81842812D01*
X138756649Y-81957906D01*
X138756645Y-81957913D01*
X138706403Y-82092620D01*
X138706401Y-82092627D01*
X138700000Y-82152155D01*
X135160633Y-82152155D01*
X135208042Y-82081204D01*
X135208874Y-82079956D01*
X135209394Y-82079179D01*
X135269737Y-81933497D01*
X135300500Y-81778842D01*
X135300500Y-81674999D01*
X135622973Y-81674999D01*
X135622974Y-81675000D01*
X136675000Y-81675000D01*
X137175000Y-81675000D01*
X138227026Y-81675000D01*
X138215287Y-81634596D01*
X138215287Y-81565404D01*
X138227026Y-81525000D01*
X137175000Y-81525000D01*
X137175000Y-81675000D01*
X136675000Y-81675000D01*
X136675000Y-81525000D01*
X135622974Y-81525000D01*
X135634712Y-81565407D01*
X135634712Y-81634593D01*
X135622973Y-81674999D01*
X135300500Y-81674999D01*
X135300500Y-81621158D01*
X135300500Y-81621155D01*
X135281231Y-81524287D01*
X135281231Y-81524286D01*
X135269738Y-81466510D01*
X135269737Y-81466503D01*
X135242398Y-81400500D01*
X135209397Y-81320827D01*
X135209390Y-81320814D01*
X135121789Y-81189711D01*
X135121786Y-81189707D01*
X135010292Y-81078213D01*
X135010288Y-81078210D01*
X134930653Y-81024999D01*
X135622973Y-81024999D01*
X135622974Y-81025000D01*
X136675000Y-81025000D01*
X137175000Y-81025000D01*
X138227026Y-81025000D01*
X138215287Y-80984596D01*
X138215287Y-80915404D01*
X138227026Y-80875000D01*
X137175000Y-80875000D01*
X137175000Y-81025000D01*
X136675000Y-81025000D01*
X136675000Y-80875000D01*
X135622974Y-80875000D01*
X135634712Y-80915407D01*
X135634712Y-80984593D01*
X135622973Y-81024999D01*
X134930653Y-81024999D01*
X134879185Y-80990609D01*
X134879172Y-80990602D01*
X134816531Y-80964656D01*
X134733501Y-80930264D01*
X134733491Y-80930261D01*
X134578151Y-80899362D01*
X134516241Y-80866977D01*
X134514662Y-80865426D01*
X134461417Y-80812181D01*
X134427932Y-80750858D01*
X134432916Y-80681166D01*
X134474788Y-80625233D01*
X134540252Y-80600816D01*
X134549098Y-80600500D01*
X138487770Y-80600500D01*
X138554809Y-80620185D01*
X138575451Y-80636819D01*
X138663181Y-80724549D01*
X138696666Y-80785872D01*
X138699500Y-80812229D01*
X138699500Y-80947869D01*
X138699501Y-80947876D01*
X138705908Y-81007483D01*
X138756202Y-81142328D01*
X138756206Y-81142335D01*
X138842452Y-81257544D01*
X138842455Y-81257547D01*
X138957664Y-81343793D01*
X138957671Y-81343797D01*
X139092517Y-81394091D01*
X139092516Y-81394091D01*
X139099444Y-81394835D01*
X139152127Y-81400500D01*
X140247872Y-81400499D01*
X140307483Y-81394091D01*
X140442331Y-81343796D01*
X140557546Y-81257546D01*
X140636457Y-81152135D01*
X141499500Y-81152135D01*
X141499500Y-82247870D01*
X141499501Y-82247876D01*
X141505908Y-82307483D01*
X141556202Y-82442328D01*
X141556206Y-82442335D01*
X141642452Y-82557544D01*
X141642455Y-82557547D01*
X141757664Y-82643793D01*
X141757671Y-82643797D01*
X141892517Y-82694091D01*
X141892516Y-82694091D01*
X141899444Y-82694835D01*
X141952127Y-82700500D01*
X143047872Y-82700499D01*
X143107483Y-82694091D01*
X143242331Y-82643796D01*
X143357546Y-82557546D01*
X143443796Y-82442331D01*
X143494091Y-82307483D01*
X143500500Y-82247873D01*
X143500499Y-81152128D01*
X143494091Y-81092517D01*
X143488755Y-81078211D01*
X143443797Y-80957671D01*
X143443793Y-80957664D01*
X143357547Y-80842455D01*
X143357544Y-80842452D01*
X143242335Y-80756206D01*
X143242328Y-80756202D01*
X143107482Y-80705908D01*
X143107483Y-80705908D01*
X143047883Y-80699501D01*
X143047881Y-80699500D01*
X143047873Y-80699500D01*
X143047864Y-80699500D01*
X141952129Y-80699500D01*
X141952123Y-80699501D01*
X141892516Y-80705908D01*
X141757671Y-80756202D01*
X141757664Y-80756206D01*
X141642455Y-80842452D01*
X141642452Y-80842455D01*
X141556206Y-80957664D01*
X141556202Y-80957671D01*
X141505908Y-81092517D01*
X141499501Y-81152116D01*
X141499501Y-81152123D01*
X141499500Y-81152135D01*
X140636457Y-81152135D01*
X140643796Y-81142331D01*
X140694091Y-81007483D01*
X140700500Y-80947873D01*
X140700499Y-79852128D01*
X140694091Y-79792517D01*
X140687980Y-79776132D01*
X140684885Y-79767832D01*
X140679901Y-79698140D01*
X140713387Y-79636818D01*
X140774711Y-79603333D01*
X140801067Y-79600500D01*
X143675500Y-79600500D01*
X143742539Y-79620185D01*
G37*
%TD.AperFunction*%
%TD*%
M02*
