%TF.GenerationSoftware,KiCad,Pcbnew,9.0.9-9.0.9~ubuntu22.04.1*%
%TF.CreationDate,2026-06-09T18:41:45+01:00*%
%TF.ProjectId,temp,74656d70-2e6b-4696-9361-645f70636258,rev?*%
%TF.SameCoordinates,Original*%
%TF.FileFunction,Legend,Top*%
%TF.FilePolarity,Positive*%
%FSLAX46Y46*%
G04 Gerber Fmt 4.6, Leading zero omitted, Abs format (unit mm)*
G04 Created by KiCad (PCBNEW 9.0.9-9.0.9~ubuntu22.04.1) date 2026-06-09 18:41:45*
%MOMM*%
%LPD*%
G01*
G04 APERTURE LIST*
%ADD10C,0.100000*%
%ADD11C,0.120000*%
G04 APERTURE END LIST*
D10*
X125023884Y-80562419D02*
X125023884Y-79562419D01*
X125023884Y-79562419D02*
X125261979Y-79562419D01*
X125261979Y-79562419D02*
X125404836Y-79610038D01*
X125404836Y-79610038D02*
X125500074Y-79705276D01*
X125500074Y-79705276D02*
X125547693Y-79800514D01*
X125547693Y-79800514D02*
X125595312Y-79990990D01*
X125595312Y-79990990D02*
X125595312Y-80133847D01*
X125595312Y-80133847D02*
X125547693Y-80324323D01*
X125547693Y-80324323D02*
X125500074Y-80419561D01*
X125500074Y-80419561D02*
X125404836Y-80514800D01*
X125404836Y-80514800D02*
X125261979Y-80562419D01*
X125261979Y-80562419D02*
X125023884Y-80562419D01*
X129868646Y-79472419D02*
X130487693Y-79472419D01*
X130487693Y-79472419D02*
X130154360Y-79853371D01*
X130154360Y-79853371D02*
X130297217Y-79853371D01*
X130297217Y-79853371D02*
X130392455Y-79900990D01*
X130392455Y-79900990D02*
X130440074Y-79948609D01*
X130440074Y-79948609D02*
X130487693Y-80043847D01*
X130487693Y-80043847D02*
X130487693Y-80281942D01*
X130487693Y-80281942D02*
X130440074Y-80377180D01*
X130440074Y-80377180D02*
X130392455Y-80424800D01*
X130392455Y-80424800D02*
X130297217Y-80472419D01*
X130297217Y-80472419D02*
X130011503Y-80472419D01*
X130011503Y-80472419D02*
X129916265Y-80424800D01*
X129916265Y-80424800D02*
X129868646Y-80377180D01*
X130773408Y-79472419D02*
X131106741Y-80472419D01*
X131106741Y-80472419D02*
X131440074Y-79472419D01*
X140608646Y-79272419D02*
X141227693Y-79272419D01*
X141227693Y-79272419D02*
X140894360Y-79653371D01*
X140894360Y-79653371D02*
X141037217Y-79653371D01*
X141037217Y-79653371D02*
X141132455Y-79700990D01*
X141132455Y-79700990D02*
X141180074Y-79748609D01*
X141180074Y-79748609D02*
X141227693Y-79843847D01*
X141227693Y-79843847D02*
X141227693Y-80081942D01*
X141227693Y-80081942D02*
X141180074Y-80177180D01*
X141180074Y-80177180D02*
X141132455Y-80224800D01*
X141132455Y-80224800D02*
X141037217Y-80272419D01*
X141037217Y-80272419D02*
X140751503Y-80272419D01*
X140751503Y-80272419D02*
X140656265Y-80224800D01*
X140656265Y-80224800D02*
X140608646Y-80177180D01*
X141513408Y-79272419D02*
X141846741Y-80272419D01*
X141846741Y-80272419D02*
X142180074Y-79272419D01*
X143503884Y-80872419D02*
X143503884Y-79872419D01*
X143503884Y-79872419D02*
X143741979Y-79872419D01*
X143741979Y-79872419D02*
X143884836Y-79920038D01*
X143884836Y-79920038D02*
X143980074Y-80015276D01*
X143980074Y-80015276D02*
X144027693Y-80110514D01*
X144027693Y-80110514D02*
X144075312Y-80300990D01*
X144075312Y-80300990D02*
X144075312Y-80443847D01*
X144075312Y-80443847D02*
X144027693Y-80634323D01*
X144027693Y-80634323D02*
X143980074Y-80729561D01*
X143980074Y-80729561D02*
X143884836Y-80824800D01*
X143884836Y-80824800D02*
X143741979Y-80872419D01*
X143741979Y-80872419D02*
X143503884Y-80872419D01*
D11*
%TO.C,U1*%
X133202500Y-79990000D02*
X136422500Y-79990000D01*
X133202500Y-80115000D02*
X133202500Y-79990000D01*
X133202500Y-83210000D02*
X133202500Y-83085000D01*
X136422500Y-79990000D02*
X136422500Y-80115000D01*
X136422500Y-83085000D02*
X136422500Y-83210000D01*
X136422500Y-83210000D02*
X133202500Y-83210000D01*
X132652500Y-80110000D02*
X132412500Y-79780000D01*
X132892500Y-79780000D01*
X132652500Y-80110000D01*
G36*
X132652500Y-80110000D02*
G01*
X132412500Y-79780000D01*
X132892500Y-79780000D01*
X132652500Y-80110000D01*
G37*
%TO.C,J4*%
X127240000Y-79490000D02*
X128400000Y-79490000D01*
X127240000Y-80300000D02*
X127240000Y-79490000D01*
X127240000Y-81110000D02*
X127240000Y-81045000D01*
X127240000Y-81110000D02*
X127733292Y-81110000D01*
X127240000Y-81110000D02*
X129560000Y-81110000D01*
X129066708Y-81110000D02*
X129560000Y-81110000D01*
X129560000Y-81110000D02*
X129560000Y-81045000D01*
%TO.C,J1*%
X127240000Y-81790000D02*
X128400000Y-81790000D01*
X127240000Y-82600000D02*
X127240000Y-81790000D01*
X127240000Y-83410000D02*
X127240000Y-83345000D01*
X127240000Y-83410000D02*
X127733292Y-83410000D01*
X127240000Y-83410000D02*
X129560000Y-83410000D01*
X129066708Y-83410000D02*
X129560000Y-83410000D01*
X129560000Y-83410000D02*
X129560000Y-83345000D01*
%TO.C,J3*%
X124340000Y-80690000D02*
X125500000Y-80690000D01*
X124340000Y-81500000D02*
X124340000Y-80690000D01*
X124340000Y-82310000D02*
X124340000Y-82245000D01*
X124340000Y-82310000D02*
X124833292Y-82310000D01*
X124340000Y-82310000D02*
X126660000Y-82310000D01*
X126166708Y-82310000D02*
X126660000Y-82310000D01*
X126660000Y-82310000D02*
X126660000Y-82245000D01*
%TO.C,J6*%
X138540000Y-79590000D02*
X139700000Y-79590000D01*
X138540000Y-80400000D02*
X138540000Y-79590000D01*
X138540000Y-81210000D02*
X138540000Y-81145000D01*
X138540000Y-81210000D02*
X139033292Y-81210000D01*
X138540000Y-81210000D02*
X140860000Y-81210000D01*
X140366708Y-81210000D02*
X140860000Y-81210000D01*
X140860000Y-81210000D02*
X140860000Y-81145000D01*
%TO.C,J5*%
X141340000Y-80890000D02*
X142500000Y-80890000D01*
X141340000Y-81700000D02*
X141340000Y-80890000D01*
X141340000Y-82510000D02*
X141340000Y-82445000D01*
X141340000Y-82510000D02*
X141833292Y-82510000D01*
X141340000Y-82510000D02*
X143660000Y-82510000D01*
X143166708Y-82510000D02*
X143660000Y-82510000D01*
X143660000Y-82510000D02*
X143660000Y-82445000D01*
%TO.C,J2*%
X138540000Y-81890000D02*
X139700000Y-81890000D01*
X138540000Y-82700000D02*
X138540000Y-81890000D01*
X138540000Y-83510000D02*
X138540000Y-83445000D01*
X138540000Y-83510000D02*
X139033292Y-83510000D01*
X138540000Y-83510000D02*
X140860000Y-83510000D01*
X140366708Y-83510000D02*
X140860000Y-83510000D01*
X140860000Y-83510000D02*
X140860000Y-83445000D01*
%TD*%
M02*
